<svg width="580" height="350" viewBox="0 0 580 350" fill="none" xmlns="http://www.w3.org/2000/svg">
<g clip-path="url(#clip0_11_7027)">
<mask id="mask0_11_7027" style="mask-type:luminance" maskUnits="userSpaceOnUse" x="358" y="103" width="211" height="171">
<path d="M476.107 113.271L451.067 103.448L358.649 263.521L383.689 273.344H568.524L476.107 113.271Z" fill="white"/>
</mask>
<g mask="url(#mask0_11_7027)">
<path d="M425.082 282.937C425.004 282.937 424.935 282.882 424.922 282.802C424.908 282.714 424.966 282.629 425.054 282.613L577.628 256.21L349.899 260.628C349.813 260.623 349.738 260.563 349.733 260.475C349.728 260.387 349.792 260.313 349.88 260.303L569.651 238.004L366.118 211.511C366.033 211.5 365.971 211.427 365.976 211.342C365.981 211.257 366.049 211.191 366.134 211.187L551.995 205.959L380.705 148.639C380.629 148.613 380.583 148.536 380.596 148.458C380.609 148.38 380.674 148.323 380.758 148.321L518.069 149.42L431.395 112.778C431.312 112.743 431.273 112.647 431.309 112.564C431.343 112.481 431.439 112.442 431.522 112.478L518.952 149.44C519.023 149.47 519.064 149.547 519.048 149.622C519.031 149.697 518.965 149.752 518.888 149.752L381.781 148.655L552.968 205.941C553.043 205.965 553.089 206.042 553.077 206.118C553.066 206.196 552.999 206.255 552.921 206.256L368.205 211.453L571.087 237.861C571.168 237.872 571.23 237.942 571.228 238.025C571.228 238.108 571.165 238.176 571.082 238.184L353.873 260.223L579.758 255.841C579.841 255.844 579.915 255.903 579.924 255.987C579.933 256.072 579.874 256.148 579.789 256.163L425.11 282.931C425.1 282.931 425.09 282.932 425.082 282.932V282.937Z" fill="#1B1A1F"/>
<path d="M568.524 273.507H383.689C383.67 273.507 383.649 273.503 383.629 273.495L358.589 263.672C358.545 263.655 358.511 263.619 358.494 263.575C358.478 263.531 358.483 263.48 358.507 263.44L450.925 103.367C450.966 103.297 451.05 103.267 451.125 103.297L476.165 113.119C476.2 113.132 476.229 113.157 476.247 113.189L568.664 273.262C568.694 273.313 568.694 273.375 568.664 273.425C568.635 273.476 568.581 273.507 568.523 273.507H568.524ZM383.72 273.181H568.243L475.995 113.403L451.138 103.652L358.885 263.438L383.72 273.179V273.181Z" fill="#1B1A1F"/>
</g>
<path d="M543.484 263.684H358.649C358.59 263.684 358.537 263.653 358.507 263.603C358.478 263.552 358.478 263.49 358.507 263.44L450.925 103.367C450.983 103.266 451.15 103.266 451.206 103.367L543.624 263.44C543.653 263.49 543.653 263.552 543.624 263.603C543.595 263.653 543.541 263.684 543.482 263.684H543.484ZM358.931 263.358H543.202L451.067 103.774L358.931 263.358Z" fill="#1B1A1F"/>
<path d="M455.183 190.407L437.166 178.802L438.517 170.939L439.429 165.634L441.019 156.378L459.385 152.576C459.385 152.576 454.97 190.002 455.185 190.404L455.183 190.407Z" fill="#FD9F84"/>
<path d="M450.99 168.379L438.517 170.939L439.429 165.634L450.99 168.379Z" fill="#DE856A"/>
<path d="M443.757 141.502C443.757 141.502 441.867 147.924 439.967 149.949C438.068 151.974 434.726 153.283 434.784 153.973C434.843 154.663 437.226 156.264 437.226 156.264C437.226 156.264 433.047 162.863 437.298 165.787C442.164 169.134 457.747 172.396 458.063 172.059C458.381 171.722 466.351 155.715 463.554 151.186C460.757 146.659 456.341 131.091 443.757 141.502Z" fill="#FD9F84"/>
<path d="M457.365 173.454C457.365 173.454 467.907 164.766 470.548 159.782C473.325 154.54 471.013 151.3 469.519 150.612C469.519 150.612 474.111 144.575 466.616 140.398C466.616 140.398 465.693 134.538 459.821 135.094C459.821 135.094 450.865 129.849 449.307 127.88C447.749 125.91 443.857 130.82 445.444 134.45C445.444 134.45 443.179 132.682 442.372 130.499C441.566 128.316 435.476 138.046 444.141 142.02C452.807 145.993 453.897 145.591 453.897 145.591C453.897 145.591 448.605 152.754 453.941 158.473C453.941 158.473 452.561 172.873 457.365 173.456V173.454Z" fill="#1B1A1F"/>
<path d="M451.456 154.834C451.456 154.834 458.833 153.973 459.143 157.607C459.549 162.398 450.783 162.601 450.783 162.601L451.456 154.833V154.834Z" fill="#FD9F84"/>
<path d="M451.793 158.759C451.705 158.759 451.633 158.689 451.63 158.601C451.626 158.512 451.696 158.437 451.788 158.434L457.152 158.251C457.241 158.25 457.316 158.318 457.319 158.409C457.323 158.499 457.253 158.574 457.161 158.577L451.797 158.759C451.797 158.759 451.794 158.759 451.793 158.759Z" fill="#1B1A1F"/>
<path d="M439.36 161.011C438.467 160.584 438.828 159.002 439.793 159.226C441.496 159.624 442.458 159.106 443.363 159.192C444.132 159.266 443.42 161.507 440.638 161.305C440.081 161.265 439.668 161.157 439.36 161.011Z" fill="white"/>
<path d="M444.412 152.272C444.742 151.663 444.889 150.862 444.141 150.866C443.635 150.869 443.292 151.531 443.168 151.942C443.025 152.42 443.161 153.309 443.884 152.905C444.05 152.813 444.252 152.563 444.412 152.27V152.272Z" fill="#1B1A1F"/>
<path d="M448.162 149.757C448.12 149.757 448.078 149.741 448.047 149.708C446.456 148.097 443.513 148.639 443.482 148.643C443.394 148.66 443.308 148.603 443.292 148.515C443.275 148.427 443.332 148.341 443.42 148.324C443.547 148.3 446.567 147.747 448.276 149.48C448.34 149.544 448.338 149.648 448.276 149.71C448.245 149.741 448.203 149.757 448.162 149.757Z" fill="#1B1A1F"/>
<path d="M370.92 263.088C370.92 263.088 389.171 187.073 409.78 175.47L437.97 173.922L443.057 182.839L456.146 179.147C456.146 179.147 473.265 192.817 476.112 196.538L472.467 263.086H370.92V263.088Z" fill="#1B1A1F"/>
<path d="M478.495 201.329L486.781 249.834C487.75 255.505 485.467 261.296 480.779 264.631C478.368 266.347 475.628 267.2 472.988 266.417C467.624 264.827 464.153 259.64 464.731 254.074L457.389 204.7C456.596 199.364 459.903 194.274 465.102 192.831C471.202 191.138 477.43 195.089 478.495 201.329Z" fill="#1B1A1F"/>
<path d="M462.626 240.091C462.548 240.091 462.478 240.034 462.465 239.954L457.84 211.378C457.826 211.288 457.886 211.205 457.975 211.191C458.065 211.176 458.148 211.236 458.163 211.326L462.787 239.902C462.802 239.991 462.742 240.074 462.652 240.089C462.644 240.089 462.634 240.091 462.626 240.091Z" fill="white"/>
<mask id="mask1_11_7027" style="mask-type:luminance" maskUnits="userSpaceOnUse" x="236" y="2" width="153" height="154">
<path d="M366.524 132.745C396.23 103.039 396.23 54.8763 366.524 25.1703C336.818 -4.53564 288.656 -4.53565 258.95 25.1703C229.244 54.8763 229.244 103.039 258.95 132.745C288.656 162.451 336.818 162.451 366.524 132.745Z" fill="white"/>
</mask>
<g mask="url(#mask1_11_7027)">
<path d="M312.814 155.188C311.855 155.188 310.895 155.17 309.933 155.134C299.649 154.755 289.747 152.373 280.502 148.056C271.573 143.885 263.627 138.091 256.889 130.839C250.151 123.585 244.958 115.236 241.455 106.023C237.828 96.4856 236.182 86.435 236.561 76.1515C236.941 65.8681 239.322 55.9656 243.64 46.7207C247.81 37.7917 253.604 29.8459 260.856 23.108C268.11 16.3702 276.46 11.1772 285.672 7.67392C295.21 4.04696 305.26 2.40115 315.544 2.78045C325.827 3.15975 335.73 5.54137 344.975 9.85856C353.904 14.0292 361.849 19.8229 368.587 27.0752C375.325 34.3291 380.518 42.6786 384.021 51.8909C387.648 61.4288 389.294 71.4794 388.915 81.7629C388.536 92.0463 386.154 101.949 381.837 111.194C377.666 120.123 371.872 128.068 364.62 134.806C357.366 141.544 349.017 146.737 339.804 150.24C331.16 153.527 322.093 155.188 312.814 155.188ZM312.702 3.05394C272.123 3.05394 238.391 35.2831 236.885 76.1645C236.14 96.4254 243.327 115.765 257.127 130.618C270.925 145.472 289.683 154.064 309.944 154.81C310.899 154.846 311.855 154.862 312.807 154.862C332.021 154.862 350.244 147.716 364.397 134.569C379.252 120.771 387.844 102.012 388.589 81.7515C390.129 39.9259 357.356 4.64603 315.531 3.10603C314.587 3.07185 313.639 3.05394 312.702 3.05394Z" fill="#1B1A1F"/>
<path d="M264.407 159.466C264.35 159.466 264.296 159.436 264.265 159.384C264.221 159.306 264.247 159.207 264.325 159.161L410.369 75.3034L224.775 115.626C224.694 115.644 224.613 115.597 224.587 115.517C224.561 115.438 224.6 115.351 224.676 115.319L411.211 33.4696L196.846 84.0175C196.763 84.037 196.68 83.9898 196.654 83.9084C196.627 83.827 196.668 83.7408 196.748 83.7082L389.226 6.25113C369.758 10.2818 215.982 42.1105 214.319 42.1105C214.319 42.1105 214.318 42.1105 214.316 42.1105C214.227 42.1072 214.155 42.0324 214.158 41.9428C214.162 41.8533 214.232 41.7865 214.324 41.7849C216.219 41.741 389.195 5.92392 390.942 5.56253C391.025 5.54462 391.106 5.59346 391.13 5.67486C391.155 5.75625 391.114 5.8409 391.036 5.87346L198.864 83.2052L412.873 32.7419C412.954 32.7224 413.037 32.7696 413.065 32.8494C413.091 32.9291 413.053 33.0154 412.975 33.0496L226.296 114.962L411.328 74.7613C411.406 74.7434 411.486 74.7873 411.515 74.8622C411.544 74.9371 411.515 75.0217 411.443 75.0624L264.488 159.445C264.462 159.459 264.434 159.466 264.407 159.466Z" fill="#1B1A1F"/>
<path d="M312.814 155.188C311.855 155.188 310.895 155.17 309.933 155.134C299.649 154.755 289.747 152.373 280.502 148.056C271.573 143.885 263.627 138.091 256.889 130.839C250.151 123.585 244.958 115.236 241.455 106.023C237.828 96.4856 236.182 86.435 236.561 76.1515C236.941 65.8681 239.322 55.9656 243.64 46.7207C247.81 37.7917 253.604 29.8459 260.856 23.108C268.11 16.3702 276.46 11.1772 285.672 7.67392C295.21 4.04696 305.26 2.40115 315.544 2.78045C325.827 3.15975 335.73 5.54137 344.975 9.85856C353.904 14.0292 361.849 19.8229 368.587 27.0752C375.325 34.3291 380.518 42.6786 384.021 51.8909C387.648 61.4288 389.294 71.4794 388.915 81.7629C388.536 92.0463 386.154 101.949 381.837 111.194C377.666 120.123 371.872 128.068 364.62 134.806C357.366 141.544 349.017 146.737 339.804 150.24C331.16 153.527 322.093 155.188 312.814 155.188ZM312.702 3.05394C272.123 3.05394 238.391 35.2831 236.885 76.1645C236.14 96.4254 243.327 115.765 257.127 130.618C270.925 145.472 289.683 154.064 309.944 154.81C310.899 154.846 311.855 154.862 312.807 154.862C332.021 154.862 350.244 147.716 364.397 134.569C379.252 120.771 387.844 102.012 388.589 81.7515C390.129 39.9259 357.356 4.64603 315.531 3.10603C314.587 3.07185 313.639 3.05394 312.702 3.05394Z" fill="#1B1A1F"/>
</g>
<path d="M299.385 159.572C289.095 159.572 279.111 157.556 269.714 153.581C260.636 149.741 252.484 144.245 245.484 137.245C238.484 130.245 232.987 122.092 229.148 113.015C225.173 103.617 223.157 93.6335 223.157 83.3436C223.157 73.0536 225.173 63.0697 229.148 53.6718C232.987 44.5947 238.484 36.4422 245.484 29.4422C252.484 22.4422 260.636 16.9448 269.714 13.1062C279.111 9.13089 289.095 7.11555 299.385 7.11555C309.675 7.11555 319.659 9.13089 329.057 13.1062C338.134 16.9448 346.287 22.4422 353.287 29.4422C360.287 36.4422 365.784 44.5947 369.623 53.6718C373.598 63.0697 375.613 73.0536 375.613 83.3436C375.613 93.6335 373.598 103.617 369.623 113.015C365.784 122.092 360.287 130.245 353.287 137.245C346.287 144.245 338.134 149.742 329.057 153.581C319.659 157.556 309.675 159.572 299.385 159.572ZM299.385 7.4395C257.532 7.4395 223.481 41.4903 223.481 83.3436C223.481 125.197 257.532 159.248 299.385 159.248C341.239 159.248 375.289 125.197 375.289 83.3436C375.289 41.4903 341.239 7.4395 299.385 7.4395Z" fill="#1B1A1F"/>
<path d="M291.37 27.3585C291.37 27.3585 286.829 42.9586 278.706 57.3395C270.583 71.7204 288.343 109.978 288.343 109.978L314.038 94.7812L312.7 58.7297L313.625 35.7047L291.37 27.3585Z" fill="#001081"/>
<path d="M331.144 113.909C331.144 113.909 355.515 110.723 357.739 92.4614C359.745 75.992 345.914 64.3639 337.131 59.739C333.363 57.7546 330.076 54.9595 327.585 51.5051C325.334 48.3812 323.097 44.1633 321.87 38.7668C318.777 25.1657 314.697 24.2166 308.767 20.5392C308.767 20.5392 303.323 16.5281 295.664 19.9369C288.005 23.3441 291.121 31.5422 291.121 31.5422L302.493 84.0322L318.596 115.932L331.144 113.912V113.909Z" fill="#001081"/>
<path d="M311.65 61.5899L295.905 61.0837L295.674 56.9016L295.376 51.4823L296.512 50.766L296.859 50.5495L309.434 43.5593L311.65 61.5899Z" fill="#FD9F84"/>
<path d="M303.478 51.2658L295.674 56.9016L295.376 51.4823L296.512 50.766L303.478 51.2658Z" fill="#D1836D"/>
<path d="M303.864 25.3203C303.864 25.3203 293.452 22.9518 290.927 30.2561C288.351 37.7103 286.833 52.6625 296.423 53.5839C304.289 54.3409 310.737 43.1361 310.878 41.5163C311.022 39.8949 310.864 25.3008 303.864 25.3203Z" fill="#FD9F84"/>
<path d="M309.823 40.6145C309.823 40.6145 309.806 39.82 307.232 34.7931C304.756 29.9582 303.081 26.4176 303.081 26.4176C303.081 26.4176 298.308 25.7729 295.983 26.4582C293.559 27.1729 290.621 31.2019 290.621 31.2019C290.621 31.2019 289.904 28.1236 290.666 25.9113C291.428 23.699 300.408 21.6543 306.975 26.0594C306.975 26.0594 313.636 32.1429 309.825 40.6145H309.823Z" fill="#001081"/>
<path d="M293.212 39.1477C293.515 39.1412 293.756 38.8889 293.75 38.5861L293.732 37.7998C293.725 37.497 293.473 37.2561 293.17 37.2626C292.866 37.2691 292.626 37.5215 292.633 37.8242L292.651 38.6105C292.657 38.9133 292.91 39.1542 293.212 39.1477Z" fill="#292929"/>
<path d="M300.888 39.9177C301.192 39.9112 301.432 39.6589 301.425 39.3561L301.407 38.5698C301.401 38.267 301.148 38.0261 300.846 38.0326C300.543 38.0391 300.302 38.2915 300.308 38.5942L300.326 39.3805C300.333 39.6849 300.585 39.9242 300.888 39.9177Z" fill="#292929"/>
<path d="M295.205 44.0103C295.177 44.0103 295.148 44.0021 295.122 43.9875C294.402 43.5577 293.715 42.7958 293.795 42.1724C293.826 41.9347 293.981 41.6172 294.541 41.4545C295.472 41.1859 295.771 38.2866 295.809 37.191C295.809 37.1763 295.856 35.9815 294.964 35.1122C294.228 34.3959 293.074 34.0915 291.532 34.207C291.443 34.2136 291.365 34.1468 291.358 34.0573C291.352 33.9677 291.418 33.8896 291.508 33.8831C293.149 33.761 294.391 34.098 295.195 34.8843C296.191 35.8577 296.138 37.1519 296.134 37.2056C296.12 37.6305 295.957 41.3845 294.632 41.7686C294.318 41.8598 294.145 42.0096 294.119 42.2147C294.065 42.6282 294.58 43.2842 295.29 43.7075C295.366 43.753 295.392 43.854 295.347 43.9305C295.316 43.981 295.262 44.0103 295.207 44.0103H295.205Z" fill="#292929"/>
<path d="M299.885 45.42C299.885 45.42 298.656 46.7663 297.222 46.9177C295.788 47.0691 296.537 48.3714 298.15 48.2151C299.763 48.0588 301.205 45.451 299.885 45.42Z" fill="white"/>
<path d="M299.053 35.327C299.001 35.327 298.949 35.3026 298.918 35.2554C298.868 35.1805 298.887 35.0796 298.962 35.0291C299.04 34.977 300.896 33.7529 303.667 34.9103C303.75 34.9445 303.789 35.0405 303.755 35.1236C303.72 35.2066 303.624 35.2457 303.541 35.2115C300.94 34.1257 299.162 35.2863 299.144 35.2994C299.117 35.3173 299.084 35.327 299.053 35.327Z" fill="#292929"/>
<path d="M307.144 39.0875C307.144 39.0875 310.335 36.1898 311.907 37.8291C313.351 39.3349 313.818 43.6049 307.29 45.5958L307.144 39.0875Z" fill="#FD9F84"/>
<path d="M307.959 41.8533C307.903 41.8533 307.849 41.824 307.818 41.7719C307.772 41.6938 307.8 41.5945 307.878 41.5489L310.829 39.8445C310.908 39.7989 311.007 39.8266 311.053 39.9047C311.098 39.9828 311.07 40.0821 310.992 40.1277L308.041 41.8321C308.015 41.8468 307.987 41.8533 307.959 41.8533Z" fill="#292929"/>
<path d="M290.619 31.2019C290.619 31.2019 290.328 27.0866 294.357 25.2471C298.309 23.4418 303.079 26.4159 303.079 26.4159C303.079 26.4159 294.264 25.4669 290.617 31.2003L290.619 31.2019Z" fill="#001081"/>
<path d="M291.09 24.4429C291.09 24.4429 287.969 33.1522 288.203 36.6359C288.203 36.6359 290.881 31.8482 292.942 30.7885C294.388 30.0461 295.376 29.6815 297.617 29.9306C299.122 30.0982 300.483 30.8747 301.047 31.2003C303.924 32.8624 308.909 37.3261 308.909 37.3261L308.236 24.635L301.773 23.2741L291.09 24.4413V24.4429Z" fill="#001081"/>
<path d="M340.506 141.746L334.268 65.7492L312.75 60.1541L311.65 56.5728C311.65 56.5728 302.705 58.0542 294.954 55.2184L293.746 58.943L276.548 60.6083C273.713 60.8834 270.952 61.6697 268.402 62.933L229.415 82.2187C223.756 85.0187 221.827 92.1424 225.303 97.4135C227.914 101.374 232.855 103.093 237.361 101.609L265.361 92.3817L255.248 138.341L340.508 141.743L340.506 141.746Z" fill="#30DE83"/>
<path d="M295.649 287.03L247.363 344.216H313.126L295.649 287.03Z" fill="#001081"/>
<path d="M313.126 344.379H247.364C247.291 344.379 247.227 344.33 247.208 344.26C247.188 344.19 247.218 344.115 247.28 344.078L278.735 324.935C278.761 324.921 278.791 324.911 278.82 324.911H344.582C344.656 324.911 344.719 324.96 344.739 325.03C344.758 325.1 344.729 325.175 344.667 325.212L313.211 344.354C313.185 344.369 313.156 344.379 313.126 344.379ZM247.944 344.053H313.081L344.001 325.236H278.864L247.944 344.053Z" fill="#1B1A1F"/>
<mask id="mask2_11_7027" style="mask-type:luminance" maskUnits="userSpaceOnUse" x="295" y="287" width="50" height="58">
<path d="M295.649 287.03L344.582 325.074L313.126 344.216L295.649 287.03Z" fill="white"/>
</mask>
<g mask="url(#mask2_11_7027)">
<path d="M320.563 350C320.563 350 320.551 350 320.545 350L311.683 349.054C311.63 349.049 311.585 349.02 311.559 348.974C311.533 348.93 311.529 348.875 311.549 348.828L331.702 301.873L325.355 297.157L307.476 339.124C307.455 339.174 307.409 339.21 307.356 339.22C307.302 339.23 307.246 339.212 307.209 339.173L301.949 333.69C301.904 333.643 301.891 333.571 301.918 333.511L319.682 293.587L314.209 289.651L300.727 318.751C300.706 318.795 300.667 318.827 300.619 318.84C300.572 318.852 300.522 318.844 300.483 318.814L295.872 315.425C295.812 315.381 295.791 315.303 295.817 315.235L306.092 289.175C306.125 289.092 306.219 289.051 306.304 289.084C306.387 289.117 306.429 289.211 306.395 289.296L296.165 315.238L300.513 318.435L313.996 289.336C314.017 289.292 314.056 289.26 314.102 289.247C314.149 289.234 314.199 289.244 314.238 289.273L319.978 293.401C320.04 293.447 320.063 293.53 320.032 293.6L302.259 333.545L307.271 338.771L325.134 296.841C325.153 296.795 325.192 296.761 325.241 296.748C325.29 296.735 325.341 296.745 325.381 296.774L331.999 301.689C332.059 301.734 332.082 301.814 332.051 301.884L311.933 348.755L320.457 349.663L339.692 305.158C339.728 305.075 339.824 305.037 339.905 305.073C339.988 305.109 340.026 305.205 339.99 305.286L320.708 349.901C320.682 349.961 320.623 349.998 320.558 349.998L320.563 350Z" fill="#1B1A1F"/>
</g>
<path d="M313.126 344.379C313.107 344.379 313.087 344.376 313.068 344.367C313.021 344.35 312.985 344.311 312.97 344.263L295.495 287.077C295.473 287.008 295.5 286.935 295.558 286.894C295.617 286.854 295.695 286.857 295.75 286.899L344.682 324.943C344.724 324.976 344.747 325.028 344.744 325.082C344.74 325.135 344.711 325.184 344.665 325.212L313.209 344.354C313.183 344.371 313.154 344.379 313.125 344.379H313.126ZM295.955 287.474L313.221 343.969L344.296 325.057L295.955 287.474Z" fill="#1B1A1F"/>
<path d="M334.268 65.7492C334.268 65.7492 365.019 74.8231 367.541 88.1833C370.061 101.542 352.67 102.073 349.896 102.073C347.122 102.073 324.375 81.5806 324.375 81.5806L334.268 65.7492Z" fill="#30DE83"/>
<path d="M349.896 82.1064H298.853V102.398H349.896V82.1064Z" fill="#30DE83"/>
<path d="M300.776 92.1961C300.776 96.4791 300.29 100.155 299.597 101.734C299.364 102.265 299.109 102.559 298.838 102.559C297.923 102.559 297.158 99.1782 296.953 94.6265C296.917 93.8468 296.9 93.0328 296.9 92.1961C296.9 91.0159 296.937 89.8828 297.004 88.8263C297.266 84.7566 297.989 81.8329 298.838 81.8329C299.638 81.8329 300.325 84.4229 300.621 88.1215C300.72 89.3717 300.776 90.7489 300.776 92.1961Z" fill="#1B1A1F"/>
<path d="M348.888 81.9957H298.838C298.749 81.9957 298.676 81.9224 298.676 81.8329C298.676 81.7433 298.749 81.6701 298.838 81.6701H348.888C348.978 81.6701 349.051 81.7433 349.051 81.8329C349.051 81.9224 348.978 81.9957 348.888 81.9957Z" fill="#1B1A1F"/>
<path d="M300.776 92.1961C300.776 96.4791 300.29 100.155 299.597 101.734H299.582L296.953 94.6265L294.954 89.2252L297.004 88.8263L300.621 88.1215C300.72 89.3717 300.776 90.7489 300.776 92.1961Z" fill="#FD9F84"/>
<path d="M299.582 101.736L286.466 102.064L282.161 88.6863L294.954 89.2268L299.582 101.736Z" fill="#FD9F84"/>
<path d="M282.161 88.6863C282.161 88.6863 270.655 91.9552 269.696 94.4214C269.027 96.1437 270.415 95.9321 272.833 95.2516C275.25 94.5712 284.345 92.2645 284.345 92.2645L282.159 88.6863H282.161Z" fill="#FD9F84"/>
<path d="M283.521 90.9149C283.521 90.9149 268.403 95.211 268.874 97.503C269.344 99.7951 277.007 96.694 278.708 96.2203C280.409 95.7465 284.295 95.3428 284.295 95.3428L283.521 90.9149Z" fill="#FD9F84"/>
<path d="M272.564 98.0777C272.564 98.0777 270.746 99.0121 271.931 100.469C273.118 101.926 286.483 98.2795 286.483 98.2795L286.387 94.2293L280.946 95.1377L272.562 98.0793L272.564 98.0777Z" fill="#FD9F84"/>
<path d="M288.071 101.667C288.071 101.667 277.7 104.7 277.124 103.175C276.015 100.241 286.484 98.2795 286.484 98.2795L288.071 101.669V101.667Z" fill="#FD9F84"/>
<path d="M270.405 95.9419C270.363 95.9272 270.327 95.893 270.309 95.8475C270.279 95.7644 270.319 95.6733 270.402 95.6423L282.877 90.9377C282.96 90.9068 283.051 90.9475 283.082 91.0305C283.113 91.1135 283.072 91.2047 282.989 91.2356L270.515 95.9402C270.477 95.9549 270.44 95.9533 270.404 95.9402L270.405 95.9419Z" fill="#1B1A1F"/>
<path d="M272.51 98.2275C272.466 98.2112 272.429 98.1754 272.413 98.1281C272.385 98.0451 272.429 97.954 272.514 97.9263L283.912 94.1072C283.995 94.0796 284.086 94.1252 284.114 94.2082C284.142 94.2912 284.098 94.3824 284.013 94.41L272.615 98.2291C272.579 98.2405 272.543 98.2405 272.51 98.2291V98.2275Z" fill="#1B1A1F"/>
<path d="M274.741 100.857C274.69 100.839 274.649 100.795 274.638 100.738C274.62 100.651 274.677 100.567 274.763 100.55L285.115 98.4733C285.201 98.4554 285.286 98.5123 285.302 98.5986C285.32 98.6849 285.263 98.7695 285.177 98.7858L274.825 100.863C274.796 100.87 274.767 100.866 274.741 100.857Z" fill="#1B1A1F"/>
<path d="M297.307 101.793L299.385 97.5226L298.817 101.755L297.307 101.793Z" fill="#DE856A"/>
<mask id="mask3_11_7027" style="mask-type:luminance" maskUnits="userSpaceOnUse" x="13" y="220" width="120" height="72">
<path d="M128.711 220.396H17.7001C15.4354 220.396 13.5995 222.232 13.5995 224.497V287.515C13.5995 289.779 15.4354 291.615 17.7001 291.615H128.711C130.976 291.615 132.812 289.779 132.812 287.515V224.497C132.812 222.232 130.976 220.396 128.711 220.396Z" fill="white"/>
</mask>
<g mask="url(#mask3_11_7027)">
<path d="M128.71 291.78H17.7001C15.3495 291.78 13.4367 289.867 13.4367 287.516V224.499C13.4367 222.148 15.3495 220.235 17.7001 220.235H128.71C131.061 220.235 132.973 222.148 132.973 224.499V287.516C132.973 289.867 131.061 291.78 128.71 291.78ZM17.7001 220.559C15.5285 220.559 13.7623 222.325 13.7623 224.497V287.515C13.7623 289.686 15.5285 291.453 17.7001 291.453H128.71C130.881 291.453 132.648 289.686 132.648 287.515V224.497C132.648 222.325 130.881 220.559 128.71 220.559H17.7001Z" fill="#1B1A1F"/>
<path d="M22.0922 299.32C22.0417 299.32 21.9913 299.296 21.9604 299.252C21.9115 299.184 21.9213 299.091 21.9848 299.035L119.315 212.874L0.234405 271.325C0.161149 271.361 0.0716149 271.337 0.0260337 271.268C-0.0195475 271.2 -0.00652429 271.109 0.0553359 271.055L68.9432 211.835L5.27275 241.331C5.19136 241.37 5.09368 241.333 5.05624 241.251C5.0188 241.17 5.05462 241.074 5.13601 241.035L69.8711 211.047C69.9443 211.013 70.0322 211.039 70.0762 211.108C70.1201 211.176 70.1071 211.266 70.0452 211.319L1.23719 270.471L120.255 212.05C120.328 212.014 120.416 212.037 120.461 212.106C120.507 212.174 120.495 212.263 120.434 212.319L23.401 298.217L149.553 225.591C149.62 225.552 149.706 225.567 149.757 225.625C149.807 225.684 149.811 225.77 149.762 225.832L94.5419 296.58C94.4865 296.652 94.384 296.664 94.314 296.608C94.2423 296.553 94.2309 296.45 94.2863 296.38L148.993 226.289L22.1736 299.299C22.1476 299.314 22.1199 299.32 22.0922 299.32Z" fill="#1B1A1F"/>
<path d="M128.71 291.78H17.7001C15.3495 291.78 13.4367 289.867 13.4367 287.516V224.499C13.4367 222.148 15.3495 220.235 17.7001 220.235H128.71C131.061 220.235 132.973 222.148 132.973 224.499V287.516C132.973 289.867 131.061 291.78 128.71 291.78ZM17.7001 220.559C15.5285 220.559 13.7623 222.325 13.7623 224.497V287.515C13.7623 289.686 15.5285 291.453 17.7001 291.453H128.71C130.881 291.453 132.648 289.686 132.648 287.515V224.497C132.648 222.325 130.881 220.559 128.71 220.559H17.7001Z" fill="#1B1A1F"/>
</g>
<path d="M193.429 174.731H32.2731C30.4165 174.731 28.9115 176.236 28.9115 178.092V273.372C28.9115 275.228 30.4165 276.733 32.2731 276.733H193.429C195.285 276.733 196.79 275.228 196.79 273.372V178.092C196.79 176.236 195.285 174.731 193.429 174.731Z" fill="url(#paint0_linear_11_7027)"/>
<path d="M193.429 276.896H32.2731C30.3294 276.896 28.7487 275.315 28.7487 273.372V178.092C28.7487 176.148 30.3294 174.568 32.2731 174.568H193.429C195.372 174.568 196.953 176.148 196.953 178.092V273.372C196.953 275.315 195.372 276.896 193.429 276.896ZM32.2731 174.893C30.5085 174.893 29.0743 176.329 29.0743 178.092V273.372C29.0743 275.135 30.5085 276.57 32.2731 276.57H193.429C195.192 276.57 196.627 275.136 196.627 273.372V178.092C196.627 176.329 195.192 174.893 193.429 174.893H32.2731Z" fill="#1B1A1F"/>
<path d="M417.196 101.542H149.104V238.538H417.196V101.542Z" fill="white"/>
<path d="M417.196 238.701H149.104C149.015 238.701 148.941 238.627 148.941 238.538V101.542C148.941 101.452 149.015 101.379 149.104 101.379H417.196C417.286 101.379 417.359 101.452 417.359 101.542V238.538C417.359 238.627 417.286 238.701 417.196 238.701ZM149.267 238.375H417.034V101.705H149.267V238.375Z" fill="#1B1A1F"/>
<path d="M277.596 159.174H183.135C183.046 159.174 182.973 159.101 182.973 159.012V145.778C182.973 145.689 183.046 145.616 183.135 145.616H277.596C281.334 145.616 284.376 148.657 284.376 152.396C284.376 156.135 281.335 159.176 277.596 159.176V159.174ZM183.298 158.849H277.596C281.154 158.849 284.051 155.954 284.051 152.394C284.051 148.834 281.156 145.94 277.596 145.94H183.298V158.847V158.849Z" fill="#1B1A1F"/>
<path d="M275.265 152.559H184.985C184.895 152.559 184.822 152.485 184.822 152.396C184.822 152.306 184.895 152.233 184.985 152.233H275.265C275.354 152.233 275.428 152.306 275.428 152.396C275.428 152.485 275.354 152.559 275.265 152.559Z" fill="#1B1A1F"/>
<path d="M259.772 161.029C264.506 161.029 268.343 157.191 268.343 152.458C268.343 147.724 264.506 143.887 259.772 143.887C255.038 143.887 251.201 147.724 251.201 152.458C251.201 157.191 255.038 161.029 259.772 161.029Z" fill="#1B1A1F"/>
<path d="M260.234 145.191H256.537L257.309 143.888H260.234V145.191Z" fill="#1B1A1F"/>
<path d="M260.234 161.029H257.399L256.537 159.726H260.234V161.029Z" fill="#1B1A1F"/>
<path d="M257.167 161.029C261.901 161.029 265.738 157.191 265.738 152.458C265.738 147.724 261.901 143.887 257.167 143.887C252.434 143.887 248.597 147.724 248.597 152.458C248.597 157.191 252.434 161.029 257.167 161.029Z" fill="#30DE83"/>
<path d="M257.167 157.936C257.078 157.936 257.005 157.862 257.005 157.773C257.005 157.683 257.078 157.61 257.167 157.61C260.008 157.61 262.32 155.298 262.32 152.458C262.32 151.082 261.784 149.788 260.811 148.814C260.747 148.751 260.747 148.648 260.811 148.585C260.874 148.521 260.977 148.521 261.04 148.585C262.074 149.619 262.644 150.994 262.644 152.458C262.644 155.477 260.187 157.936 257.166 157.936H257.167Z" fill="#1B1A1F"/>
<path d="M327.115 191.018H232.654C232.565 191.018 232.492 190.944 232.492 190.855V177.622C232.492 177.532 232.565 177.459 232.654 177.459H327.115C330.853 177.459 333.895 180.5 333.895 184.239C333.895 187.978 330.854 191.018 327.115 191.018ZM232.817 190.692H327.115C330.674 190.692 333.57 187.798 333.57 184.239C333.57 180.681 330.675 177.785 327.115 177.785H232.817V190.692Z" fill="#1B1A1F"/>
<path d="M324.784 184.4H234.504C234.414 184.4 234.341 184.327 234.341 184.238C234.341 184.148 234.414 184.075 234.504 184.075H324.784C324.873 184.075 324.947 184.148 324.947 184.238C324.947 184.327 324.873 184.4 324.784 184.4Z" fill="#1B1A1F"/>
<path d="M241.951 190.362C245.298 187.015 245.298 181.588 241.951 178.241C238.604 174.893 233.177 174.893 229.83 178.241C226.483 181.588 226.483 187.015 229.83 190.362C233.177 193.709 238.604 193.709 241.951 190.362Z" fill="#1B1A1F"/>
<path d="M236.353 177.034H232.656L233.428 175.732H236.353V177.034Z" fill="#1B1A1F"/>
<path d="M236.353 192.872H233.517L232.656 191.57H236.353V192.872Z" fill="#1B1A1F"/>
<path d="M239.347 190.361C242.694 187.014 242.694 181.587 239.347 178.24C236 174.892 230.573 174.892 227.226 178.24C223.879 181.587 223.879 187.014 227.226 190.361C230.573 193.708 236 193.708 239.347 190.361Z" fill="#30DE83"/>
<path d="M233.286 189.779C233.197 189.779 233.123 189.706 233.123 189.616C233.123 189.527 233.197 189.453 233.286 189.453C236.127 189.453 238.437 187.142 238.437 184.301C238.437 182.925 237.901 181.631 236.928 180.658C236.864 180.594 236.864 180.492 236.928 180.428C236.991 180.365 237.094 180.365 237.157 180.428C238.191 181.464 238.761 182.838 238.761 184.301C238.761 187.321 236.304 189.779 233.284 189.779H233.286Z" fill="#1B1A1F"/>
<path d="M417.196 101.542H149.104V118.682H417.196V101.542Z" fill="#736FED"/>
<path d="M186.424 223.965H169.777C169.687 223.965 169.614 223.892 169.614 223.802V207.155C169.614 207.066 169.687 206.992 169.777 206.992H186.424C186.513 206.992 186.587 207.066 186.587 207.155V223.802C186.587 223.892 186.513 223.965 186.424 223.965ZM169.94 223.639H186.261V207.318H169.94V223.639Z" fill="#1B1A1F"/>
<path d="M190.358 214.344H176.792V227.911H190.358V214.344Z" fill="#FF7777"/>
<path d="M217.369 223.965H200.722C200.632 223.965 200.559 223.892 200.559 223.802V207.155C200.559 207.066 200.632 206.992 200.722 206.992H217.369C217.458 206.992 217.531 207.066 217.531 207.155V223.802C217.531 223.892 217.458 223.965 217.369 223.965ZM200.884 223.639H217.206V207.318H200.884V223.639Z" fill="#1B1A1F"/>
<path d="M221.305 214.344H207.738V227.911H221.305V214.344Z" fill="#30DE83"/>
<path d="M248.313 223.965H231.666C231.577 223.965 231.504 223.892 231.504 223.802V207.155C231.504 207.066 231.577 206.992 231.666 206.992H248.313C248.403 206.992 248.476 207.066 248.476 207.155V223.802C248.476 223.892 248.403 223.965 248.313 223.965ZM231.829 223.639H248.15V207.318H231.829V223.639Z" fill="#1B1A1F"/>
<path d="M252.25 214.344H238.683V227.911H252.25V214.344Z" fill="#736FED"/>
<path d="M279.258 223.965H262.611C262.522 223.965 262.448 223.892 262.448 223.802V207.155C262.448 207.066 262.522 206.992 262.611 206.992H279.258C279.348 206.992 279.421 207.066 279.421 207.155V223.802C279.421 223.892 279.348 223.965 279.258 223.965ZM262.774 223.639H279.095V207.318H262.774V223.639Z" fill="#1B1A1F"/>
<path d="M283.194 228.074H269.627C269.538 228.074 269.465 228 269.465 227.911V214.344C269.465 214.254 269.538 214.181 269.627 214.181H283.194C283.284 214.181 283.357 214.254 283.357 214.344V227.911C283.357 228 283.284 228.074 283.194 228.074ZM269.79 227.748H283.031V214.507H269.79V227.748Z" fill="#1B1A1F"/>
<path d="M395.715 144.707H360.282V177.35H395.715V144.707Z" fill="#1B1A1F"/>
<path d="M390.836 126.496H348.237V167.078H390.836V126.496Z" fill="white"/>
<mask id="mask4_11_7027" style="mask-type:luminance" maskUnits="userSpaceOnUse" x="348" y="126" width="43" height="42">
<path d="M390.836 126.496H348.237V167.078H390.836V126.496Z" fill="white"/>
</mask>
<g mask="url(#mask4_11_7027)">
<path d="M390.836 126.496H348.237V167.078H390.836V126.496Z" fill="white"/>
<path d="M331.852 150.649C331.807 150.649 331.761 150.63 331.728 150.592C331.67 150.524 331.676 150.421 331.745 150.363L377.013 111.189C377.082 111.13 377.184 111.137 377.243 111.205C377.302 111.273 377.295 111.376 377.227 111.435L331.958 150.608C331.927 150.634 331.89 150.647 331.852 150.647V150.649Z" fill="#1B1A1F"/>
<path d="M335.906 155.333C335.86 155.333 335.814 155.313 335.782 155.276C335.723 155.207 335.73 155.105 335.798 155.046L381.067 115.872C381.135 115.814 381.238 115.82 381.296 115.889C381.355 115.957 381.348 116.059 381.28 116.118L336.011 155.292C335.981 155.318 335.943 155.331 335.906 155.331V155.333Z" fill="#1B1A1F"/>
<path d="M339.959 160.016C339.914 160.016 339.868 159.996 339.835 159.959C339.777 159.891 339.783 159.788 339.852 159.729L385.12 120.556C385.189 120.497 385.291 120.504 385.35 120.572C385.408 120.64 385.402 120.743 385.334 120.802L340.065 159.975C340.034 160.001 339.997 160.014 339.959 160.014V160.016Z" fill="#1B1A1F"/>
<path d="M344.011 164.699C343.965 164.699 343.92 164.68 343.887 164.642C343.829 164.574 343.835 164.472 343.904 164.413L389.172 125.239C389.24 125.181 389.343 125.187 389.402 125.255C389.46 125.324 389.454 125.426 389.385 125.485L344.117 164.659C344.086 164.685 344.048 164.698 344.011 164.698V164.699Z" fill="#1B1A1F"/>
<path d="M348.064 169.383C348.019 169.383 347.973 169.363 347.941 169.326C347.882 169.258 347.889 169.155 347.957 169.096L393.226 129.923C393.294 129.864 393.397 129.871 393.455 129.939C393.514 130.007 393.507 130.11 393.439 130.168L348.17 169.342C348.139 169.368 348.102 169.381 348.064 169.381V169.383Z" fill="#1B1A1F"/>
<path d="M352.116 174.066C352.071 174.066 352.025 174.047 351.993 174.009C351.934 173.941 351.94 173.838 352.009 173.78L397.277 134.606C397.346 134.548 397.448 134.554 397.507 134.622C397.566 134.691 397.559 134.793 397.491 134.852L352.222 174.026C352.191 174.052 352.154 174.065 352.116 174.065V174.066Z" fill="#1B1A1F"/>
<path d="M356.17 178.75C356.124 178.75 356.079 178.73 356.046 178.693C355.987 178.625 355.994 178.522 356.062 178.463L401.331 139.29C401.399 139.231 401.502 139.237 401.56 139.306C401.619 139.374 401.613 139.477 401.544 139.535L356.276 178.709C356.245 178.735 356.207 178.748 356.17 178.748V178.75Z" fill="#1B1A1F"/>
<path d="M360.223 183.433C360.178 183.433 360.132 183.414 360.1 183.376C360.041 183.308 360.047 183.205 360.116 183.147L405.384 143.973C405.453 143.914 405.555 143.921 405.614 143.989C405.673 144.058 405.666 144.16 405.598 144.219L360.329 183.393C360.298 183.419 360.261 183.432 360.223 183.432V183.433Z" fill="#1B1A1F"/>
</g>
<path d="M377.414 137.312C377.015 136.001 376.227 134.8 374.869 133.857C373.268 132.747 371.404 132.203 369.536 132.215C367.669 132.203 365.805 132.747 364.203 133.857C362.846 134.798 362.056 136.001 361.659 137.312C360.734 139.737 360.817 142.874 362.556 146.05C363.375 147.546 364.098 149.093 364.397 150.773C364.508 151.4 364.604 152.047 364.651 152.643C364.689 153.093 365.066 153.438 365.517 153.438H373.556C374.01 153.438 374.386 153.088 374.423 152.633C374.469 152.086 374.552 151.494 374.653 150.916C374.922 149.358 375.457 147.852 376.266 146.493C378.246 143.167 378.382 139.851 377.415 137.313L377.414 137.312Z" fill="#FBB81B"/>
<path d="M365.338 155.188C365.252 155.188 365.18 155.121 365.175 155.035C365.17 154.945 365.239 154.869 365.328 154.862L373.841 154.377C373.93 154.374 374.007 154.44 374.013 154.53C374.018 154.62 373.95 154.696 373.86 154.703L365.348 155.188C365.348 155.188 365.341 155.188 365.338 155.188Z" fill="#1B1A1F"/>
<path d="M365.338 156.4C365.252 156.4 365.18 156.334 365.175 156.247C365.17 156.158 365.239 156.081 365.328 156.075L373.841 155.591C373.932 155.588 374.007 155.655 374.013 155.744C374.018 155.834 373.95 155.91 373.86 155.917L365.348 156.4C365.348 156.4 365.341 156.4 365.338 156.4Z" fill="#1B1A1F"/>
<path d="M365.338 157.615C365.252 157.615 365.18 157.548 365.175 157.462C365.17 157.372 365.239 157.296 365.328 157.289L373.841 156.804C373.93 156.801 374.007 156.868 374.013 156.957C374.018 157.047 373.95 157.123 373.86 157.13L365.348 157.615C365.348 157.615 365.341 157.615 365.338 157.615Z" fill="#1B1A1F"/>
<path d="M370.544 161.357H368.801C367.249 161.357 365.992 160.099 365.992 158.549H373.354C373.354 160.101 372.097 161.357 370.546 161.357H370.544Z" fill="#736FED"/>
<path d="M370.365 153.115C370.331 153.115 370.297 153.104 370.267 153.083L367.694 151.134C367.655 151.105 367.632 151.061 367.629 151.012C367.627 150.963 367.645 150.918 367.681 150.885L370.262 148.512L367.213 146.517C367.166 146.487 367.139 146.434 367.14 146.379C367.14 146.324 367.169 146.272 367.217 146.242L370.378 144.282L366.569 141.995C366.52 141.966 366.489 141.912 366.489 141.855C366.489 141.798 366.518 141.744 366.569 141.715L370.608 139.293C370.684 139.247 370.785 139.272 370.831 139.348C370.876 139.425 370.852 139.526 370.775 139.571L366.969 141.854L370.775 144.137C370.824 144.167 370.853 144.219 370.855 144.276C370.855 144.333 370.826 144.385 370.779 144.416L367.609 146.381L370.619 148.35C370.661 148.378 370.687 148.424 370.692 148.473C370.697 148.523 370.678 148.572 370.64 148.606L368.047 150.989L370.464 152.821C370.536 152.874 370.551 152.977 370.495 153.049C370.463 153.091 370.414 153.114 370.365 153.114V153.115Z" fill="white"/>
<path d="M63.6362 88.3493C63.5841 88.3493 63.532 88.3249 63.5011 88.2777L40.3621 54.087C40.3377 54.0511 40.3296 54.0072 40.3377 53.9649C40.3458 53.9225 40.3703 53.8851 40.4061 53.8607L74.5969 30.7217C74.6717 30.6713 74.7727 30.6908 74.8231 30.7657L97.9621 64.9564C97.9865 64.9923 97.9946 65.0362 97.9865 65.0785C97.9784 65.1209 97.954 65.1583 97.9181 65.1827L63.7274 88.3217C63.6997 88.3412 63.6671 88.3493 63.6362 88.3493ZM40.7235 54.0381L63.6785 87.9603L97.6007 65.0053L74.6457 31.0831L40.7235 54.0381Z" fill="#1B1A1F"/>
<mask id="mask5_11_7027" style="mask-type:luminance" maskUnits="userSpaceOnUse" x="35" y="46" width="59" height="58">
<path d="M70.0759 46.299L35.8853 69.4391L59.0254 103.63L93.216 80.4896L70.0759 46.299Z" fill="white"/>
</mask>
<g mask="url(#mask5_11_7027)">
<path d="M70.0759 46.299L35.8853 69.4391L59.0254 103.63L93.216 80.4896L70.0759 46.299Z" fill="#30DE83"/>
<path d="M52.2458 99.3133C52.2132 99.3133 52.1807 99.3051 52.153 99.2872C51.9674 99.1749 51.6565 98.9861 54.1472 76.0783C55.1467 66.8871 56.2097 57.6325 56.576 54.4646L42.887 87.1642C42.8528 87.2473 42.7568 87.2863 42.6738 87.2522C42.5907 87.218 42.5517 87.1219 42.5859 87.0389L56.7193 53.2795C56.7502 53.2046 56.8316 53.1639 56.9114 53.1851C56.9895 53.2063 57.0416 53.2812 57.0318 53.3609C55.6579 65.1648 52.2686 95.2093 52.3386 98.75C54.2025 95.5056 68.585 64.6146 76.2427 48.0523C76.2736 47.984 76.3485 47.9465 76.4234 47.9612C76.4966 47.9758 76.552 48.0393 76.5536 48.1158L77.8445 84.7029L90.1059 70.1527C90.1645 70.0843 90.267 70.0746 90.3354 70.1332C90.4038 70.1918 90.4135 70.2943 90.3549 70.3627L77.8217 85.2352C77.7778 85.2873 77.7078 85.3068 77.6443 85.284C77.5808 85.2612 77.5369 85.2026 77.5352 85.1359L76.2541 48.8093C72.8208 56.2309 53.1232 98.7614 52.3516 99.284C52.3191 99.3051 52.2832 99.3165 52.2474 99.3165L52.2458 99.3133Z" fill="#1B1A1F"/>
</g>
<path d="M35.8854 69.6057C35.8512 69.6057 35.817 69.596 35.7894 69.5748C35.734 69.5341 35.7096 69.4625 35.7291 69.3974L40.341 53.9502C40.3524 53.9144 40.3752 53.8835 40.4061 53.8623L74.5969 30.7233C74.6538 30.6843 74.7287 30.6859 74.7841 30.7266C74.8394 30.7673 74.8638 30.8389 74.8443 30.904L70.2325 46.3512C70.2211 46.387 70.1983 46.4179 70.1673 46.4391L35.9766 69.5781C35.9489 69.596 35.9163 69.6057 35.8854 69.6057ZM40.6373 54.0984L36.1719 69.0522L69.9378 46.2014L74.4031 31.2475L40.6373 54.0984Z" fill="#1B1A1F"/>
<path d="M93.2151 80.6592C93.1614 80.6592 93.111 80.6331 93.08 80.5875L69.9411 46.3968C69.9134 46.3561 69.9052 46.3056 69.9199 46.2584L74.5317 30.8113C74.5496 30.751 74.6001 30.7071 74.6636 30.6973C74.7255 30.6875 74.7873 30.7152 74.8231 30.7673L97.9621 64.9581C97.9898 64.9988 97.9979 65.0492 97.9833 65.0964L93.3714 80.5436C93.3535 80.6038 93.303 80.6478 93.2396 80.6575C93.2314 80.6575 93.2233 80.6592 93.2151 80.6592ZM70.2552 46.2779L93.1582 80.1203L97.6495 65.0753L74.7466 31.2329L70.2552 46.2779Z" fill="#1B1A1F"/>
<mask id="mask6_11_7027" style="mask-type:luminance" maskUnits="userSpaceOnUse" x="463" y="-1" width="51" height="51">
<path d="M505.734 42.599C515.48 32.8538 515.48 17.0538 505.734 7.30859C495.989 -2.43658 480.189 -2.43657 470.444 7.3086C460.699 17.0538 460.699 32.8538 470.444 42.599C480.189 52.3442 495.989 52.3441 505.734 42.599Z" fill="white"/>
</mask>
<g mask="url(#mask6_11_7027)">
<path d="M505.734 42.599C515.48 32.8538 515.48 17.0538 505.734 7.30859C495.989 -2.43658 480.189 -2.43657 470.444 7.3086C460.699 17.0538 460.699 32.8538 470.444 42.599C480.189 52.3442 495.989 52.3441 505.734 42.599Z" fill="#001081"/>
<path d="M461.496 44.6517C461.431 44.6517 461.369 44.6126 461.345 44.5475C461.312 44.4628 461.355 44.37 461.438 44.3375L518.317 22.3738L467.868 3.80766C467.783 3.77673 467.741 3.68231 467.772 3.59929C467.803 3.51463 467.897 3.47068 467.98 3.50324L518.834 22.2192C518.898 22.242 518.94 22.3022 518.94 22.3706C518.94 22.439 518.899 22.4992 518.836 22.5236L461.555 44.6419C461.536 44.65 461.516 44.6533 461.496 44.6533V44.6517Z" fill="white"/>
</g>
<path d="M95.0775 188.133C95.0775 188.133 96.9772 183.471 96.8128 181.306C96.1893 173.091 92.6047 159.679 95.5805 151.899C99.9921 140.367 119.568 141.797 122.172 148.518C124.777 155.24 127.339 165.015 127.717 169.013C128.095 173.012 123.558 179.564 117.256 180.951L118.768 189.772L95.0742 188.135L95.0775 188.133Z" fill="#FD9F84"/>
<path d="M44.5393 276.733C44.5393 276.733 57.95 199.613 73.205 194.562C89.9512 189.017 93.9428 189.017 93.9428 189.017L95.4551 184.732C95.4551 184.732 112.154 187.568 119.527 188.576L120.409 193.113L140.34 204.065L141.331 276.735H44.5393V276.733Z" fill="#30DE83"/>
<path d="M70.8185 196.328L67.2876 256.007C67.2876 256.007 67.4292 236.807 62.1841 245.577L32.2731 276.733C30.4173 276.733 28.9115 275.227 28.9115 273.372V236.078C39.4017 219.397 70.2846 196.881 70.8185 196.328Z" fill="#30DE83"/>
<path d="M44.5393 276.896C44.5231 276.896 44.5068 276.894 44.4905 276.888C44.4042 276.86 44.357 276.769 44.3847 276.684C66.0309 208.288 71.7399 195.405 71.7953 195.283C71.8327 195.201 71.9287 195.164 72.0101 195.201C72.0915 195.239 72.129 195.335 72.0915 195.416C72.0362 195.538 66.3288 208.425 44.694 276.782C44.6728 276.852 44.6077 276.896 44.5393 276.896Z" fill="#1B1A1F"/>
<path d="M137.535 202.787L194.322 228.616C199.047 230.792 202.156 235.43 202.372 240.626C202.758 249.852 194.186 256.868 185.219 254.664C165.089 249.718 128.119 239.134 122.278 234.945C113.434 228.604 137.536 202.787 137.536 202.787H137.535Z" fill="#30DE83"/>
<path d="M178.748 233.192L211.682 193.181L231.181 205.283L198.978 249.949L178.748 233.192Z" fill="#30DE83"/>
<path d="M231.111 205.508C230.781 206.037 229.368 205.817 227.357 205.036C225.391 204.272 222.851 202.971 220.193 201.309C220.193 201.309 220.186 201.306 220.177 201.3C217.691 199.745 215.536 198.145 214.004 196.772C212.226 195.18 211.285 193.894 211.635 193.334C212.001 192.748 213.702 193.085 216.078 194.086C217.932 194.868 220.196 196.058 222.555 197.533C225.309 199.255 227.658 201.031 229.207 202.494C230.683 203.888 231.43 204.998 231.113 205.506L231.111 205.508Z" fill="#1B1A1F"/>
<path d="M234.724 194.92L229.203 202.494L227.356 205.034C225.389 204.27 222.85 202.97 220.191 201.308C217.699 199.75 215.539 198.146 214.002 196.771L216.076 194.085L222.768 185.421L234.725 194.918L234.724 194.92Z" fill="#FD9F84"/>
<path d="M222.767 185.424C222.767 185.424 232.347 173.544 233.088 173.22C234.108 172.774 235.316 174.263 234.883 175.582C234.448 176.901 226.125 189.251 226.125 189.251L222.767 185.424Z" fill="#FD9F84"/>
<path d="M237.112 191.377C236.697 192.126 235.183 194.296 233.372 196.816C231.049 196.75 224.985 188.631 224.985 188.631C224.985 188.631 230.6 181.314 231.44 181.171C232.277 181.024 234.496 181.744 234.006 183.284C233.941 183.494 233.794 183.796 233.595 184.156C235.1 183.368 237.201 184.954 236.42 186.951C236.423 186.95 236.428 186.948 236.433 186.951C236.575 186.998 239.049 187.866 237.112 191.379V191.377Z" fill="#FD9F84"/>
<path d="M229.185 190.282C229.153 190.282 229.12 190.272 229.091 190.253C229.018 190.2 229 190.1 229.052 190.026L233.871 183.192C233.923 183.119 234.024 183.101 234.097 183.153C234.17 183.205 234.188 183.306 234.136 183.38L229.317 190.214C229.286 190.259 229.236 190.282 229.184 190.282H229.185Z" fill="#1B1A1F"/>
<path d="M226.298 188.236C226.265 188.236 226.232 188.226 226.205 188.206C226.132 188.154 226.114 188.053 226.164 187.98L234.33 176.315C234.382 176.241 234.483 176.223 234.556 176.274C234.629 176.326 234.647 176.427 234.597 176.5L226.431 188.166C226.4 188.211 226.35 188.236 226.298 188.236Z" fill="#1B1A1F"/>
<path d="M232.355 193.171C232.324 193.171 232.291 193.163 232.264 193.144C232.189 193.093 232.169 192.992 232.22 192.917L236.294 186.858C236.345 186.784 236.446 186.764 236.521 186.814C236.596 186.865 236.615 186.966 236.565 187.041L232.49 193.1C232.459 193.147 232.407 193.171 232.355 193.171Z" fill="#1B1A1F"/>
<path d="M214.736 195.822C214.736 195.822 216.364 188.88 216.315 186.23C216.266 183.58 218.445 182.357 219.473 185.356C220.504 188.354 221.674 190.467 221.674 190.467L217.927 197.013L214.738 195.82L214.736 195.822Z" fill="#FD9F84"/>
<path d="M190.956 235.524C190.896 235.524 190.839 235.49 190.809 235.433L185.585 224.78C185.546 224.699 185.579 224.603 185.66 224.562C185.742 224.522 185.838 224.556 185.878 224.637L191.102 235.29C191.141 235.371 191.109 235.467 191.028 235.508C191.005 235.52 190.98 235.524 190.956 235.524Z" fill="#1B1A1F"/>
<path d="M220.191 201.309C220.191 201.309 220.185 201.306 220.175 201.3C217.689 199.745 215.534 198.145 214.002 196.772L214.809 195.503L220.19 201.308L220.191 201.309Z" fill="#B8735F"/>
<path d="M117.889 162.171C117.889 162.171 127.341 153.41 126.46 146.133C125.578 138.857 123.561 134.616 122.931 135.098C122.301 135.58 115.369 140.789 112.345 141.587C109.32 142.384 94.3221 144.779 92.9352 154.987C91.5482 165.196 95.4552 174.648 94.9521 176.665C94.4475 178.681 110.748 179.354 112.26 179.017C113.772 178.681 117.889 172.295 118.646 170.278C119.403 168.261 113.605 165.909 114.194 163.809C114.783 161.709 117.891 162.171 117.891 162.171H117.889Z" fill="#1B1A1F"/>
<path d="M120.326 164.061C120.326 164.061 117.469 161.457 115.537 160.784C113.605 160.112 111.54 164.411 114.949 167.674C118.358 170.936 119.906 172.126 119.906 172.126L120.326 164.06V164.061Z" fill="#FD9F84"/>
<path d="M118.729 166.583C118.695 166.583 118.662 166.573 118.633 166.552L115.314 164.109C115.242 164.055 115.226 163.954 115.28 163.881C115.333 163.807 115.434 163.793 115.508 163.846L118.827 166.29C118.899 166.344 118.915 166.445 118.861 166.518C118.829 166.562 118.78 166.585 118.729 166.585V166.583Z" fill="#1B1A1F"/>
<path d="M243.415 85.9661L265.076 124.731L245.51 135.506L224.466 97.7309C221.362 92.157 223.55 85.1196 229.268 82.2903C234.242 79.8306 240.268 81.395 243.415 85.9661Z" fill="#30DE83"/>
<path d="M263.661 127.821C263.607 127.875 263.55 127.93 263.493 127.984C261.94 129.46 259.556 131.155 256.734 132.698C254.682 133.821 252.687 134.707 250.952 135.303C250.843 135.34 250.734 135.376 250.626 135.412C247.861 136.32 245.813 136.459 245.346 135.604C244.913 134.813 245.925 133.341 247.867 131.669C247.944 131.603 248.02 131.538 248.1 131.471C249.607 130.208 251.624 128.843 253.933 127.58C256.365 126.248 258.716 125.252 260.649 124.676C260.863 124.611 261.071 124.554 261.275 124.5C263.406 123.938 264.928 123.953 265.322 124.674C265.685 125.338 265.029 126.481 263.661 127.821Z" fill="#1B1A1F"/>
<path fill-rule="evenodd" clip-rule="evenodd" d="M271.61 141.324C271.488 141.871 270.925 142.57 269.795 141.547C267.493 139.456 263.858 134.58 264.093 137.434C264.441 141.687 269.077 150.817 268.848 152.199C268.704 153.049 268.003 153.257 267.184 152.909C268.053 155.072 266.422 155.847 264.057 153.936C264.057 153.937 264.055 153.939 264.055 153.942C263.531 155.52 260.698 153.92 258.89 151.847C258.556 152.337 258.009 152.559 257.109 152.062C254.584 150.665 252.344 142.129 252.344 142.127C252.344 142.119 251.771 139.78 251.04 136.454C250.959 136.086 250.82 135.734 250.626 135.412C250.583 135.339 250.537 135.267 250.488 135.197L250.403 135.077L249.435 133.776L247.867 131.669C247.944 131.603 248.02 131.538 248.1 131.471C249.607 130.208 251.624 128.843 253.933 127.58C256.365 126.248 258.716 125.252 260.649 124.676C261.004 125.332 261.452 125.933 261.976 126.457C262.23 126.712 262.504 126.95 262.793 127.168L263.661 127.821L263.791 127.919C264.823 128.697 265.694 129.665 266.355 130.774C269.069 135.332 271.911 139.959 271.61 141.324Z" fill="#FD9F84"/>
<path d="M267.182 153.071C267.145 153.071 267.106 153.058 267.075 153.031C263.497 149.89 260.376 141.839 260.244 141.499C260.212 141.414 260.254 141.321 260.337 141.289C260.422 141.256 260.514 141.298 260.547 141.383C260.579 141.466 263.77 149.702 267.288 152.788C267.356 152.847 267.363 152.951 267.303 153.018C267.27 153.055 267.226 153.073 267.181 153.073L267.182 153.071Z" fill="#1B1A1F"/>
<path d="M264.202 154.224C264.167 154.224 264.132 154.213 264.102 154.19C260.107 151.113 257.049 143.174 256.92 142.837C256.887 142.752 256.93 142.659 257.014 142.627C257.099 142.594 257.192 142.637 257.224 142.721C257.255 142.803 260.379 150.911 264.301 153.931C264.372 153.986 264.386 154.087 264.33 154.159C264.298 154.201 264.25 154.222 264.202 154.222V154.224Z" fill="#1B1A1F"/>
<path d="M258.877 152.023C258.829 152.023 258.782 152.002 258.75 151.963C256.126 148.736 254.659 143.54 254.644 143.488C254.62 143.402 254.67 143.312 254.758 143.288C254.844 143.263 254.934 143.314 254.958 143.4C254.973 143.452 256.422 148.583 259.004 151.758C259.061 151.828 259.049 151.93 258.979 151.987C258.948 152.012 258.913 152.023 258.877 152.023Z" fill="#1B1A1F"/>
<path fill-rule="evenodd" clip-rule="evenodd" d="M260.604 124.593L254.82 130.004L263.791 127.92C263.791 127.92 261.118 125.573 260.606 124.593H260.604Z" fill="#B8735F"/>
<path d="M249.855 97.6544C249.835 97.6544 249.814 97.6512 249.795 97.643L239.713 93.5896C239.63 93.5554 239.589 93.461 239.624 93.3779C239.658 93.2949 239.752 93.2542 239.835 93.2884L249.917 97.3419C250 97.3761 250.04 97.4705 250.006 97.5535C249.98 97.617 249.92 97.6561 249.855 97.6561V97.6544Z" fill="#1B1A1F"/>
<path d="M445.742 188.872C445.675 188.872 445.613 188.831 445.589 188.765L443.231 182.299L435.497 185.546C435.414 185.581 435.32 185.543 435.284 185.46L430.231 173.659C430.195 173.576 430.234 173.48 430.317 173.446C430.4 173.41 430.496 173.449 430.531 173.532L435.52 185.185L443.262 181.934C443.303 181.916 443.35 181.918 443.391 181.934C443.432 181.952 443.464 181.986 443.479 182.027L445.839 188.503L461.881 182.88C461.965 182.849 462.058 182.895 462.087 182.979C462.117 183.064 462.073 183.157 461.988 183.186L445.795 188.862C445.777 188.869 445.76 188.872 445.742 188.872Z" fill="white"/>
<path d="M433.652 240.045C436.01 234.28 436.95 229.208 435.75 228.717C434.55 228.226 431.665 232.502 429.306 238.268C426.947 244.034 426.008 249.105 427.208 249.596C428.408 250.087 431.293 245.811 433.652 240.045Z" fill="white"/>
<path d="M427.389 249.775C427.298 249.775 427.211 249.759 427.128 249.725C426.283 249.38 426.453 247.431 426.744 245.858C427.143 243.708 427.991 240.983 429.137 238.183C431.237 233.048 434.283 227.924 435.794 228.542C437.303 229.159 435.886 234.95 433.785 240.084C432.64 242.883 431.336 245.422 430.112 247.236C429.306 248.43 428.216 249.775 427.389 249.775ZM435.522 228.816C434.449 228.816 431.802 232.529 429.438 238.307C428.302 241.085 427.459 243.788 427.065 245.917C426.695 247.913 426.765 249.223 427.252 249.423C427.739 249.624 428.707 248.737 429.844 247.053C431.055 245.258 432.347 242.739 433.484 239.961C435.965 233.897 436.627 229.234 435.67 228.844C435.624 228.826 435.575 228.816 435.522 228.816Z" fill="#1B1A1F"/>
<path d="M437.724 234.491L425.082 229.083L419.689 242.179L432.94 248.29L437.724 234.491Z" fill="#FD9F84"/>
<path d="M425.082 229.083C425.082 229.083 411.953 223.791 411.206 223.862C410.179 223.962 409.873 225.715 410.82 226.587C411.767 227.458 424.092 233.701 424.092 233.701L425.082 229.083Z" fill="#FD9F84"/>
<path d="M416.155 240.389C416.83 240.807 419.036 241.88 421.641 243.104C423.493 242 424.735 232.684 424.735 232.684C424.735 232.684 416.879 229.295 416.137 229.558C415.393 229.817 413.921 231.404 415.013 232.43C415.162 232.571 415.417 232.749 415.739 232.952C414.165 232.995 413.179 235.228 414.716 236.491C414.712 236.491 414.707 236.491 414.704 236.496C414.61 236.599 412.998 238.421 416.156 240.389H416.155Z" fill="#FD9F84"/>
<path d="M422.005 235.951C421.981 235.951 421.958 235.946 421.935 235.935L414.945 232.576C414.864 232.537 414.829 232.44 414.869 232.36C414.908 232.278 415.005 232.244 415.085 232.283L422.075 235.642C422.157 235.681 422.191 235.778 422.152 235.858C422.124 235.917 422.065 235.951 422.005 235.951Z" fill="#1B1A1F"/>
<path d="M423.42 232.987C423.395 232.987 423.373 232.982 423.348 232.97L411.461 227.212C411.38 227.173 411.347 227.076 411.386 226.994C411.426 226.913 411.523 226.88 411.605 226.919L423.492 232.677C423.573 232.716 423.605 232.814 423.566 232.895C423.539 232.954 423.48 232.987 423.42 232.987Z" fill="#1B1A1F"/>
<path d="M420.744 239.723C420.719 239.723 420.693 239.716 420.67 239.705L414.632 236.638C414.553 236.597 414.52 236.5 414.561 236.42C414.602 236.34 414.699 236.307 414.779 236.348L420.817 239.415C420.897 239.456 420.929 239.554 420.889 239.633C420.859 239.69 420.802 239.723 420.744 239.723Z" fill="#1B1A1F"/>
<path d="M436.285 233.875C436.285 233.875 431.83 228.988 430.672 226.82C429.515 224.652 427.198 224.645 427.719 227.54C428.24 230.434 428.247 232.674 428.247 232.674L434.241 236.281L436.285 233.874V233.875Z" fill="#FD9F84"/>
<path d="M470.038 265.787L427.364 249.611C428.654 249.671 431.382 245.525 433.635 240.021C435.937 234.391 436.886 229.425 435.813 228.736L478.184 243.068C484.772 245.297 488.119 252.617 485.493 259.057C483.021 265.121 476.164 268.109 470.04 265.787H470.038Z" fill="#1B1A1F"/>
<path d="M476.107 242.529C476.089 242.529 476.073 242.526 476.055 242.521L435.759 228.891C435.675 228.862 435.629 228.77 435.657 228.684C435.686 228.599 435.777 228.554 435.864 228.581L476.159 242.212C476.244 242.241 476.289 242.332 476.262 242.419C476.239 242.487 476.175 242.529 476.107 242.529Z" fill="white"/>
<path d="M307.232 34.7931C307.232 34.7931 309.975 49.6053 302.216 52.1091C291.467 55.5781 289.797 47.7837 289.797 47.7837L277.414 60.5253C277.414 60.5253 295.439 80.3661 303.768 81.1329C333.921 83.9117 340.159 67.7613 340.159 67.7613C340.159 67.7613 324.198 47.8098 319.955 43.561C315.967 39.5677 307.233 34.7931 307.233 34.7931H307.232Z" fill="#001081"/>
</g>
<defs>
<linearGradient id="paint0_linear_11_7027" x1="112.851" y1="174.731" x2="112.851" y2="276.733" gradientUnits="userSpaceOnUse">
<stop stop-color="#001081" stop-opacity="0.24"/>
<stop offset="1" stop-color="white" stop-opacity="0"/>
</linearGradient>
<clipPath id="clip0_11_7027">
<rect width="579.924" height="350" fill="white"/>
</clipPath>
</defs>
</svg>
