<svg width="350" height="284" viewBox="0 0 350 284" fill="none" xmlns="http://www.w3.org/2000/svg">
<g clip-path="url(#clip0_11_7059)">
<path d="M275.568 220.663C275.491 220.535 275.37 220.444 275.226 220.407C275.082 220.37 274.931 220.391 274.803 220.468L272.949 221.563L271.854 219.709C271.777 219.581 271.656 219.491 271.512 219.453C271.368 219.416 271.217 219.437 271.089 219.514C270.961 219.591 270.87 219.712 270.833 219.856C270.796 220 270.817 220.151 270.894 220.279L271.989 222.133L270.135 223.228C270.007 223.305 269.917 223.426 269.88 223.57C269.842 223.714 269.863 223.865 269.94 223.993C270.017 224.121 270.138 224.212 270.282 224.249C270.426 224.286 270.577 224.265 270.705 224.189L272.559 223.093L273.654 224.947C273.777 225.156 274.017 225.254 274.243 225.21C274.303 225.198 274.361 225.175 274.417 225.142C274.682 224.986 274.77 224.642 274.615 224.377L273.519 222.523L275.373 221.428C275.638 221.272 275.726 220.928 275.571 220.663H275.568Z" fill="#DEDEDE"/>
<path d="M280.264 232.926C278.922 232.926 277.831 231.836 277.831 230.494C277.831 229.152 278.922 228.061 280.264 228.061C281.606 228.061 282.696 229.152 282.696 230.494C282.696 231.836 281.606 232.926 280.264 232.926ZM280.264 229.363C279.64 229.363 279.131 229.87 279.131 230.496C279.131 231.122 279.638 231.629 280.264 231.629C280.889 231.629 281.396 231.122 281.396 230.496C281.396 229.87 280.889 229.363 280.264 229.363Z" fill="#DEDEDE"/>
<path d="M34.6158 268.621C33.2739 268.621 32.1831 267.53 32.1831 266.189C32.1831 264.847 33.2739 263.756 34.6158 263.756C35.9577 263.756 37.0485 264.847 37.0485 266.189C37.0485 267.53 35.9577 268.621 34.6158 268.621ZM34.6158 265.058C33.9925 265.058 33.4832 265.565 33.4832 266.191C33.4832 266.817 33.9902 267.324 34.6158 267.324C35.2414 267.324 35.7484 266.817 35.7484 266.191C35.7484 265.565 35.2414 265.058 34.6158 265.058Z" fill="#DEDEDE"/>
<path d="M303.942 7.08642C302.6 7.08642 301.509 5.99567 301.509 4.65374C301.509 3.3118 302.6 2.22105 303.942 2.22105C305.284 2.22105 306.375 3.3118 306.375 4.65374C306.375 5.99567 305.284 7.08642 303.942 7.08642ZM303.942 3.52344C303.319 3.52344 302.809 4.03045 302.809 4.65606C302.809 5.28168 303.316 5.78868 303.942 5.78868C304.567 5.78868 305.074 5.28168 305.074 4.65606C305.074 4.03045 304.567 3.52344 303.942 3.52344Z" fill="#DEDEDE"/>
<path d="M345.574 68.6827C345.439 68.7478 345.339 68.8618 345.29 69.0037C345.242 69.1455 345.251 69.2967 345.316 69.4293L346.258 71.3643L344.323 72.3062C344.188 72.3713 344.088 72.4852 344.039 72.6271C343.99 72.769 344 72.9202 344.065 73.0527C344.13 73.1876 344.244 73.2876 344.386 73.3365C344.528 73.3853 344.679 73.376 344.811 73.3109L346.746 72.369L347.688 74.3039C347.753 74.4388 347.867 74.5388 348.009 74.5877C348.151 74.6365 348.302 74.6272 348.435 74.5621C348.57 74.497 348.67 74.383 348.719 74.2412C348.767 74.0993 348.758 73.9481 348.693 73.8156L347.751 71.8806L349.686 70.9387C349.905 70.8317 350.023 70.6014 349.995 70.3735C349.988 70.313 349.972 70.2526 349.942 70.1944C349.807 69.9177 349.472 69.8014 349.195 69.9363L347.26 70.8782L346.318 68.9432C346.184 68.6664 345.849 68.5502 345.572 68.685L345.574 68.6827Z" fill="#DEDEDE"/>
<path d="M310.435 114.969C309.093 114.969 308.002 113.878 308.002 112.536C308.002 111.194 309.093 110.104 310.435 110.104C311.777 110.104 312.868 111.194 312.868 112.536C312.868 113.878 311.777 114.969 310.435 114.969ZM310.435 111.406C309.812 111.406 309.303 111.913 309.303 112.539C309.303 113.164 309.81 113.671 310.435 113.671C311.061 113.671 311.568 113.164 311.568 112.539C311.568 111.913 311.061 111.406 310.435 111.406Z" fill="#DEDEDE"/>
<path d="M0.297732 148.875C0.188424 148.978 0.12563 149.115 0.120979 149.264C0.116327 149.413 0.169818 149.554 0.272149 149.664L1.74432 151.234L0.17447 152.706C0.0651617 152.808 0.00236762 152.945 -0.00228379 153.094C-0.0069352 153.243 0.046556 153.385 0.148887 153.494C0.251218 153.604 0.388435 153.666 0.53728 153.671C0.686125 153.676 0.827993 153.622 0.937301 153.52L2.50715 152.048L3.97932 153.617C4.08165 153.727 4.21887 153.79 4.36772 153.794C4.51656 153.799 4.65843 153.745 4.76774 153.643C4.87705 153.541 4.93984 153.404 4.94449 153.255C4.94914 153.106 4.89565 152.964 4.79332 152.855L3.32115 151.285L4.891 149.813C5.06775 149.647 5.11194 149.392 5.01891 149.18C4.99333 149.124 4.96077 149.071 4.91426 149.024C4.70262 148.799 4.34911 148.789 4.12584 148.999L2.55599 150.471L1.08382 148.901C0.872181 148.675 0.518674 148.666 0.295406 148.875H0.297732Z" fill="#DEDEDE"/>
<path d="M24.2641 175.616C22.9222 175.616 21.8314 174.526 21.8314 173.184C21.8314 171.842 22.9222 170.751 24.2641 170.751C25.606 170.751 26.6968 171.842 26.6968 173.184C26.6968 174.526 25.606 175.616 24.2641 175.616ZM24.2641 172.053C23.6408 172.053 23.1315 172.56 23.1315 173.186C23.1315 173.812 23.6385 174.319 24.2641 174.319C24.8897 174.319 25.3967 173.812 25.3967 173.186C25.3967 172.56 24.8897 172.053 24.2641 172.053Z" fill="#DEDEDE"/>
<path d="M66.1361 252.062C65.8756 252.062 65.657 251.858 65.6431 251.595C65.6268 251.323 65.8361 251.088 66.1105 251.074C67.7432 250.983 69.3944 250.818 71.0201 250.59C71.2899 250.553 71.541 250.741 71.5782 251.011C71.6155 251.281 71.4271 251.532 71.1573 251.569C69.5037 251.802 67.8246 251.969 66.164 252.062C66.1547 252.062 66.1454 252.062 66.1361 252.062ZM59.1753 252.041C59.1753 252.041 59.1543 252.041 59.1427 252.041C57.4798 251.937 55.8007 251.76 54.1541 251.516C53.8843 251.476 53.6982 251.223 53.7378 250.953C53.7773 250.683 54.0308 250.497 54.3006 250.537C55.9193 250.778 57.5705 250.951 59.2055 251.053C59.4776 251.069 59.6846 251.304 59.6683 251.578C59.652 251.841 59.4334 252.044 59.1753 252.044V252.041ZM77.9135 250.202C77.6949 250.202 77.4925 250.055 77.4344 249.832C77.3646 249.567 77.5228 249.297 77.7879 249.227C79.374 248.811 80.9601 248.322 82.5021 247.776C82.7602 247.685 83.0416 247.82 83.1347 248.076C83.2277 248.332 83.0905 248.616 82.8347 248.709C81.2671 249.264 79.6554 249.762 78.0414 250.185C77.9995 250.197 77.9577 250.202 77.9158 250.202H77.9135ZM47.4119 250.088C47.3677 250.088 47.3258 250.083 47.2816 250.069C45.6746 249.63 44.0675 249.118 42.5023 248.543C42.2465 248.45 42.1139 248.164 42.2069 247.909C42.3 247.653 42.586 247.52 42.8419 247.613C44.3815 248.176 45.9606 248.681 47.5421 249.113C47.8049 249.185 47.9607 249.457 47.8886 249.72C47.8282 249.941 47.6281 250.085 47.4119 250.085V250.088ZM89.0792 246.027C88.8978 246.027 88.721 245.927 88.635 245.753C88.514 245.508 88.614 245.211 88.8582 245.09C90.3258 244.362 91.7793 243.564 93.1817 242.715C93.4166 242.573 93.719 242.648 93.8608 242.883C94.0027 243.118 93.9283 243.42 93.6934 243.562C92.27 244.425 90.7909 245.236 89.2978 245.976C89.228 246.011 89.1513 246.027 89.0792 246.027ZM36.2857 245.799C36.2113 245.799 36.1345 245.783 36.0624 245.746C34.5786 244.992 33.1064 244.166 31.6878 243.292C31.4552 243.148 31.3831 242.843 31.5273 242.611C31.6715 242.378 31.9762 242.306 32.2087 242.45C33.6041 243.311 35.0507 244.125 36.5113 244.864C36.7555 244.987 36.8532 245.285 36.7299 245.529C36.6415 245.701 36.4694 245.801 36.288 245.801L36.2857 245.799ZM99.1634 239.68C99.0169 239.68 98.8704 239.615 98.7727 239.489C98.6053 239.273 98.6425 238.964 98.8588 238.794C100.15 237.785 101.412 236.708 102.612 235.594C102.812 235.408 103.126 235.419 103.312 235.619C103.499 235.819 103.487 236.133 103.287 236.32C102.066 237.452 100.782 238.548 99.4704 239.573C99.3797 239.643 99.2728 239.678 99.1658 239.678L99.1634 239.68ZM26.2479 239.364C26.141 239.364 26.0317 239.329 25.941 239.257C24.6362 238.222 23.3594 237.117 22.1454 235.975C21.9454 235.787 21.9361 235.475 22.1245 235.275C22.3128 235.075 22.6245 235.066 22.8245 235.254C24.0176 236.375 25.2735 237.461 26.5573 238.48C26.7712 238.65 26.8061 238.962 26.6363 239.175C26.5387 239.299 26.3945 239.364 26.2479 239.364ZM107.762 231.424C107.648 231.424 107.534 231.384 107.441 231.305C107.231 231.129 107.208 230.817 107.385 230.608C108.445 229.359 109.466 228.052 110.42 226.719C110.578 226.496 110.887 226.445 111.111 226.605C111.334 226.763 111.385 227.073 111.225 227.296C110.255 228.652 109.217 229.982 108.138 231.249C108.041 231.366 107.901 231.424 107.762 231.424ZM17.7056 231.052C17.5638 231.052 17.4242 230.991 17.3265 230.875C16.2544 229.598 15.2264 228.261 14.2682 226.898C14.1101 226.675 14.1636 226.366 14.3892 226.207C14.6124 226.049 14.9218 226.103 15.0799 226.328C16.0218 227.668 17.0335 228.982 18.087 230.238C18.2638 230.447 18.2359 230.759 18.0266 230.936C17.9335 231.012 17.8219 231.052 17.708 231.052H17.7056ZM114.532 221.612C114.45 221.612 114.369 221.591 114.294 221.551C114.055 221.419 113.969 221.119 114.099 220.879C114.89 219.444 115.627 217.958 116.295 216.46C116.406 216.211 116.699 216.098 116.948 216.209C117.197 216.321 117.311 216.614 117.199 216.863C116.522 218.384 115.771 219.895 114.967 221.356C114.876 221.519 114.706 221.612 114.532 221.612ZM11.0123 221.186C10.8355 221.186 10.6657 221.091 10.575 220.926C9.78428 219.46 9.04936 217.942 8.38653 216.411C8.27722 216.16 8.39351 215.87 8.64468 215.76C8.89586 215.651 9.18657 215.767 9.29588 216.018C9.94708 217.521 10.6704 219.014 11.4472 220.456C11.5774 220.695 11.4867 220.998 11.2471 221.126C11.1727 221.165 11.0913 221.184 11.0123 221.184V221.186ZM119.199 210.639C119.151 210.639 119.102 210.632 119.053 210.616C118.792 210.534 118.646 210.258 118.727 209.997C119.213 208.432 119.637 206.827 119.988 205.227C120.046 204.96 120.311 204.792 120.576 204.85C120.844 204.909 121.011 205.174 120.953 205.439C120.597 207.064 120.165 208.697 119.672 210.288C119.606 210.5 119.411 210.637 119.199 210.637V210.639ZM6.45619 210.172C6.24223 210.172 6.04687 210.032 5.98175 209.818C5.50498 208.227 5.09101 206.592 4.7468 204.957C4.69098 204.69 4.86076 204.427 5.13054 204.371C5.398 204.316 5.6608 204.488 5.71662 204.755C6.05385 206.362 6.46317 207.972 6.93064 209.537C7.00971 209.8 6.86087 210.074 6.59806 210.153C6.55155 210.167 6.50271 210.174 6.45619 210.174V210.172ZM121.555 198.95C121.539 198.95 121.523 198.95 121.506 198.948C121.234 198.922 121.034 198.68 121.062 198.408C121.22 196.778 121.311 195.122 121.33 193.482C121.332 193.21 121.558 192.987 121.83 192.994C122.104 192.996 122.323 193.222 122.318 193.494C122.3 195.162 122.207 196.845 122.046 198.504C122.02 198.759 121.807 198.95 121.553 198.95H121.555ZM4.19794 198.464C3.94443 198.464 3.72814 198.271 3.70489 198.013C3.55372 196.352 3.47232 194.666 3.46301 193.001C3.46301 192.729 3.68163 192.506 3.95606 192.503H3.95839C4.2305 192.503 4.45144 192.722 4.45376 192.996C4.46307 194.634 4.54214 196.29 4.69098 197.924C4.71657 198.197 4.51423 198.436 4.24212 198.462C4.22584 198.462 4.21189 198.462 4.19794 198.462V198.464ZM121.495 187.026C121.246 187.026 121.03 186.838 121.004 186.584C120.83 184.959 120.586 183.317 120.276 181.705L120.265 181.642C120.213 181.375 120.388 181.114 120.655 181.063C120.925 181.012 121.183 181.186 121.234 181.454L121.246 181.519C121.562 183.161 121.811 184.828 121.988 186.482C122.016 186.754 121.82 186.998 121.548 187.026C121.53 187.026 121.513 187.029 121.495 187.029V187.026ZM4.33515 186.538C4.31655 186.538 4.29794 186.538 4.27933 186.535C4.00723 186.505 3.81187 186.259 3.84443 185.989C4.03281 184.333 4.29561 182.666 4.62354 181.033C4.67703 180.765 4.93751 180.591 5.20729 180.644C5.47475 180.698 5.64917 180.958 5.59568 181.228C5.27241 182.835 5.01426 184.475 4.83053 186.101C4.80262 186.354 4.58865 186.54 4.3398 186.54L4.33515 186.538ZM119.032 175.298C118.823 175.298 118.627 175.163 118.56 174.953C118.062 173.391 117.495 171.832 116.869 170.321C116.764 170.067 116.885 169.779 117.136 169.674C117.39 169.569 117.678 169.69 117.783 169.942C118.42 171.479 118.997 173.063 119.504 174.653C119.588 174.914 119.444 175.193 119.183 175.274C119.134 175.291 119.083 175.298 119.032 175.298ZM6.88412 174.891C6.83296 174.891 6.78179 174.884 6.73063 174.865C6.47015 174.779 6.33061 174.5 6.41433 174.239C6.93296 172.658 7.52834 171.077 8.17954 169.544C8.28652 169.293 8.57724 169.174 8.82841 169.281C9.07959 169.388 9.1982 169.679 9.09122 169.93C8.44932 171.439 7.86557 172.993 7.35624 174.546C7.2888 174.756 7.09344 174.886 6.88645 174.886L6.88412 174.891ZM114.285 164.365C114.113 164.365 113.943 164.274 113.853 164.111C113.05 162.683 112.178 161.271 111.257 159.918C111.104 159.692 111.162 159.383 111.387 159.229C111.613 159.076 111.922 159.134 112.076 159.36C113.011 160.739 113.899 162.174 114.715 163.625C114.85 163.862 114.764 164.165 114.527 164.299C114.45 164.341 114.367 164.362 114.285 164.362V164.365ZM11.7286 163.997C11.6448 163.997 11.5611 163.976 11.4844 163.932C11.2471 163.797 11.1657 163.495 11.3006 163.258C12.1263 161.811 13.0263 160.383 13.9705 159.011C14.1264 158.785 14.4334 158.729 14.659 158.885C14.8845 159.041 14.9404 159.348 14.7845 159.574C13.8543 160.923 12.9705 162.327 12.1588 163.751C12.0681 163.911 11.9007 163.999 11.7286 163.999V163.997ZM107.424 154.62C107.287 154.62 107.148 154.562 107.05 154.45C105.975 153.215 104.836 152.008 103.661 150.866C103.466 150.675 103.461 150.361 103.652 150.166C103.843 149.971 104.157 149.966 104.352 150.157C105.548 151.317 106.706 152.545 107.799 153.801C107.978 154.008 107.957 154.32 107.75 154.499C107.657 154.58 107.541 154.62 107.427 154.62H107.424ZM18.6592 154.294C18.5429 154.294 18.4266 154.255 18.3336 154.171C18.1289 153.99 18.108 153.678 18.2894 153.473C19.3894 152.222 20.5569 151.001 21.757 149.847C21.9547 149.659 22.2663 149.664 22.457 149.861C22.6454 150.059 22.6408 150.371 22.4431 150.561C21.2616 151.696 20.1151 152.897 19.0336 154.127C18.9359 154.238 18.7987 154.294 18.6615 154.294H18.6592ZM98.7378 146.454C98.6332 146.454 98.5262 146.422 98.4378 146.352C97.1377 145.357 95.7772 144.403 94.3981 143.519C94.1678 143.373 94.1004 143.066 94.2492 142.835C94.3957 142.605 94.7027 142.538 94.933 142.687C96.3354 143.584 97.7169 144.554 99.0402 145.566C99.2565 145.731 99.2983 146.043 99.1332 146.259C99.0355 146.387 98.889 146.452 98.7402 146.452L98.7378 146.454ZM27.3899 146.18C27.241 146.18 27.0922 146.112 26.9945 145.985C26.8294 145.766 26.8736 145.457 27.0898 145.291C28.4202 144.287 29.8063 143.326 31.2156 142.44C31.4459 142.294 31.7529 142.363 31.8994 142.596C32.0459 142.826 31.9762 143.133 31.7436 143.28C30.3575 144.152 28.9923 145.096 27.6876 146.085C27.5992 146.152 27.4945 146.185 27.3899 146.185V146.18ZM88.5908 140.193C88.5187 140.193 88.4443 140.177 88.3745 140.145C86.9 139.428 85.379 138.768 83.851 138.179C83.5952 138.082 83.4696 137.796 83.5673 137.54C83.6649 137.284 83.951 137.158 84.2068 137.256C85.7604 137.854 87.3093 138.528 88.8071 139.256C89.0536 139.375 89.1559 139.673 89.035 139.917C88.9489 140.093 88.7722 140.196 88.5885 140.196L88.5908 140.193ZM37.5834 139.998C37.3974 139.998 37.2206 139.893 37.1369 139.714C37.0206 139.468 37.1253 139.173 37.3718 139.054C38.8765 138.34 40.4301 137.682 41.9906 137.098C42.2465 137.003 42.5325 137.133 42.6279 137.389C42.7232 137.645 42.593 137.931 42.3372 138.026C40.8022 138.6 39.2742 139.247 37.7951 139.949C37.7276 139.982 37.6532 139.998 37.5834 139.998ZM77.3948 136.098C77.3553 136.098 77.3134 136.093 77.2716 136.082C75.6831 135.677 74.0598 135.337 72.4434 135.07C72.1736 135.026 71.9922 134.77 72.0364 134.5C72.0806 134.23 72.3364 134.049 72.6062 134.093C74.2482 134.365 75.9017 134.712 77.5158 135.123C77.7809 135.191 77.9414 135.461 77.8739 135.726C77.8181 135.949 77.6158 136.098 77.3948 136.098ZM48.8143 136.007C48.591 136.007 48.3887 135.856 48.3328 135.63C48.2677 135.365 48.4305 135.098 48.6956 135.033C49.6794 134.791 50.6841 134.572 51.6842 134.379C52.3214 134.256 52.9703 134.142 53.6122 134.042C53.882 134 54.1355 134.184 54.1797 134.454C54.2215 134.723 54.0378 134.977 53.768 135.021C53.1377 135.121 52.4982 135.233 51.8702 135.354C50.8865 135.542 49.898 135.758 48.9305 135.996C48.891 136.005 48.8515 136.01 48.8119 136.01L48.8143 136.007ZM65.5965 134.349C65.5965 134.349 65.5826 134.349 65.5733 134.349C64.7058 134.309 63.8267 134.291 62.9592 134.291C62.1894 134.291 61.4103 134.307 60.6405 134.337C60.3707 134.349 60.1381 134.135 60.1265 133.863C60.1149 133.591 60.3288 133.361 60.6009 133.349C61.3847 133.319 62.1778 133.302 62.9592 133.302C63.8406 133.302 64.736 133.323 65.6175 133.363C65.8896 133.375 66.1012 133.607 66.0896 133.879C66.078 134.144 65.8593 134.351 65.5965 134.351V134.349Z" fill="#DEDEDE"/>
<path d="M244.05 207.102C243.764 207.12 243.48 207.137 243.197 207.153C242.925 207.169 242.69 206.96 242.676 206.688C242.659 206.416 242.866 206.183 243.139 206.167C243.139 206.167 243.141 206.167 243.143 206.167C244.762 206.076 246.399 205.943 248.013 205.776C248.285 205.746 248.53 205.946 248.557 206.218C248.585 206.49 248.388 206.734 248.116 206.762C246.769 206.902 245.401 207.018 244.053 207.104L244.05 207.102ZM236.331 207.313C236.32 207.313 236.306 207.313 236.294 207.313C234.657 207.297 232.999 207.241 231.366 207.146C231.094 207.13 230.884 206.897 230.901 206.623C230.917 206.35 231.152 206.141 231.424 206.157C233.043 206.25 234.685 206.306 236.306 206.323C236.578 206.325 236.799 206.548 236.796 206.823C236.794 207.083 236.589 207.295 236.334 207.311L236.331 207.313ZM254.904 205.827C254.655 205.844 254.428 205.669 254.386 205.416C254.339 205.146 254.521 204.89 254.79 204.843C256.393 204.571 258.005 204.255 259.586 203.909C259.853 203.85 260.116 204.018 260.177 204.285C260.235 204.553 260.067 204.816 259.8 204.874C258.204 205.225 256.577 205.541 254.96 205.818C254.944 205.82 254.925 205.823 254.909 205.825L254.904 205.827ZM224.584 206.52C224.554 206.52 224.521 206.52 224.491 206.518C222.865 206.313 221.223 206.069 219.614 205.788C219.344 205.741 219.165 205.485 219.212 205.216C219.258 204.946 219.516 204.767 219.784 204.813C221.379 205.092 223.005 205.334 224.614 205.536C224.886 205.571 225.077 205.818 225.045 206.09C225.014 206.33 224.819 206.506 224.586 206.523L224.584 206.52ZM266.382 203.192C266.156 203.206 265.94 203.064 265.875 202.836C265.798 202.574 265.949 202.299 266.212 202.222C267.77 201.771 269.335 201.273 270.868 200.748C271.126 200.66 271.408 200.797 271.496 201.055C271.584 201.313 271.447 201.594 271.189 201.683C269.64 202.213 268.059 202.715 266.486 203.171C266.451 203.181 266.414 203.188 266.379 203.19L266.382 203.192ZM212.995 204.383C212.946 204.385 212.895 204.383 212.846 204.369C211.256 203.981 209.651 203.546 208.076 203.081C207.813 203.004 207.665 202.727 207.741 202.467C207.818 202.204 208.095 202.055 208.355 202.132C209.914 202.592 211.504 203.022 213.081 203.408C213.346 203.474 213.509 203.741 213.444 204.006C213.39 204.222 213.204 204.369 212.995 204.383ZM277.485 199.266C277.28 199.28 277.08 199.164 276.996 198.964C276.889 198.713 277.008 198.422 277.261 198.315C278.757 197.687 280.257 197.015 281.72 196.317C281.966 196.199 282.262 196.303 282.38 196.55C282.499 196.797 282.394 197.092 282.148 197.21C280.671 197.915 279.157 198.594 277.647 199.229C277.596 199.25 277.54 199.264 277.487 199.266H277.485ZM201.722 200.927C201.655 200.932 201.585 200.922 201.518 200.897C199.983 200.327 198.439 199.713 196.929 199.071C196.678 198.964 196.562 198.673 196.669 198.422C196.776 198.171 197.066 198.052 197.318 198.162C198.813 198.799 200.341 199.406 201.862 199.971C202.118 200.066 202.248 200.35 202.155 200.608C202.085 200.797 201.911 200.918 201.722 200.929V200.927ZM288.055 194.096C287.871 194.108 287.687 194.017 287.592 193.845C287.457 193.608 287.543 193.306 287.781 193.171C289.19 192.378 290.599 191.54 291.971 190.68C292.204 190.536 292.509 190.605 292.653 190.836C292.797 191.068 292.727 191.373 292.497 191.517C291.113 192.385 289.69 193.231 288.267 194.034C288.199 194.071 288.127 194.092 288.057 194.096H288.055ZM190.922 196.206C190.836 196.21 190.747 196.194 190.666 196.152C189.205 195.41 187.743 194.624 186.317 193.817C186.08 193.682 185.996 193.38 186.131 193.143C186.266 192.906 186.568 192.822 186.805 192.957C188.215 193.759 189.664 194.536 191.113 195.271C191.357 195.394 191.454 195.692 191.331 195.936C191.25 196.099 191.089 196.194 190.922 196.206ZM297.955 187.752C297.79 187.763 297.625 187.691 297.523 187.547C297.362 187.326 297.411 187.017 297.632 186.856C298.944 185.905 300.249 184.912 301.514 183.9C301.728 183.731 302.039 183.763 302.209 183.977C302.379 184.191 302.346 184.503 302.132 184.673C300.856 185.694 299.537 186.698 298.214 187.656C298.135 187.712 298.046 187.745 297.955 187.75V187.752ZM180.733 190.287C180.628 190.294 180.521 190.268 180.428 190.205C179.061 189.303 177.698 188.357 176.375 187.391C176.154 187.231 176.105 186.922 176.268 186.701C176.428 186.48 176.737 186.431 176.958 186.594C178.268 187.549 179.619 188.487 180.972 189.38C181.2 189.531 181.263 189.838 181.112 190.066C181.024 190.201 180.879 190.278 180.731 190.287H180.733ZM307.072 180.314C306.928 180.324 306.779 180.27 306.675 180.154C306.491 179.951 306.505 179.64 306.705 179.454C307.9 178.361 309.084 177.223 310.228 176.072C310.421 175.879 310.735 175.877 310.928 176.072C311.121 176.265 311.124 176.579 310.928 176.772C309.775 177.933 308.579 179.082 307.372 180.186C307.286 180.265 307.179 180.307 307.07 180.314H307.072ZM171.284 183.254C171.16 183.261 171.035 183.224 170.935 183.14C169.679 182.091 168.432 180.996 167.228 179.889C167.028 179.703 167.014 179.391 167.2 179.189C167.386 178.989 167.697 178.975 167.9 179.161C169.093 180.258 170.328 181.342 171.572 182.382C171.781 182.556 171.809 182.87 171.635 183.079C171.544 183.189 171.418 183.247 171.286 183.256L171.284 183.254ZM315.289 171.886C315.163 171.893 315.035 171.853 314.933 171.765C314.726 171.586 314.705 171.272 314.884 171.067C315.949 169.844 316.998 168.579 318.003 167.307C318.173 167.093 318.484 167.055 318.698 167.225C318.912 167.395 318.95 167.707 318.78 167.921C317.766 169.204 316.705 170.481 315.631 171.716C315.54 171.821 315.417 171.877 315.289 171.886ZM162.697 175.2C162.555 175.209 162.411 175.158 162.306 175.047C161.178 173.86 160.064 172.632 158.995 171.397C158.816 171.19 158.839 170.879 159.046 170.7C159.253 170.521 159.564 170.544 159.743 170.751C160.804 171.977 161.906 173.193 163.023 174.367C163.211 174.565 163.204 174.879 163.006 175.067C162.918 175.151 162.809 175.195 162.697 175.202V175.2ZM322.503 162.578C322.396 162.585 322.287 162.557 322.192 162.492C321.966 162.337 321.91 162.03 322.064 161.804C322.982 160.467 323.882 159.09 324.736 157.713C324.88 157.48 325.185 157.408 325.417 157.553C325.65 157.697 325.722 158.001 325.578 158.234C324.715 159.625 323.808 161.016 322.88 162.364C322.792 162.495 322.65 162.569 322.503 162.578ZM155.085 166.227C154.925 166.237 154.762 166.169 154.657 166.032C153.673 164.727 152.706 163.381 151.785 162.032C151.631 161.806 151.69 161.499 151.915 161.343C152.141 161.19 152.45 161.248 152.604 161.474C153.518 162.811 154.473 164.144 155.448 165.437C155.613 165.655 155.569 165.965 155.35 166.13C155.271 166.19 155.178 166.223 155.085 166.23V166.227ZM328.618 152.508C328.529 152.513 328.438 152.496 328.355 152.45C328.113 152.322 328.022 152.022 328.15 151.78C328.913 150.345 329.65 148.875 330.343 147.41C330.46 147.164 330.755 147.057 331.001 147.173C331.248 147.289 331.355 147.585 331.239 147.831C330.541 149.31 329.794 150.796 329.025 152.243C328.941 152.401 328.785 152.494 328.62 152.503L328.618 152.508ZM148.55 156.448C148.368 156.459 148.189 156.371 148.092 156.206C147.264 154.799 146.457 153.352 145.699 151.906C145.571 151.664 145.664 151.364 145.906 151.238C146.147 151.11 146.447 151.203 146.573 151.445C147.327 152.878 148.124 154.311 148.945 155.704C149.085 155.939 149.006 156.243 148.771 156.38C148.701 156.42 148.627 156.443 148.552 156.448H148.55ZM333.548 141.803C333.478 141.808 333.406 141.796 333.336 141.77C333.083 141.67 332.957 141.384 333.057 141.128C333.653 139.617 334.218 138.07 334.736 136.533C334.825 136.275 335.104 136.135 335.364 136.224C335.623 136.312 335.762 136.593 335.674 136.851C335.148 138.403 334.578 139.963 333.978 141.491C333.906 141.675 333.734 141.791 333.55 141.805L333.548 141.803ZM143.173 145.982C142.973 145.996 142.775 145.884 142.689 145.689C142.026 144.194 141.391 142.659 140.801 141.133C140.703 140.877 140.828 140.591 141.084 140.494C141.34 140.394 141.626 140.521 141.724 140.777C142.31 142.289 142.938 143.808 143.594 145.289C143.705 145.538 143.594 145.831 143.343 145.943C143.287 145.966 143.231 145.98 143.175 145.985L143.173 145.982ZM337.225 130.6C337.174 130.602 337.12 130.6 337.067 130.584C336.802 130.514 336.646 130.242 336.716 129.979C337.132 128.407 337.518 126.807 337.858 125.218C337.916 124.951 338.179 124.781 338.446 124.839C338.713 124.897 338.883 125.16 338.825 125.428C338.481 127.03 338.092 128.646 337.672 130.235C337.616 130.446 337.432 130.588 337.225 130.602V130.6ZM139.031 134.958C138.807 134.972 138.596 134.835 138.526 134.612C138.04 133.049 137.584 131.453 137.172 129.87C137.103 129.605 137.263 129.335 137.526 129.265C137.791 129.195 138.061 129.356 138.131 129.619C138.54 131.188 138.991 132.768 139.473 134.316C139.554 134.577 139.407 134.854 139.147 134.935C139.107 134.947 139.07 134.954 139.031 134.956V134.958ZM339.59 119.053C339.555 119.053 339.52 119.053 339.486 119.048C339.216 119.009 339.027 118.757 339.067 118.488C339.3 116.885 339.497 115.253 339.653 113.639C339.679 113.366 339.923 113.166 340.193 113.194C340.465 113.22 340.665 113.462 340.637 113.734C340.479 115.364 340.279 117.011 340.044 118.63C340.009 118.864 339.816 119.037 339.586 119.053H339.59ZM136.175 123.534C135.928 123.551 135.705 123.381 135.656 123.132C135.351 121.527 135.079 119.89 134.847 118.267C134.807 117.997 134.996 117.746 135.268 117.706C135.54 117.669 135.789 117.855 135.828 118.127C136.056 119.734 136.326 121.358 136.628 122.948C136.679 123.216 136.503 123.476 136.235 123.527C136.214 123.532 136.193 123.534 136.175 123.534ZM340.614 107.322C340.597 107.322 340.583 107.322 340.567 107.322C340.295 107.315 340.079 107.085 340.088 106.813C340.137 105.192 340.146 103.55 340.116 101.929C340.111 101.654 340.33 101.431 340.602 101.424C340.876 101.419 341.102 101.636 341.107 101.91C341.137 103.547 341.128 105.206 341.079 106.843C341.072 107.101 340.869 107.306 340.616 107.322H340.614ZM134.626 111.859C134.356 111.878 134.121 111.673 134.1 111.404C134.07 111.018 134.044 110.631 134.019 110.248C133.937 108.996 133.879 107.729 133.844 106.478C133.837 106.206 134.049 105.978 134.326 105.968C134.598 105.961 134.826 106.175 134.835 106.45C134.87 107.689 134.928 108.945 135.01 110.183C135.035 110.564 135.061 110.945 135.091 111.327C135.112 111.599 134.907 111.836 134.635 111.857H134.63L134.626 111.859ZM340.288 95.5516C340.02 95.5679 339.786 95.3679 339.762 95.1004C339.625 93.4887 339.451 91.8537 339.237 90.242L339.216 90.0862C339.179 89.8164 339.369 89.5676 339.641 89.5303C339.913 89.4931 340.162 89.6838 340.197 89.9559L340.218 90.1141C340.432 91.7398 340.611 93.3887 340.748 95.0167C340.772 95.2888 340.569 95.5283 340.297 95.5516C340.295 95.5516 340.29 95.5516 340.288 95.5516ZM134.403 100.087C134.386 100.087 134.368 100.087 134.351 100.087C134.079 100.075 133.865 99.8472 133.875 99.5727C133.937 97.9354 134.04 96.2795 134.182 94.6492C134.205 94.3771 134.444 94.1748 134.717 94.198C134.989 94.2213 135.191 94.4608 135.168 94.7329C135.028 96.347 134.926 97.9889 134.865 99.6076C134.856 99.8634 134.654 100.066 134.403 100.082V100.087ZM338.606 83.7347C338.362 83.751 338.139 83.5835 338.09 83.3393C337.772 81.7485 337.409 80.1461 337.016 78.5739C336.948 78.3088 337.111 78.039 337.376 77.9739C337.641 77.9065 337.911 78.0693 337.976 78.3344C338.374 79.9205 338.739 81.5392 339.062 83.1463C339.116 83.4137 338.944 83.6742 338.674 83.73C338.653 83.7347 338.63 83.737 338.609 83.7393L338.606 83.7347ZM135.526 88.3652C135.491 88.3652 135.454 88.3652 135.419 88.3605C135.149 88.3186 134.963 88.0651 135.005 87.7954C135.256 86.1743 135.549 84.5371 135.877 82.9277C135.931 82.6602 136.193 82.4881 136.461 82.5416C136.728 82.5951 136.9 82.8579 136.847 83.1254C136.521 84.7185 136.231 86.3395 135.984 87.9465C135.947 88.1791 135.754 88.3512 135.528 88.3652H135.526ZM335.634 72.341C335.413 72.355 335.202 72.2201 335.132 71.9992C334.634 70.4549 334.092 68.9037 333.52 67.3873C333.425 67.1315 333.553 66.8454 333.809 66.7501C334.064 66.6547 334.35 66.7826 334.446 67.0384C335.023 68.5711 335.569 70.1363 336.074 71.6945C336.158 71.955 336.016 72.2341 335.755 72.3178C335.716 72.3318 335.674 72.3387 335.634 72.341ZM137.993 76.8297C137.94 76.832 137.884 76.8297 137.831 76.8134C137.568 76.7413 137.412 76.4692 137.484 76.204C137.919 74.6226 138.398 73.0318 138.907 71.4736C138.994 71.2131 139.273 71.0712 139.531 71.1573C139.791 71.2433 139.933 71.5224 139.847 71.7806C139.342 73.3248 138.868 74.9017 138.438 76.4669C138.38 76.6762 138.198 76.8157 137.993 76.8297ZM331.38 61.3614C331.18 61.3754 330.985 61.266 330.899 61.073C330.227 59.5962 329.511 58.117 328.769 56.6774C328.643 56.4356 328.738 56.1355 328.983 56.01C329.227 55.8844 329.525 55.9797 329.65 56.2239C330.399 57.6798 331.122 59.1729 331.801 60.6637C331.915 60.9125 331.804 61.2056 331.557 61.3195C331.501 61.3451 331.443 61.3591 331.385 61.3637L331.38 61.3614ZM141.768 65.6593C141.696 65.664 141.622 65.6523 141.552 65.6244C141.298 65.5221 141.175 65.2337 141.277 64.9802C141.889 63.4615 142.547 61.9358 143.233 60.4451C143.347 60.1962 143.64 60.0869 143.889 60.2032C144.138 60.3172 144.247 60.6102 144.131 60.859C143.452 62.3335 142.801 63.8453 142.194 65.35C142.119 65.5314 141.949 65.6477 141.766 65.6593H141.768ZM325.896 50.9492C325.717 50.9608 325.538 50.8748 325.441 50.7097C324.606 49.3236 323.727 47.9398 322.824 46.5932C322.673 46.3653 322.734 46.0583 322.959 45.9071C323.187 45.7559 323.494 45.8164 323.645 46.042C324.555 47.4002 325.443 48.7979 326.285 50.198C326.427 50.4329 326.35 50.7353 326.117 50.8771C326.048 50.919 325.971 50.9422 325.894 50.9469L325.896 50.9492ZM146.792 54.9983C146.701 55.0052 146.61 54.9843 146.524 54.9401C146.285 54.8099 146.194 54.5099 146.326 54.268C147.108 52.8284 147.934 51.3888 148.785 49.9887C148.927 49.7561 149.231 49.6794 149.464 49.8213C149.699 49.9631 149.773 50.2678 149.631 50.5004C148.789 51.8888 147.971 53.3145 147.199 54.7401C147.115 54.8959 146.959 54.9866 146.796 54.9983H146.792ZM319.261 41.2371C319.103 41.2464 318.94 41.1813 318.838 41.0464C317.85 39.7626 316.815 38.4881 315.768 37.2531C315.591 37.0438 315.617 36.7322 315.824 36.5554C316.033 36.3787 316.345 36.4043 316.522 36.6112C317.58 37.8578 318.622 39.1463 319.622 40.4417C319.789 40.658 319.75 40.9696 319.531 41.1347C319.45 41.1975 319.357 41.2301 319.261 41.2371ZM152.992 44.9815C152.883 44.9884 152.773 44.9605 152.676 44.8931C152.452 44.7373 152.397 44.4279 152.555 44.2047C153.494 42.8651 154.478 41.5278 155.48 40.2324C155.648 40.0161 155.96 39.9765 156.176 40.144C156.392 40.3114 156.432 40.6231 156.264 40.8394C155.271 42.1208 154.297 43.4465 153.366 44.7745C153.276 44.9024 153.138 44.9745 152.992 44.9838V44.9815ZM311.556 32.3436C311.417 32.3529 311.275 32.3017 311.168 32.1947C310.04 31.0319 308.868 29.8807 307.684 28.7736C307.484 28.5876 307.475 28.2736 307.661 28.0736C307.847 27.8736 308.161 27.8643 308.361 28.0503C309.554 29.169 310.738 30.3318 311.877 31.504C312.068 31.6994 312.063 32.0133 311.868 32.204C311.779 32.2901 311.668 32.3366 311.556 32.3436ZM160.285 35.7368C160.157 35.7461 160.027 35.7042 159.925 35.6135C159.72 35.4321 159.702 35.1205 159.883 34.9158C160.967 33.6902 162.097 32.4738 163.239 31.3017C163.43 31.1063 163.744 31.1017 163.939 31.2924C164.134 31.4831 164.139 31.797 163.948 31.9924C162.818 33.1529 161.699 34.3576 160.625 35.5717C160.534 35.674 160.411 35.7298 160.285 35.7368ZM302.886 24.378C302.765 24.385 302.642 24.3501 302.539 24.2664C301.286 23.2384 299.99 22.2268 298.688 21.2593C298.469 21.0965 298.423 20.7872 298.586 20.5662C298.749 20.3476 299.058 20.3011 299.279 20.4639C300.593 21.4407 301.9 22.4617 303.167 23.4989C303.379 23.671 303.409 23.985 303.237 24.1943C303.146 24.3036 303.019 24.3664 302.886 24.3734V24.378ZM168.576 27.3805C168.43 27.3898 168.281 27.334 168.176 27.2177C167.993 27.0154 168.011 26.7014 168.214 26.5177C169.43 25.4246 170.688 24.3455 171.956 23.3105C172.167 23.1384 172.479 23.1687 172.651 23.3803C172.823 23.592 172.793 23.9036 172.581 24.0757C171.328 25.099 170.081 26.1688 168.876 27.2526C168.79 27.3294 168.686 27.3712 168.579 27.3782L168.576 27.3805ZM293.367 17.4405C293.265 17.4474 293.16 17.4219 293.067 17.3614C291.704 16.4823 290.302 15.6241 288.899 14.8101C288.662 14.6729 288.583 14.3705 288.72 14.1333C288.857 13.8961 289.16 13.817 289.397 13.9542C290.813 14.7752 292.23 15.6427 293.606 16.5311C293.837 16.68 293.902 16.9846 293.753 17.2149C293.665 17.3521 293.52 17.4312 293.369 17.4405H293.367ZM177.761 20.022C177.596 20.0336 177.428 19.9592 177.326 19.815C177.168 19.5917 177.219 19.2824 177.442 19.1243C178.775 18.1777 180.147 17.2498 181.521 16.366C181.752 16.2171 182.059 16.2846 182.205 16.5148C182.352 16.7451 182.287 17.0521 182.056 17.1986C180.693 18.0731 179.335 18.9917 178.017 19.929C177.94 19.9848 177.851 20.0127 177.763 20.0197L177.761 20.022ZM283.12 11.6262C283.036 11.6309 282.95 11.6169 282.869 11.575C281.415 10.8564 279.922 10.161 278.433 9.51213C278.182 9.40283 278.068 9.11211 278.178 8.86094C278.287 8.60976 278.578 8.4958 278.829 8.60511C280.331 9.26096 281.836 9.96099 283.306 10.6866C283.55 10.8076 283.652 11.1052 283.529 11.3494C283.448 11.5146 283.287 11.6122 283.117 11.6239L283.12 11.6262ZM187.717 13.7658C187.531 13.7775 187.347 13.6844 187.252 13.51C187.119 13.2705 187.208 12.9705 187.447 12.8379C188.882 12.0472 190.354 11.282 191.824 10.561C192.071 10.4401 192.366 10.5424 192.487 10.7866C192.608 11.0331 192.506 11.3285 192.261 11.4494C190.806 12.1634 189.347 12.9216 187.926 13.7031C187.861 13.7403 187.789 13.7589 187.719 13.7635L187.717 13.7658ZM272.273 7.01433C272.208 7.01898 272.14 7.00968 272.073 6.98642C270.545 6.43755 268.982 5.91892 267.431 5.44448C267.17 5.3654 267.021 5.08864 267.103 4.82584C267.182 4.56536 267.458 4.41651 267.721 4.49791C269.289 4.97701 270.866 5.50029 272.41 6.05614C272.668 6.14916 272.801 6.4329 272.708 6.68873C272.638 6.87944 272.463 7.0027 272.273 7.01433ZM198.341 8.68418C198.134 8.69814 197.934 8.57953 197.85 8.37719C197.745 8.12369 197.869 7.8353 198.12 7.73064C199.634 7.11201 201.185 6.51895 202.727 5.97241C202.985 5.88171 203.267 6.0166 203.36 6.27243C203.45 6.53058 203.316 6.81199 203.06 6.90502C201.532 7.44691 199.994 8.03298 198.497 8.64697C198.446 8.6679 198.394 8.67953 198.341 8.68186V8.68418ZM260.965 3.67229C260.919 3.67461 260.87 3.67229 260.821 3.66066C259.237 3.29087 257.625 2.95365 256.028 2.66061C255.758 2.61177 255.581 2.35361 255.63 2.08383C255.679 1.81405 255.937 1.6373 256.207 1.68614C257.821 1.9815 259.449 2.32105 261.047 2.69549C261.312 2.75829 261.479 3.02342 261.416 3.29087C261.365 3.50716 261.179 3.65833 260.967 3.67229H260.965ZM209.474 4.85607C209.246 4.87003 209.03 4.72583 208.967 4.49559C208.893 4.23278 209.046 3.95835 209.309 3.88625C210.883 3.44437 212.49 3.03272 214.088 2.66526C214.356 2.60479 214.621 2.76991 214.681 3.03737C214.742 3.30483 214.577 3.56996 214.309 3.63043C212.728 3.99324 211.135 4.40023 209.576 4.83979C209.541 4.84909 209.509 4.85607 209.474 4.8584V4.85607ZM249.353 1.65358C249.323 1.65358 249.295 1.65358 249.265 1.65358C247.655 1.46752 246.018 1.321 244.399 1.21169C244.127 1.19309 243.92 0.95819 243.939 0.683757C243.957 0.409324 244.192 0.204662 244.467 0.223268C246.102 0.332576 247.753 0.481421 249.378 0.669803C249.651 0.700037 249.846 0.946562 249.813 1.21867C249.785 1.46054 249.588 1.64195 249.355 1.6559L249.353 1.65358ZM220.975 2.32338C220.723 2.33966 220.496 2.16291 220.454 1.9094C220.409 1.63962 220.593 1.38612 220.863 1.34193C221.87 1.17913 222.896 1.02796 223.91 0.895396C224.521 0.813997 225.14 0.739574 225.749 0.669803C226.019 0.639569 226.266 0.834928 226.298 1.10471C226.328 1.37682 226.133 1.62102 225.863 1.65358C225.259 1.72335 224.647 1.79777 224.042 1.87684C223.038 2.00941 222.021 2.15825 221.023 2.31873C221.007 2.32105 220.991 2.32338 220.977 2.32338H220.975ZM237.599 0.981447C237.599 0.981447 237.578 0.981447 237.566 0.981447C235.948 0.981447 234.303 1.02098 232.682 1.09773C232.41 1.11169 232.178 0.900048 232.164 0.62794C232.15 0.358159 232.357 0.127914 232.626 0.111634C232.629 0.111634 232.631 0.111634 232.636 0.111634C234.273 0.039537 235.931 0 237.566 0C237.841 0 238.062 0.220942 238.062 0.495375C238.062 0.75818 237.857 0.972145 237.599 0.988425V0.981447Z" fill="#DEDEDE"/>
<path d="M253.858 61.5405V231.815H253.411L240.52 219.27L227.628 231.815H226.284L213.393 219.27L200.499 231.815H199.176L186.305 219.293L173.437 231.815H172.118L159.236 219.279L146.352 231.815H144.994L132.109 219.279L119.225 231.815H117.883L105.024 219.302L92.1654 231.815H91.3142V14.217H206.534L253.858 61.5405Z" fill="#F2F2F2"/>
<path d="M253.858 61.5405H206.534V14.217L253.858 61.5405Z" fill="#DEDEDE"/>
<path d="M135.056 150.122V143.754H117.869C115.702 143.754 114.074 143.263 112.99 142.282C111.906 141.301 111.364 139.966 111.364 138.277C111.364 137.845 111.443 137.405 111.604 136.958C111.764 136.514 112.004 136.047 112.322 135.554C112.641 135.063 112.974 134.591 113.315 134.133C113.657 133.677 114.081 133.116 114.583 132.456L132.728 108.182C133.914 106.585 134.891 105.427 135.656 104.708C136.421 103.989 137.34 103.629 138.412 103.629C141.882 103.629 143.617 105.615 143.617 109.585V136.084H145.089C146.847 136.084 148.257 136.324 149.317 136.803C150.378 137.282 150.91 138.333 150.91 139.952C150.91 141.275 150.476 142.24 149.61 142.845C148.743 143.449 147.443 143.752 145.708 143.752H143.619V150.12C143.619 151.878 143.231 153.183 142.456 154.038C141.68 154.894 140.642 155.322 139.34 155.322C138.038 155.322 137.028 154.883 136.242 154.004C135.454 153.124 135.061 151.829 135.061 150.117L135.056 150.122ZM120.334 136.086H135.056V116.195L120.334 136.086Z" fill="#262F5F"/>
<path d="M190.519 129.853C190.519 133.598 190.292 136.814 189.836 139.507C189.38 142.201 188.536 144.643 187.303 146.833C185.752 149.527 183.742 151.603 181.277 153.064C178.812 154.524 176.072 155.255 173.06 155.255C169.59 155.255 166.481 154.273 163.732 152.31C160.981 150.348 158.911 147.631 157.518 144.163C156.811 142.27 156.29 140.175 155.959 137.882C155.629 135.589 155.464 133.107 155.464 130.435C155.464 126.988 155.646 123.886 156.013 121.123C156.378 118.362 156.948 115.988 157.725 114.001C159.071 110.715 161.03 108.21 163.597 106.487C166.165 104.764 169.23 103.903 172.788 103.903C175.14 103.903 177.272 104.285 179.191 105.05C181.107 105.815 182.791 106.934 184.24 108.406C185.689 109.878 186.917 111.699 187.919 113.867C189.654 117.632 190.522 122.962 190.522 129.853H190.519ZM181.14 129.17C181.14 124.993 180.889 121.576 180.386 118.916C179.884 116.257 179.04 114.248 177.854 112.89C176.668 111.531 175.023 110.852 172.923 110.852C169.911 110.852 167.816 112.371 166.641 115.406C165.465 118.441 164.879 123.12 164.879 129.442C164.879 133.733 165.13 137.247 165.632 139.986C166.134 142.726 166.979 144.796 168.165 146.201C169.351 147.606 170.96 148.306 172.993 148.306C175.026 148.306 176.735 147.575 177.923 146.115C179.11 144.654 179.944 142.566 180.424 139.849C180.903 137.133 181.142 133.572 181.142 129.167L181.14 129.17Z" fill="#262F5F"/>
<path d="M218.386 150.122V143.754H201.199C199.032 143.754 197.404 143.263 196.32 142.282C195.236 141.301 194.694 139.966 194.694 138.277C194.694 137.845 194.773 137.405 194.934 136.958C195.094 136.514 195.334 136.047 195.652 135.554C195.971 135.063 196.303 134.591 196.645 134.133C196.987 133.677 197.411 133.116 197.913 132.456L216.058 108.182C217.244 106.585 218.221 105.427 218.986 104.708C219.751 103.989 220.67 103.629 221.742 103.629C225.212 103.629 226.947 105.615 226.947 109.585V136.084H228.419C230.177 136.084 231.587 136.324 232.647 136.803C233.708 137.282 234.24 138.333 234.24 139.952C234.24 141.275 233.805 142.24 232.94 142.845C232.073 143.449 230.773 143.752 229.038 143.752H226.949V150.12C226.949 151.878 226.561 153.183 225.784 154.038C225.007 154.894 223.97 155.322 222.668 155.322C221.365 155.322 220.356 154.883 219.57 154.004C218.781 153.124 218.388 151.829 218.388 150.117L218.386 150.122ZM203.664 136.086H218.386V116.195L203.664 136.086Z" fill="#262F5F"/>
<path d="M171.321 281.796C169.081 284.036 165.451 284.036 163.213 281.796L128.405 246.988L123.981 242.564C127.202 240.438 129.963 237.675 132.088 234.457L171.321 273.689C173.56 275.929 173.56 279.557 171.321 281.796Z" fill="#9C9C9C"/>
<path d="M133.851 236.217L142.922 245.29C140.796 248.511 138.035 251.271 134.816 253.397L130.17 248.748L125.746 244.325C128.967 242.199 131.728 239.436 133.854 236.217H133.851Z" fill="#5E5E5E"/>
<path d="M142.891 217.328C142.831 215.86 142.675 214.416 142.435 213C141.073 204.953 136.931 197.852 131.028 192.72C124.955 187.436 117.023 184.238 108.343 184.238C89.2466 184.238 73.7644 199.72 73.7644 218.819C73.7644 220.14 73.8388 221.444 73.983 222.728C74.4365 226.752 75.5785 230.566 77.2925 234.05C79.7531 239.057 83.3882 243.383 87.8396 246.664C88.5629 247.199 89.3094 247.704 90.0746 248.183C95.3772 251.488 101.638 253.397 108.343 253.397C115.822 253.397 122.746 251.023 128.402 246.988C131.533 244.755 134.275 242.013 136.51 238.882C138.754 235.736 140.484 232.198 141.577 228.391C142.449 225.352 142.917 222.142 142.917 218.823C142.917 218.323 142.905 217.826 142.884 217.332L142.891 217.328ZM108.345 247.246C102.124 247.246 96.3726 245.248 91.6909 241.859C87.1488 238.571 83.6161 233.971 81.6485 228.612C80.5276 225.558 79.9182 222.261 79.9182 218.819C79.9182 217.523 80.0043 216.249 80.174 215C81.5881 204.457 88.7815 195.748 98.4611 192.157C101.54 191.015 104.871 190.392 108.348 190.392C109.606 190.392 110.843 190.473 112.057 190.631C117.82 191.38 123.041 193.857 127.186 197.527C133.07 202.734 136.777 210.344 136.777 218.819C136.777 219.251 136.768 219.681 136.747 220.109C136.654 222.196 136.335 224.224 135.817 226.17C135.021 229.154 133.751 231.943 132.095 234.454C129.97 237.675 127.209 240.438 123.988 242.562C123.197 243.083 122.381 243.564 121.537 244.006C119.737 244.95 117.823 245.706 115.82 246.25C113.439 246.897 110.936 247.243 108.35 247.243L108.345 247.246Z" fill="#B8B8B8"/>
<path d="M86.8162 221.944C85.351 221.944 84.1626 220.756 84.1626 219.291C84.1626 212.707 86.7278 206.516 91.3839 201.86C96.04 197.203 102.231 194.638 108.815 194.638C110.28 194.638 111.469 195.827 111.469 197.292C111.469 198.757 110.28 199.945 108.815 199.945C103.647 199.945 98.7913 201.957 95.1376 205.611C91.4839 209.265 89.4722 214.121 89.4722 219.288C89.4722 220.754 88.2837 221.942 86.8185 221.942L86.8162 221.944Z" fill="white"/>
</g>
<defs>
<clipPath id="clip0_11_7059">
<rect width="350" height="283.476" fill="white"/>
</clipPath>
</defs>
</svg>
