<svg width="794" height="359" viewBox="0 0 794 359" fill="none" xmlns="http://www.w3.org/2000/svg">
<path d="M330.985 136.453H317.491V66.0799C317.491 54.2389 307.893 44.6409 296.052 44.6409H254.804C245.823 44.6409 236.23 41.8223 227.309 43.7658C209.914 47.5516 220.562 59.5952 214.934 72.3527C210.498 82.4159 198.404 88.6427 187.839 88.6427H173.649C157.359 88.6427 148.153 77.884 144.758 62.879C141.106 46.7226 144.795 44.6409 127.469 44.6409C106.794 44.6409 86.1153 44.6409 65.4408 44.6409C53.5998 44.6409 44.0018 54.2389 44.0018 66.0799V136.453H30.5074C13.6602 136.453 0 150.113 0 166.961V181.146C0 197.993 13.6602 211.653 30.5074 211.653H44.0018V283.464C44.0018 295.305 53.5998 304.903 65.4408 304.903C91.4025 304.903 117.364 304.986 143.326 304.875C138.978 304.894 146.868 276.311 148.549 273.824C153.979 265.783 164.023 260.901 173.649 260.901H187.834C204.682 260.901 218.342 274.561 218.342 291.408C218.342 295.913 218.162 300.822 218.775 304.967C240.232 304.843 261.69 304.866 283.142 304.894C298.267 304.912 317.486 303.604 317.486 283.464V211.653H330.981C347.828 211.653 361.488 197.993 361.488 181.146V166.961C361.488 150.113 347.828 136.453 330.981 136.453H330.985Z" fill="url(#paint0_linear_1167_77871)"/>
<path d="M344.633 136.579C325.285 136.57 331.138 120.142 331.138 106.067V66.2059C331.138 54.3649 321.54 44.7669 309.699 44.7669H268.452C259.471 44.7669 249.877 41.9482 240.956 43.8918C223.561 47.6776 234.209 59.7212 228.581 72.4787C224.146 82.5419 212.052 88.7687 201.487 88.7687H187.297C171.007 88.7687 161.8 78.01 158.406 63.005C154.754 46.8486 158.443 44.7669 141.117 44.7669C120.442 44.7669 103.143 44.8406 82.4689 44.8406C70.628 44.8406 61.0299 54.4386 61.0299 66.2796C61.0299 82.8735 59.8877 99.4352 58.8423 115.992C58.5245 121.017 59.9522 134.032 55.9131 136.589C53.7945 137.929 46.8171 136.589 44.155 136.589C27.3078 136.589 12.4502 148.052 10 164.959V172.876C10 194.278 27.5104 211.789 48.9264 211.789C57.3639 211.789 58.8423 219.71 58.7962 226.628C58.6673 247.049 58.3126 267.484 58.3126 287.905C58.3126 299.746 72.5347 304.771 84.3803 304.771C110.342 304.771 131.016 305.116 156.978 305.006C152.63 305.024 160.52 276.442 162.201 273.955C167.631 265.913 177.676 261.032 187.301 261.032H201.487C218.334 261.032 231.994 274.692 231.994 291.539C231.994 296.043 231.814 300.953 232.427 305.098C253.884 304.973 275.342 304.996 296.795 305.024C311.919 305.043 331.138 303.735 331.138 283.594C331.138 266.669 331.138 249.743 331.138 232.818C331.138 227.927 328.955 214.4 332.829 211.779C334.823 210.43 342.054 211.784 344.633 211.784C361.48 211.784 375.14 198.124 375.14 181.277V167.087C375.14 150.244 361.489 136.589 344.633 136.579Z" fill="white"/>
<path d="M294.519 304.525L294.002 304.521C293.356 304.516 292.408 304.509 291.2 304.5C288.784 304.483 285.33 304.459 281.177 304.432C272.871 304.378 261.768 304.313 250.582 304.27C239.396 304.227 228.126 304.205 219.485 304.237C215.165 304.254 211.5 304.283 208.831 304.331C207.496 304.354 206.408 304.382 205.61 304.415C205.212 304.432 204.882 304.45 204.628 304.47C204.466 304.482 204.317 304.496 204.196 304.515C204.164 304.475 204.12 304.411 204.067 304.315C203.899 304.011 203.705 303.516 203.49 302.828C203.065 301.46 202.593 299.439 202.09 296.936C201.085 291.935 199.968 285.07 198.858 277.797C198.087 272.744 197.319 267.492 196.594 262.536C195.235 253.245 194.029 244.994 193.24 241.047C192.651 238.101 192.696 234.16 193.11 229.872C193.523 225.594 194.3 221.008 195.153 216.792C196.007 212.576 196.935 208.736 197.651 205.949C198.009 204.556 198.313 203.427 198.528 202.647C198.624 202.296 198.703 202.015 198.76 201.813L199.474 201.842C200.197 201.872 201.257 201.916 202.607 201.972C205.308 202.084 209.168 202.246 213.806 202.444C223.082 202.841 235.471 203.382 247.923 203.96C260.375 204.539 272.888 205.155 282.414 205.702C287.177 205.975 291.19 206.231 294.074 206.456C295.517 206.569 296.672 206.673 297.496 206.768C297.908 206.816 298.231 206.86 298.463 206.9C298.548 206.915 298.617 206.929 298.672 206.942C298.678 206.965 298.684 206.992 298.691 207.024C298.732 207.212 298.77 207.495 298.803 207.877C298.867 208.636 298.906 209.728 298.919 211.113C298.947 213.878 298.876 217.77 298.735 222.413C298.452 231.699 297.886 243.97 297.257 256.206C296.628 268.441 295.937 280.639 295.402 289.779C295.135 294.348 294.907 298.153 294.746 300.816C294.665 302.147 294.601 303.192 294.557 303.905L294.519 304.525ZM298.636 206.837C298.636 206.837 298.638 206.84 298.641 206.847C298.638 206.841 298.636 206.838 298.636 206.837Z" fill="white" stroke="#001081"/>
<path d="M262.81 304.266H249.723L249.745 304.075C249.8 303.587 249.881 302.873 249.985 301.965C250.193 300.148 250.492 297.557 250.857 294.457C251.587 288.258 252.581 280.026 253.634 271.894C254.687 263.761 255.8 255.734 256.768 249.942C257.253 247.043 257.699 244.718 258.081 243.223C258.178 242.841 258.269 242.525 258.352 242.271C258.377 242.379 258.403 242.498 258.429 242.627C258.552 243.227 258.68 244.026 258.81 244.998C259.07 246.941 259.339 249.549 259.608 252.597C260.146 258.691 260.683 266.521 261.162 274.255C261.64 281.988 262.059 289.622 262.357 295.323C262.507 298.173 262.626 300.54 262.709 302.194C262.75 303.022 262.781 303.671 262.803 304.113L262.81 304.266ZM258.642 241.589C258.642 241.589 258.641 241.59 258.64 241.592C258.641 241.59 258.642 241.589 258.642 241.589ZM258.122 241.546C258.12 241.543 258.12 241.543 258.121 241.545L258.122 241.546Z" fill="#F2F2F2" stroke="#001081"/>
<path d="M296.039 72.488C296.039 72.488 336.14 124.923 342.772 131.647C349.404 138.371 436.795 163.324 437.813 167.018C438.831 170.711 429.657 188.36 425.489 189.258C421.321 190.156 330.471 164.052 325.059 162.223C319.648 160.39 278.57 115.338 278.57 115.338L296.03 72.488H296.039Z" fill="#001081"/>
<path d="M279.623 62.7569C279.615 62.4601 279.604 62.0355 279.59 61.5205C279.564 60.4843 279.531 59.0814 279.503 57.6151C279.449 54.7023 279.416 51.4826 279.514 50.4361L279.515 50.4303H279.515L279.516 50.4198C279.524 50.3389 279.537 50.2204 279.569 50.0968C279.838 49.0106 280.77 48.6116 281.616 48.4775C282.366 48.3588 283.198 48.4199 283.78 48.4628C283.854 48.4682 283.923 48.4733 283.988 48.4777L283.954 48.9766M279.623 62.7569L287.431 48.4975C286.987 48.6583 286.369 48.6818 285.708 48.6421C285.385 48.6228 285.068 48.5897 284.774 48.5572C284.729 48.5522 284.684 48.5472 284.64 48.5423C284.401 48.5156 284.173 48.4901 283.988 48.4777L283.954 48.9766M279.623 62.7569L260.277 64.5096C260.292 64.1884 260.313 63.7386 260.339 63.1774C260.395 61.965 260.476 60.2324 260.577 58.1517C260.778 53.9904 261.056 48.4373 261.363 42.8695C261.671 37.301 262.007 31.7208 262.326 27.5041C262.485 25.3948 262.639 23.6322 262.782 22.3846C262.854 21.7592 262.922 21.2729 262.985 20.94C263.007 20.8213 263.028 20.7293 263.045 20.6613C263.097 20.6442 263.16 20.6245 263.235 20.6022C263.438 20.5413 263.715 20.465 264.057 20.3767C264.74 20.2003 265.672 19.979 266.778 19.7419C268.991 19.2676 271.887 18.732 274.858 18.3661C277.833 17.9996 280.861 17.8062 283.343 18.0066C284.585 18.1069 285.67 18.3042 286.536 18.6161C287.324 18.9001 287.895 19.2659 288.252 19.7058C288.246 19.7753 288.238 19.8626 288.229 19.966C288.203 20.2539 288.167 20.6665 288.126 21.1657C288.044 22.1638 287.941 23.5097 287.856 24.8986C287.771 26.286 287.704 27.7229 287.696 28.901C287.692 29.4893 287.702 30.021 287.733 30.4533C287.763 30.8614 287.814 31.2526 287.927 31.5097L287.927 31.5103C288.101 31.9074 288.534 32.5217 289.007 33.1746C289.131 33.3446 289.259 33.5201 289.39 33.6997C289.783 34.2367 290.201 34.8093 290.589 35.376C291.11 36.1366 291.549 36.8498 291.783 37.4127C291.902 37.6973 291.95 37.9022 291.952 38.0339C291.953 38.0924 291.944 38.12 291.941 38.1278C291.445 38.4766 290.787 38.5437 290.16 38.5568C290.087 38.5583 290.011 38.5591 289.934 38.5598C289.717 38.562 289.495 38.5641 289.33 38.584C289.222 38.5969 289.051 38.625 288.901 38.7204C288.817 38.7743 288.726 38.8583 288.666 38.9834C288.632 39.0551 288.615 39.1274 288.609 39.1965C288.601 39.2217 288.591 39.2525 288.581 39.288C288.55 39.3918 288.51 39.5377 288.47 39.7085C288.394 40.039 288.315 40.4948 288.332 40.9265L288.332 40.9333L288.331 40.9854L288.33 41.1844C288.33 41.3563 288.328 41.6027 288.325 41.9006C288.32 42.4965 288.309 43.2975 288.29 44.1188C288.271 44.9412 288.244 45.7796 288.204 46.4521C288.184 46.7889 288.162 47.0783 288.136 47.3007C288.124 47.4121 288.111 47.5015 288.099 47.5688C288.088 47.6235 288.081 47.65 288.079 47.6574C288.078 47.6601 288.078 47.6602 288.079 47.6581L287.974 47.9142C287.807 48.265 287.669 48.411 287.431 48.4974L279.623 62.7569ZM283.954 48.9766C284.128 48.9882 284.342 49.0121 284.581 49.0389C285.479 49.1392 286.74 49.2801 287.602 48.9674L280.053 50.2201C280.423 48.7197 282.489 48.8702 283.741 48.9614C283.815 48.9668 283.887 48.972 283.954 48.9766Z" fill="white" stroke="#001081"/>
<path d="M273.689 31.2078C273.429 30.832 273.303 30.4114 273.146 29.8904C273.099 29.731 273.048 29.5622 272.99 29.3824L272.99 29.3822C272.56 28.0555 271.4 27.0401 270.069 26.7112C268.736 26.3819 267.292 26.7328 266.222 27.5551C265.747 27.9186 265.306 28.402 265.07 29.0157L265.07 29.016C264.874 29.5258 264.841 30.0565 264.877 30.5477C265.033 32.7795 266.784 34.8264 268.942 35.399C268.87 35.6749 268.739 36.0054 268.548 36.3811C268.258 36.9515 267.858 37.5765 267.411 38.1932C266.514 39.4304 265.466 40.5863 264.836 41.1463L264.836 41.1464C263.805 42.0631 262.847 42.696 261.613 42.5L273.689 31.2078ZM273.689 31.2078C273.765 31.1937 273.85 31.1638 273.946 31.1151C274.127 31.023 274.312 30.8827 274.51 30.718C275.669 29.7503 275.887 28.41 276.113 26.8362C276.117 26.8055 276.122 26.7747 276.126 26.7438C276.34 25.248 276.583 23.5415 278.009 22.2851C278.421 21.9216 279.035 21.6446 279.705 21.4243C280.388 21.1999 281.183 21.0175 282.001 20.8688C283.639 20.5712 285.414 20.4004 286.656 20.3055L286.657 20.3055C286.926 20.2851 287.158 20.264 287.36 20.2454L287.42 20.2398C287.595 20.2236 287.751 20.2092 287.885 20.1997C288.031 20.1894 288.171 20.1833 288.295 20.1905C288.414 20.1974 288.569 20.2184 288.714 20.2982C288.884 20.3913 288.993 20.5369 289.048 20.7016C289.095 20.842 289.098 20.9845 289.095 21.0921C289.092 21.2097 289.075 21.3745 289.056 21.5553C289.044 21.6739 289.031 21.7993 289.021 21.9229L289.021 21.927C289.019 21.9466 289.018 21.9651 289.018 21.9825C289.04 21.9746 289.065 21.9651 289.091 21.9542L289.092 21.9539C292.058 20.7291 294.007 19.0866 294.467 16.0773C294.804 13.8646 294.1 11.5168 292.68 9.75621L273.689 31.2078ZM283.987 6.37873L283.986 6.3789C282.973 6.60754 282.063 7.07 281.165 7.63648C280.716 7.91995 280.275 8.22558 279.825 8.53904C279.8 8.55627 279.776 8.57353 279.751 8.5908C279.328 8.88579 278.896 9.18696 278.454 9.47112C277.21 10.273 276.105 10.7674 274.933 10.9315C273.759 11.0957 272.567 10.9219 271.159 10.4709L271.158 10.4706C268.299 9.5488 265.169 9.32197 262.43 10.3565C260.113 11.2335 258.184 13.1289 257.438 15.4837L257.437 15.4839C256.97 16.9569 257.124 18.4435 257.395 20.0283C257.438 20.2822 257.485 20.5395 257.533 20.7999C257.774 22.1306 258.03 23.5389 257.929 24.9522L283.987 6.37873ZM283.987 6.37873C287.065 5.67904 290.705 7.31066 292.68 9.75607L283.987 6.37873ZM256.76 32.9352L256.76 32.9352C256.859 34.4741 257.211 36.7712 257.998 38.7435C258.796 40.7444 259.968 42.2376 261.613 42.5L256.76 32.9352ZM256.76 32.9352C256.675 31.6194 256.905 30.3471 257.194 29.0286M256.76 32.9352L257.194 29.0286M257.194 29.0286C257.24 28.8211 257.287 28.6119 257.335 28.4011M257.194 29.0286L257.335 28.4011M257.335 28.4011C257.585 27.2914 257.845 26.1373 257.929 24.9525L257.335 28.4011Z" fill="#001081" stroke="#001081"/>
<path d="M282.273 48.9397C282.273 48.9397 273.569 47.1941 273.011 50.0082C272.459 52.8222 279.998 57.1837 279.998 57.1837C279.998 57.1837 279.883 50.6714 280.178 50.0358C280.472 49.4002 282.273 48.9397 282.273 48.9397Z" fill="#BDC7D6"/>
<path d="M257.739 55.4888C257.739 55.4888 218.914 51.7352 210.15 106.689C201.385 161.643 182.645 213.732 194.638 218.384C206.631 223.036 299.291 228.139 305.098 220.272C310.906 212.41 305.26 96.718 301.174 82.1367C300.663 80.3129 299.982 78.5582 299.18 76.8818C293.506 65.0224 281.757 57.2435 268.641 56.2856L257.744 55.4888H257.739Z" fill="#001081"/>
<path d="M280.247 116.43C280.993 116.531 281.684 116.283 282.259 115.808C282.78 115.375 283.176 114.629 283.102 113.943C283.056 113.492 282.89 113.105 282.577 112.773C282.379 112.561 282.121 112.391 281.863 112.262C281.237 111.949 280.486 111.626 279.781 111.847C279.376 111.972 279.003 112.234 278.791 112.607C278.713 112.75 278.662 112.898 278.639 113.049C278.593 113.114 278.552 113.183 278.519 113.257C278.197 113.925 278.179 114.698 278.584 115.343C278.952 115.933 279.56 116.342 280.251 116.435L280.247 116.43ZM280.353 114.376C280.325 114.339 280.293 114.298 280.265 114.261C280.265 114.256 280.26 114.247 280.256 114.242C280.283 114.288 280.32 114.334 280.353 114.381V114.376Z" fill="#1FED93"/>
<path d="M282.13 141.604C281.932 141.392 281.675 141.222 281.417 141.093C280.79 140.78 280.04 140.457 279.335 140.678C278.93 140.803 278.557 141.065 278.345 141.438C278.266 141.581 278.216 141.729 278.193 141.881C278.147 141.945 278.105 142.014 278.073 142.088C277.751 142.756 277.732 143.529 278.137 144.174C278.506 144.764 279.114 145.174 279.805 145.266C280.551 145.367 281.242 145.118 281.817 144.644C282.338 144.211 282.734 143.465 282.66 142.779C282.614 142.327 282.448 141.94 282.135 141.609L282.13 141.604ZM279.818 143.096C279.818 143.096 279.814 143.083 279.809 143.078C279.837 143.124 279.874 143.17 279.906 143.216C279.878 143.179 279.846 143.138 279.818 143.101V143.096Z" fill="#1FED93"/>
<path d="M281.679 170.435C281.481 170.223 281.223 170.053 280.965 169.924C280.339 169.611 279.588 169.288 278.883 169.509C278.478 169.634 278.105 169.896 277.893 170.269C277.815 170.412 277.764 170.559 277.741 170.711C277.695 170.776 277.654 170.845 277.622 170.919C277.299 171.586 277.281 172.36 277.686 173.005C278.054 173.594 278.662 174.004 279.353 174.096C280.099 174.198 280.79 173.949 281.366 173.475C281.886 173.042 282.282 172.296 282.209 171.609C282.163 171.158 281.997 170.771 281.684 170.44L281.679 170.435ZM279.367 171.927C279.367 171.927 279.362 171.913 279.358 171.909C279.385 171.955 279.422 172.001 279.455 172.047C279.427 172.01 279.395 171.969 279.367 171.932V171.927Z" fill="#1FED93"/>
<path d="M281.232 199.271C281.034 199.059 280.776 198.888 280.518 198.759C279.892 198.446 279.141 198.124 278.437 198.345C278.031 198.469 277.658 198.732 277.446 199.105C277.368 199.248 277.318 199.395 277.295 199.547C277.248 199.612 277.207 199.681 277.175 199.754C276.852 200.422 276.834 201.196 277.239 201.841C277.608 202.43 278.216 202.84 278.906 202.932C279.653 203.033 280.343 202.785 280.919 202.31C281.44 201.877 281.836 201.131 281.762 200.445C281.716 199.994 281.55 199.607 281.237 199.275L281.232 199.271ZM278.92 200.763C278.92 200.763 278.916 200.749 278.911 200.745C278.939 200.791 278.976 200.837 279.008 200.883C278.98 200.846 278.948 200.804 278.92 200.768V200.763Z" fill="#1FED93"/>
<path d="M231.027 64.6538C230.852 63.7051 187.145 103.645 183.529 107.633C169.74 122.841 158.047 140.577 154.16 161.044C152.377 170.421 153.05 260.35 162.74 259.811C167.944 259.521 187.394 258.646 186.109 256.606C184.589 254.183 185.565 247.993 185.519 245.303C185.372 236.977 185.404 228.645 185.496 220.318C185.657 205.852 185.643 191.358 186.91 176.933C187.467 170.573 187.564 163.812 190.99 158.23C194.136 153.109 198.981 149.305 203.37 145.312C210.237 139.071 217.187 132.922 224.114 126.746C230.82 120.768 237.539 114.799 244.111 108.674C247.4 105.611 252.664 101.959 254.718 97.8233C254.81 97.6391 255.077 97.2936 254.934 97.0726C253.253 94.5073 231.041 64.6815 231.036 64.6446L231.027 64.6538Z" fill="#001081"/>
<path d="M203.361 145.316C208.137 140.384 212.964 135.502 217.841 130.675C221.106 127.442 224.386 124.213 227.794 121.132C228.858 120.17 229.926 119.143 231.105 118.327C231.897 117.779 232.496 117.185 232.57 118.59C232.611 119.313 232.031 120.073 231.63 120.616C227.296 126.544 222.87 132.365 219.292 138.79C212.01 151.856 207.944 166.318 206.028 181.092C204.678 191.487 204.208 202.471 206.866 212.714C207.059 213.456 209.054 221.202 210.302 221.133C210.302 221.133 190.917 222.211 190.207 212.756C189.498 203.3 200.285 150.502 203.366 145.316H203.361Z" fill="#0000FF"/>
<path d="M260.467 57.1985C260.269 56.7444 260.106 56.3673 259.981 56.0779C270.165 55.8403 277.5 58.0845 282.304 60.402C284.765 61.589 286.564 62.7965 287.745 63.7031C288.335 64.1564 288.77 64.5344 289.056 64.7969C289.157 64.8899 289.24 64.9684 289.304 65.0306L289.293 65.1023C289.261 65.3111 289.214 65.6177 289.154 66.0084C289.032 66.79 288.856 67.9082 288.637 69.2541C288.199 71.9462 287.588 75.5477 286.898 79.1876C286.207 82.8297 285.438 86.5009 284.685 89.3361C284.308 90.7556 283.939 91.9514 283.589 92.8251C283.414 93.2628 283.25 93.605 283.1 93.8495C282.939 94.1097 282.835 94.1921 282.807 94.2066C282.353 94.431 281.652 94.2906 280.609 93.4372C279.602 92.6136 278.447 91.258 277.199 89.5076C274.71 86.0151 271.935 81.0672 269.336 76.0058C266.74 70.9491 264.329 65.7984 262.566 61.9105C261.685 59.9669 260.966 58.3396 260.467 57.1985Z" fill="white" stroke="#001081"/>
<path d="M270.57 56.2763C270.253 56.2349 274.591 60.9971 274.508 61.6234C274.43 62.2498 275.411 87.3272 276.977 90.0583C278.543 92.7894 281.495 95.6725 283.019 94.6501C284.544 93.6277 285.589 87.995 285.778 87.0739C285.967 86.1528 276.802 62.3419 276.986 61.6142C277.17 60.8865 277.976 58.183 277.976 58.183C277.976 58.183 274.126 56.7323 270.566 56.2717L270.57 56.2763Z" fill="#1FED93"/>
<path d="M436.945 171.987C437.504 170.752 437.964 169.686 438.215 168.999C438.234 169.004 438.253 169.01 438.273 169.016C438.606 169.117 439.083 169.263 439.656 169.446C440.803 169.812 442.333 170.323 443.871 170.904C445.413 171.487 446.946 172.134 448.107 172.769C448.688 173.088 449.158 173.394 449.485 173.676C449.831 173.975 449.933 174.176 449.947 174.271C450.012 174.74 449.925 175.077 449.779 175.328C449.629 175.587 449.395 175.791 449.112 175.95C448.552 176.266 447.894 176.354 447.677 176.359C447.669 176.358 447.655 176.354 447.633 176.349C447.58 176.334 447.506 176.311 447.411 176.279C447.221 176.215 446.97 176.121 446.675 176.006C446.208 175.824 445.647 175.596 445.065 175.36C444.912 175.297 444.757 175.234 444.602 175.171C443.864 174.872 443.127 174.577 442.558 174.369C442.275 174.266 442.022 174.181 441.827 174.128C441.732 174.102 441.633 174.079 441.543 174.068C441.499 174.063 441.437 174.058 441.368 174.065C441.318 174.07 441.164 174.09 441.033 174.218C440.974 174.276 440.529 174.775 439.874 175.512C439.719 175.686 439.553 175.872 439.377 176.07C438.442 177.12 437.211 178.499 435.975 179.87C434.737 181.242 433.495 182.605 432.535 183.623C432.054 184.133 431.649 184.552 431.351 184.841C431.214 184.975 431.105 185.076 431.026 185.144C431.002 185.137 430.975 185.127 430.945 185.116C430.854 185.079 430.767 185.028 430.704 184.976C430.686 184.961 430.672 184.949 430.662 184.938C430.697 184.879 430.737 184.804 430.778 184.728C430.846 184.599 430.937 184.424 431.046 184.212C431.264 183.787 431.559 183.203 431.904 182.51C432.595 181.123 433.493 179.294 434.399 177.411C435.304 175.529 436.22 173.591 436.945 171.987Z" fill="white" stroke="#001081"/>
<path d="M179.429 276.24L179.428 276.24C178.085 276.409 174.413 276.442 170.945 276.211C169.214 276.096 167.558 275.917 166.284 275.662C165.646 275.534 165.122 275.391 164.74 275.236C164.327 275.068 164.188 274.929 164.162 274.88C164.095 274.755 164.014 274.442 163.952 273.905C163.892 273.393 163.855 272.742 163.839 271.997C163.807 270.508 163.857 268.675 163.958 266.887C164.059 265.099 164.211 263.366 164.379 262.077C164.464 261.43 164.551 260.907 164.635 260.549C164.662 260.435 164.687 260.345 164.709 260.278C164.728 260.275 164.749 260.273 164.771 260.271C164.924 260.254 165.129 260.234 165.38 260.21C165.881 260.162 166.561 260.101 167.359 260.031C168.953 259.891 171.015 259.716 173.055 259.545C175.095 259.374 177.114 259.207 178.622 259.083C179.377 259.021 180.003 258.969 180.441 258.933L180.916 258.894C180.939 258.915 180.965 258.939 180.993 258.964C181.144 259.099 181.359 259.295 181.616 259.534C182.13 260.012 182.811 260.663 183.479 261.355C184.15 262.05 184.797 262.774 185.252 263.401C185.48 263.716 185.648 263.99 185.747 264.213C185.797 264.324 185.824 264.411 185.837 264.475C185.848 264.534 185.844 264.558 185.844 264.559C185.678 265.217 184.678 268.111 183.37 270.887C182.716 272.274 181.996 273.609 181.277 274.611C180.918 275.112 180.569 275.515 180.242 275.798C179.909 276.085 179.637 276.214 179.429 276.24Z" fill="white" stroke="#001081"/>
<path d="M777.91 136.293C781.806 136.293 787.724 137.748 790.345 134.713C795.798 128.399 793.306 111.649 792.988 104.091C792.477 91.9044 792.938 79.6121 792.938 67.4165C792.938 54.5163 782.478 44.0616 769.583 44.0616H693.876V30.5258C693.876 14.5259 680.902 1.552 664.902 1.552H647.051C631.051 1.552 618.077 14.5259 618.077 30.5258V44.0616H542.371C529.475 44.0616 519.02 54.5117 519.016 67.4027C519.006 82.6933 518.85 97.9838 518.974 113.279C519.117 130.504 515.948 136.293 534.044 136.293C550.043 136.293 563.017 149.267 563.017 165.267V183.118C563.017 199.118 550.043 212.092 534.044 212.092C530.451 212.092 521.797 210.457 519.31 213.202C513.903 219.171 518.771 236.667 519.025 244.036C519.449 256.31 519.016 268.681 519.016 280.964C519.016 293.864 529.475 304.319 542.371 304.319H618.077V318.412C618.077 334.412 631.051 347.386 647.051 347.386H664.902C680.902 347.386 693.876 334.412 693.876 318.412V304.319H769.583C782.469 304.319 792.919 293.883 792.938 280.996C792.961 264.209 792.947 247.426 792.942 230.639C792.942 214.21 794.066 212.083 777.91 212.083C761.753 212.083 748.936 199.109 748.936 183.109V165.258C748.936 149.258 761.91 136.284 777.91 136.284V136.293Z" fill="url(#paint1_linear_1167_77871)"/>
<path d="M764.382 136.602C769.342 136.248 775.744 136.768 778.525 131.72C779.866 129.284 780.156 126.419 780.289 123.642C780.75 114.348 779.313 105.192 779.216 95.9534C779.115 86.3231 779.373 76.6928 779.373 67.0625C779.373 54.1623 768.914 43.7076 756.009 43.7076C743.104 43.7076 730.406 43.7122 717.607 43.7951C711.206 43.8365 704.808 43.901 698.407 43.9885C694.022 44.053 685.668 45.7386 681.992 42.5101C679.551 40.3685 680.081 36.5367 680.32 33.299C681.564 16.3826 668.576 1.198 651.347 1.1934C642.942 1.1934 634.251 0.249249 626.025 2.49678C613.153 6.01545 603.858 18.3078 604.443 31.7561C604.568 34.5701 605.079 37.4762 604.19 40.1475C602.131 46.3097 594.44 43.703 589.692 43.7076C581.167 43.7076 572.642 43.7076 564.117 43.7076H528.806C515.91 43.7076 505.455 54.1577 505.451 67.0487C505.442 82.3393 505.285 97.6298 505.409 112.925C505.552 130.15 502.384 135.939 520.479 135.939C536.479 135.939 549.453 148.913 549.453 164.913V182.764C549.453 198.764 536.479 211.738 520.479 211.738C516.887 211.738 508.233 210.103 505.746 212.848C500.339 218.817 505.207 236.313 505.46 243.682C505.884 255.956 505.451 268.327 505.451 280.61C505.451 293.51 515.91 303.965 528.806 303.965H580.946C587.067 303.965 602.868 299.53 604.968 307.866C605.636 310.519 605.01 313.3 604.77 316.027C604.093 323.773 606.765 331.755 611.964 337.53C622.249 348.952 637.489 347.032 651.338 347.032C661.332 347.032 670.119 341.772 675.167 333.15C678.805 326.937 680.293 319.628 680.261 312.43C680.251 310.583 680.169 308.63 681.062 307.009C682.439 304.504 685.658 303.67 688.514 303.707C701.46 303.863 714.443 303.744 727.417 303.808C740.142 303.873 756.792 307.216 768.204 300.262C777.65 294.505 779.414 284.018 779.414 273.794C779.414 263.629 779.414 253.46 779.414 243.295C779.414 235.286 781.685 223.593 778.548 216.09C776.407 210.969 768.927 211.858 764.34 211.65C755.746 211.264 747.894 208.012 742.192 201.408C736.223 194.49 735.357 185.564 735.104 176.777C734.947 171.388 734.883 165.963 735.832 160.657C736.937 154.472 739.562 148.42 744.311 144.16C749.8 139.237 757.156 137.118 764.382 136.602Z" fill="white"/>
<path d="M452.431 93.4923L452.302 93.7656C452.158 94.0692 451.952 94.5035 451.705 95.026C451.211 96.0712 450.549 97.4698 449.883 98.8834C449.217 100.297 448.545 101.726 448.028 102.832C447.77 103.384 447.551 103.857 447.39 104.207C447.337 104.325 447.288 104.432 447.245 104.526C447.241 104.524 447.237 104.523 447.232 104.522C446.971 104.441 446.589 104.296 446.114 104.097C445.167 103.701 443.898 103.114 442.581 102.475C439.929 101.189 437.16 99.7326 436.438 99.2243C436.135 99.0109 435.698 98.5085 435.141 97.7274C434.597 96.9638 433.976 95.9885 433.301 94.8859C432.772 94.0197 432.207 93.0718 431.624 92.0928C430.734 90.5985 429.801 89.0317 428.882 87.5719C427.514 85.3988 428.164 83.06 429.472 81.0037C430.764 78.9739 432.619 77.3561 433.418 76.7324C433.425 76.7327 433.434 76.7336 433.447 76.7355C433.522 76.7469 433.645 76.7883 433.825 76.8872C434.182 77.084 434.644 77.4426 435.189 77.938C436.272 78.9227 437.585 80.3592 438.879 81.8444C439.667 82.7486 440.436 83.6566 441.138 84.486C441.593 85.0225 442.019 85.5262 442.405 85.9747C442.891 86.5393 443.312 87.0168 443.632 87.3465C443.79 87.5093 443.936 87.6497 444.06 87.7481C444.119 87.7955 444.195 87.8499 444.277 87.8897C444.319 87.9097 444.381 87.9357 444.458 87.9482C444.536 87.9606 444.661 87.9647 444.793 87.8986C445.046 87.7723 445.109 87.5232 445.128 87.4268C445.152 87.303 445.152 87.1697 445.145 87.0501C445.131 86.8049 445.077 86.4935 445.005 86.1536C444.859 85.4676 444.616 84.576 444.362 83.6758C444.295 83.4363 444.227 83.1961 444.159 82.9583C443.971 82.2943 443.788 81.6485 443.64 81.0867C443.54 80.7058 443.458 80.3716 443.404 80.1031C443.346 79.8185 443.329 79.6558 443.333 79.5924C443.349 79.2745 443.554 78.9528 443.991 78.6721C444.408 78.4054 444.981 78.2154 445.603 78.1438C445.61 78.1495 445.618 78.1562 445.627 78.164C445.708 78.2371 445.819 78.3671 445.96 78.5666C446.237 78.9619 446.572 79.5509 446.946 80.2853C447.691 81.7489 448.557 83.7226 449.382 85.7121C450.206 87.699 450.986 89.6913 451.56 91.1876C451.847 91.9356 452.082 92.5592 452.246 92.9956C452.325 93.2079 452.388 93.3758 452.431 93.4923ZM445.565 78.1164C445.565 78.1163 445.567 78.1172 445.571 78.1197C445.567 78.1179 445.565 78.1166 445.565 78.1164ZM433.404 76.7327C433.404 76.7327 433.404 76.7326 433.405 76.7325L433.404 76.7327ZM447.481 104.583C447.484 104.583 447.485 104.584 447.485 104.584L447.481 104.583Z" fill="white" stroke="#001081"/>
<path d="M445.311 171.111L445.311 171.11C445.365 171.012 445.562 170.837 446.028 170.635C446.467 170.446 447.056 170.269 447.758 170.108C449.16 169.786 450.939 169.541 452.699 169.358C454.456 169.176 456.179 169.056 457.465 168.982C458.107 168.945 458.64 168.92 459.011 168.904C459.052 168.902 459.09 168.9 459.127 168.899L459.139 169.008L459.302 170.53C459.438 171.796 459.621 173.496 459.81 175.237C460.168 178.549 460.547 182.018 460.654 182.89C460.649 182.896 460.644 182.902 460.639 182.908C460.564 182.993 460.432 183.112 460.231 183.264C459.833 183.564 459.236 183.94 458.483 184.369C456.98 185.225 454.911 186.261 452.701 187.283C450.493 188.303 448.154 189.305 446.117 190.093C444.066 190.887 442.361 191.447 441.402 191.606L441.401 191.607C439.512 191.923 437.448 191.375 435.573 190.466C433.705 189.559 432.084 188.321 431.106 187.343C431.088 187.324 430.983 187.187 431.194 186.659C431.388 186.174 431.78 185.544 432.343 184.797C433.462 183.311 435.165 181.481 436.985 179.633C438.26 178.338 439.581 177.045 440.789 175.864C441.303 175.361 441.796 174.879 442.257 174.425C443.025 173.667 443.702 172.988 444.224 172.433C444.729 171.896 445.134 171.429 445.311 171.111Z" fill="white" stroke="#001081"/>
<path d="M688.753 303.969C689.509 302.173 662.018 209.868 661.009 207.597C660.001 205.327 558.613 217.182 558.613 217.182C558.613 217.182 558.613 303.969 563.403 303.969C568.193 303.969 603.241 304.002 604.508 303.969C605.775 303.937 607.009 241.393 609.04 242.904C610.205 243.774 628.752 276.815 644.646 304.536L688.749 303.969H688.753Z" fill="#001081"/>
<path d="M558.421 78.506L558.483 77.4771L454.389 88.1273C454.389 88.1272 454.391 88.1271 454.394 88.1271M558.421 78.506C558.34 78.6324 558.255 78.7656 558.166 78.9052C557.341 80.1958 556.155 82.0396 554.711 84.253C551.822 88.6795 547.899 94.5857 543.763 100.502C539.628 106.417 535.274 112.351 531.524 116.828C529.65 119.065 527.917 120.951 526.431 122.291C525.688 122.961 524.995 123.504 524.369 123.888C523.753 124.265 523.151 124.518 522.601 124.542C522.081 124.565 521.378 124.409 520.563 124.146C519.731 123.877 518.726 123.479 517.58 122.973C515.285 121.961 512.388 120.504 509.106 118.757C502.542 115.262 494.409 110.59 486.428 105.949C484.217 104.663 482.018 103.38 479.867 102.125C474.25 98.8477 468.959 95.7612 464.641 93.3191C461.654 91.6301 459.14 90.2543 457.309 89.3384C456.391 88.8796 455.657 88.5422 455.125 88.3386C454.857 88.2362 454.657 88.1739 454.519 88.1448C454.485 88.1376 454.458 88.1332 454.438 88.1306M558.421 78.506L554.082 150.085M558.421 78.506L554.082 150.085M454.438 88.1306C454.461 88.1135 454.48 88.1012 454.495 88.0929C454.445 88.1199 454.406 88.1259 454.394 88.1271M454.438 88.1306C454.371 88.1799 454.273 88.2691 454.14 88.4154C453.97 88.6036 453.771 88.8569 453.545 89.1718C453.095 89.8009 452.562 90.6473 451.978 91.6456C450.811 93.6404 449.462 96.2109 448.201 98.7921C446.941 101.373 445.775 103.956 444.975 105.973C444.575 106.983 444.27 107.841 444.09 108.481C444 108.803 443.946 109.055 443.924 109.236C443.916 109.302 443.913 109.352 443.913 109.387M454.438 88.1306C454.417 88.1279 454.403 88.1271 454.395 88.1271C454.395 88.1271 454.394 88.1271 454.394 88.1271M454.394 88.1271L443.913 109.387M443.913 109.387C443.902 109.378 443.892 109.369 443.884 109.361C443.869 109.348 443.861 109.34 443.858 109.337M443.913 109.387L443.858 109.337M443.913 109.387C443.945 109.415 443.988 109.45 444.044 109.494C444.193 109.61 444.409 109.767 444.691 109.965C445.255 110.359 446.065 110.9 447.09 111.569C449.14 112.906 452.039 114.744 455.531 116.913C462.514 121.25 471.858 126.91 481.497 132.538C491.137 138.168 501.066 143.763 509.219 147.975C513.297 150.081 516.923 151.837 519.844 153.078C521.305 153.699 522.583 154.187 523.648 154.526C524.722 154.868 525.548 155.047 526.117 155.068C531.148 155.261 538.207 154 544.046 152.676C546.957 152.015 549.551 151.343 551.417 150.835C552.35 150.581 553.101 150.369 553.618 150.22C553.804 150.166 553.959 150.121 554.082 150.085M443.913 109.387L554.061 150.435L554.082 150.085M443.913 109.387C443.913 109.401 443.913 109.413 443.914 109.422C443.915 109.432 443.916 109.438 443.916 109.441M443.913 109.387L443.916 109.441M443.858 109.337C443.857 109.336 443.857 109.335 443.857 109.335C443.856 109.335 443.857 109.336 443.858 109.337ZM443.916 109.441C443.916 109.443 443.917 109.444 443.917 109.444C443.917 109.443 443.916 109.443 443.916 109.441Z" fill="white" stroke="#001081"/>
<path d="M569.876 40.6592C569.894 40.2275 569.814 39.7717 569.738 39.4412C569.698 39.2704 569.658 39.1245 569.627 39.0206C569.617 38.9851 569.607 38.9544 569.599 38.9291C569.593 38.8601 569.576 38.7878 569.542 38.7161C569.482 38.591 569.391 38.5069 569.307 38.453C569.158 38.3576 568.986 38.3296 568.878 38.3166C568.713 38.2968 568.491 38.2946 568.274 38.2925C568.197 38.2917 568.121 38.291 568.048 38.2895C567.421 38.2763 566.763 38.2093 566.267 37.8605C566.264 37.8526 566.255 37.8251 566.256 37.7666C566.258 37.6349 566.306 37.4299 566.425 37.1454C566.659 36.5825 567.098 35.8693 567.619 35.1087C568.007 34.542 568.425 33.9694 568.818 33.4324C568.949 33.2528 569.078 33.0773 569.201 32.9072C569.674 32.2544 570.107 31.6401 570.281 31.2429L570.281 31.2424C570.394 30.9852 570.445 30.594 570.475 30.1859C570.506 29.7537 570.516 29.222 570.512 28.6336C570.504 27.4555 570.437 26.0187 570.352 24.6312C570.267 23.2423 570.164 21.8965 570.082 20.8984C570.041 20.3992 570.005 19.9866 569.98 19.6987C569.97 19.5953 569.963 19.508 569.956 19.4385C570.313 18.9986 570.884 18.6327 571.673 18.3487C572.538 18.0368 573.623 17.8395 574.865 17.7393C577.347 17.5388 580.375 17.7322 583.35 18.0988C586.321 18.4647 589.217 19.0003 591.43 19.4746C592.536 19.7117 593.468 19.933 594.151 20.1094C594.493 20.1976 594.77 20.274 594.973 20.3349C595.048 20.3572 595.111 20.3769 595.163 20.394C595.181 20.462 595.201 20.5539 595.223 20.6727C595.286 21.0055 595.354 21.4919 595.426 22.1173C595.569 23.3649 595.723 25.1274 595.882 27.2368C596.201 31.4534 596.537 37.0336 596.845 42.6022C597.152 48.1699 597.43 53.723 597.631 57.8844C597.732 59.965 597.813 61.6976 597.869 62.91C597.895 63.4713 597.916 63.9211 597.931 64.2423L578.585 62.4896C578.593 62.1927 578.604 61.7682 578.618 61.2531C578.644 60.217 578.677 58.8141 578.705 57.3477C578.759 54.4349 578.792 51.2152 578.694 50.1688L578.694 50.1688L578.693 50.1629L578.692 50.1525C578.684 50.0716 578.671 49.953 578.639 49.8294C578.37 48.7433 577.438 48.3443 576.592 48.2102C575.842 48.0915 575.011 48.1526 574.428 48.1955C574.354 48.2009 574.285 48.206 574.22 48.2104C574.034 48.2229 573.807 48.2482 573.568 48.2749C573.524 48.2799 573.479 48.2849 573.435 48.2898C573.141 48.3224 572.823 48.3554 572.5 48.3748C571.838 48.4144 571.22 48.391 570.777 48.23C570.539 48.1435 570.401 47.9974 570.234 47.646L570.129 47.3909C570.13 47.3929 570.13 47.3928 570.129 47.39C570.127 47.3826 570.12 47.3561 570.109 47.3015C570.097 47.2341 570.084 47.1448 570.072 47.0334C570.046 46.8109 570.024 46.5215 570.004 46.1847C569.964 45.5123 569.937 44.6739 569.918 43.8515C569.899 43.0301 569.888 42.2292 569.883 41.6332C569.88 41.3354 569.878 41.0889 569.878 40.9171L569.877 40.7181L569.876 40.666L569.876 40.6592Z" fill="white" stroke="#001081"/>
<path d="M579.873 22.3882C582.466 24.6726 580.725 28.615 583.382 30.8303C583.783 31.1665 584.262 31.5165 584.782 31.4336C585.316 30.8026 585.459 30.0427 585.713 29.2598C586.086 28.1084 587.103 27.2103 588.278 26.9201C589.452 26.63 590.742 26.9385 591.7 27.6754C592.124 28.0024 592.497 28.4169 592.69 28.9189C592.851 29.3334 592.883 29.7894 592.851 30.2361C592.699 32.4008 590.862 34.395 588.72 34.7312C588.771 36.5044 591.727 40.0645 593.058 41.2435C594.104 42.1692 595.214 42.9568 596.692 42.7173C600.533 42.1047 601.763 35.8319 601.966 32.6909C602.237 28.4538 603.697 24.5068 604.066 20.2789C604.176 19.0077 604.255 17.7135 603.997 16.4608C603.734 15.2127 603.094 13.9922 602.026 13.2922C601.39 12.8731 600.644 12.6612 599.958 12.3342C597.351 11.0815 595.592 8.13392 592.731 7.701C590.466 7.36018 588.347 8.73265 586.15 9.38664C584.464 9.88865 582.659 9.96695 580.937 9.60771C578.74 9.15176 576.57 8.00497 574.369 8.4425C572.587 8.79713 571.173 10.1374 570.031 11.5467C569.791 11.8414 569.552 12.1454 569.234 12.348C567.981 13.1402 566.318 12.0026 564.877 12.348C563.624 12.6474 562.887 14.0337 562.901 15.3232C562.915 16.6128 563.504 17.8103 564.099 18.9525C563.606 19.6064 563.09 20.3203 563.048 21.1401C562.989 22.4527 564.237 23.5304 565.535 23.7561C566.83 23.9818 568.147 23.5765 569.4 23.1758C570.648 24.5344 572.688 24.9305 574.512 24.6357C576.336 24.341 578.265 23.2771 579.891 22.3974L579.873 22.3882Z" fill="#001081"/>
<path d="M575.935 48.6677C575.935 48.6677 584.639 46.9222 585.197 49.7362C585.749 52.5502 578.21 56.9117 578.21 56.9117C578.21 56.9117 578.325 50.3994 578.03 49.7638C577.736 49.1283 575.935 48.6677 575.935 48.6677Z" fill="#BDC7D6"/>
<path d="M589.604 56.5123L600.483 55.7168H600.493L600.517 55.7145L600.517 55.7145L600.517 55.7145L600.521 55.7141L600.54 55.7125C600.556 55.7111 600.582 55.7089 600.617 55.7064C600.687 55.7012 600.792 55.6943 600.932 55.6875C601.21 55.6738 601.622 55.6606 602.152 55.6629C603.212 55.6675 604.741 55.7344 606.606 55.9845C610.335 56.485 615.401 57.7179 620.736 60.6476C631.384 66.4938 643.203 79.1491 647.565 106.496C650.61 125.588 654.86 144.347 658.606 160.875C660.253 168.146 661.803 174.985 663.109 181.23C665.25 191.467 666.733 200.093 666.939 206.441C667.042 209.617 666.823 212.183 666.229 214.082C665.638 215.973 664.697 217.138 663.389 217.646C661.947 218.205 659.238 218.787 655.542 219.357C651.862 219.924 647.246 220.474 642.02 220.978C631.567 221.986 618.689 222.814 606.003 223.251C593.315 223.687 580.831 223.733 571.161 223.179C566.325 222.902 562.207 222.475 559.127 221.878C557.586 221.578 556.319 221.239 555.358 220.861C554.381 220.477 553.789 220.078 553.512 219.703L553.512 219.703C553.218 219.306 552.917 218.488 552.641 217.208C552.369 215.951 552.137 214.319 551.941 212.356C551.549 208.431 551.31 203.226 551.198 197.141C550.975 184.975 551.263 169.331 551.861 153.471C552.459 137.612 553.366 121.545 554.379 108.533C554.885 102.027 555.418 96.2878 555.951 91.7222C556.485 87.1447 557.016 83.7794 557.515 81.9997C558.018 80.2068 558.688 78.4791 559.479 76.8256C565.073 65.1334 576.66 57.4576 589.604 56.5123L589.604 56.5123Z" fill="white" stroke="#001081"/>
<path d="M579.633 115.066C580.038 114.422 580.025 113.648 579.698 112.98C579.661 112.906 579.619 112.842 579.578 112.773C579.55 112.626 579.504 112.474 579.426 112.331C579.214 111.953 578.846 111.695 578.436 111.571C577.726 111.354 576.976 111.677 576.354 111.985C576.096 112.114 575.838 112.285 575.64 112.497C575.327 112.828 575.161 113.215 575.115 113.666C575.041 114.353 575.437 115.103 575.958 115.532C576.534 116.006 577.224 116.255 577.97 116.153C578.661 116.061 579.269 115.647 579.638 115.062L579.633 115.066ZM577.957 113.97C577.957 113.97 577.952 113.984 577.947 113.989C577.92 114.026 577.888 114.067 577.86 114.104C577.897 114.058 577.929 114.012 577.957 113.966V113.97Z" fill="#001081"/>
<path d="M575.553 142.502C575.479 143.188 575.875 143.939 576.395 144.367C576.971 144.842 577.662 145.09 578.408 144.989C579.099 144.897 579.707 144.482 580.075 143.898C580.481 143.253 580.467 142.479 580.14 141.811C580.103 141.737 580.061 141.673 580.02 141.604C579.992 141.457 579.946 141.305 579.868 141.162C579.656 140.784 579.288 140.526 578.878 140.402C578.169 140.185 577.418 140.508 576.796 140.816C576.538 140.945 576.28 141.116 576.082 141.328C575.769 141.659 575.603 142.046 575.557 142.497L575.553 142.502ZM578.302 142.94C578.339 142.894 578.371 142.847 578.399 142.801C578.399 142.806 578.394 142.815 578.39 142.82C578.362 142.857 578.33 142.898 578.302 142.935V142.94Z" fill="#001081"/>
<path d="M575.999 171.337C575.926 172.024 576.322 172.774 576.842 173.203C577.418 173.677 578.109 173.926 578.855 173.824C579.546 173.732 580.154 173.318 580.522 172.733C580.927 172.088 580.914 171.314 580.587 170.647C580.55 170.573 580.508 170.508 580.467 170.439C580.439 170.292 580.393 170.14 580.315 169.997C580.103 169.62 579.734 169.362 579.325 169.237C578.615 169.021 577.865 169.343 577.243 169.652C576.985 169.781 576.727 169.951 576.529 170.163C576.216 170.495 576.05 170.882 576.004 171.333L575.999 171.337ZM578.749 171.775C578.786 171.729 578.818 171.683 578.846 171.637C578.846 171.641 578.841 171.651 578.836 171.655C578.809 171.692 578.777 171.734 578.749 171.77V171.775Z" fill="#001081"/>
<path d="M576.446 200.169C576.372 200.855 576.768 201.605 577.289 202.034C577.865 202.508 578.555 202.757 579.302 202.656C579.992 202.563 580.6 202.149 580.969 201.564C581.374 200.919 581.36 200.145 581.033 199.478C580.996 199.404 580.955 199.34 580.913 199.27C580.886 199.123 580.84 198.971 580.762 198.828C580.55 198.451 580.181 198.193 579.771 198.068C579.062 197.852 578.311 198.174 577.69 198.483C577.432 198.612 577.174 198.782 576.976 198.994C576.663 199.326 576.497 199.713 576.451 200.164L576.446 200.169ZM579.196 200.606C579.232 200.56 579.265 200.514 579.292 200.468C579.292 200.472 579.288 200.482 579.283 200.486C579.255 200.523 579.223 200.565 579.196 200.601V200.606Z" fill="#001081"/>
<path d="M640.99 83.8341C640.976 83.8042 640.961 83.7724 640.945 83.7384C640.822 83.4791 640.639 83.1005 640.4 82.6246C639.923 81.6726 639.219 80.3315 638.312 78.7783C636.497 75.6681 633.877 71.7228 630.639 68.346C624.972 62.4361 616.86 58.6336 615.367 57.9874C614.674 57.911 613.82 58.1853 612.844 58.7725C611.851 59.3695 610.804 60.2466 609.786 61.2342C607.843 63.1175 606.065 65.3423 605.034 66.6325C604.985 66.6947 604.937 66.7548 604.89 66.8125C601.675 70.8321 599.212 74.6569 596.932 78.1979C596.744 78.4901 596.557 78.7804 596.371 79.0688L596.371 79.0689C591.853 86.0676 587.49 93.1657 583.123 100.269C582.783 100.822 582.444 101.374 582.104 101.926C581.079 103.594 580.054 105.263 579.03 106.932C575.201 113.17 571.37 119.412 567.474 125.612C566.94 126.463 566.412 127.329 565.88 128.201C563.296 132.436 560.626 136.811 556.846 140.177L556.845 140.177C552.472 144.068 546.73 145.56 541.279 146.977C540.495 147.181 539.716 147.383 538.949 147.59C526.622 150.925 514.069 153.294 501.55 155.657C499.85 155.978 498.151 156.298 496.453 156.621C488.271 158.178 480.068 159.672 471.84 160.995M640.99 83.8341L460.622 162.402M640.99 83.8341C640.943 83.8974 640.892 83.9697 640.837 84.049C640.606 84.3807 640.27 84.8896 639.847 85.5473C639 86.8649 637.788 88.8002 636.325 91.1586C633.661 95.4506 630.163 101.152 626.512 107.102L625.422 108.877C621.383 115.459 617.242 122.201 613.906 127.563C610.559 132.942 608.043 136.897 607.239 137.936L607.239 137.936C594.721 154.149 579.389 168.702 560.047 176.084C558.973 176.494 556.649 177.096 553.363 177.819C550.091 178.539 545.899 179.371 541.111 180.245C531.536 181.992 519.591 183.904 507.889 185.408C496.183 186.912 484.735 188.007 476.149 188.126C471.851 188.185 468.298 187.999 465.796 187.509C464.543 187.263 463.588 186.947 462.942 186.57C462.297 186.194 462.029 185.802 461.982 185.416C461.904 184.772 461.794 183.935 461.666 182.962C461.277 179.997 460.722 175.766 460.38 171.866C460.152 169.274 460.02 166.852 460.09 165.061C460.125 164.161 460.21 163.451 460.347 162.966C460.415 162.723 460.488 162.567 460.552 162.476C460.59 162.424 460.614 162.407 460.622 162.402M640.99 83.8341L460.623 162.402M471.84 160.995L471.761 160.501L471.841 160.994C471.841 160.994 471.84 160.995 471.84 160.995ZM471.84 160.995C470.696 161.179 469.162 161.342 467.501 161.519C467.212 161.55 466.919 161.581 466.623 161.613C464.621 161.828 462.494 162.072 460.622 162.402M460.622 162.402C460.622 162.402 460.621 162.402 460.62 162.403L460.619 162.403C460.621 162.402 460.622 162.402 460.623 162.402M460.623 162.402C460.625 162.401 460.626 162.401 460.626 162.401C460.626 162.4 460.625 162.401 460.623 162.402Z" fill="white" stroke="#001081"/>
<path d="M568.92 64.8303L568.909 64.7586C568.973 64.6964 569.055 64.6179 569.157 64.5249C569.442 64.2624 569.878 63.8844 570.468 63.4311C571.648 62.5246 573.448 61.317 575.908 60.13C580.712 57.8126 588.047 55.5684 598.232 55.8059C598.107 56.0953 597.943 56.4724 597.745 56.9265C597.247 58.0676 596.528 59.6949 595.647 61.6385C593.884 65.5264 591.473 70.6772 588.876 75.7338C586.277 80.7952 583.502 85.7431 581.013 89.2357C579.766 90.986 578.61 92.3416 577.604 93.1652C576.561 94.0184 575.86 94.159 575.406 93.9348C575.378 93.9207 575.274 93.8387 575.113 93.5775C574.963 93.3331 574.798 92.9908 574.623 92.5531C574.274 91.6794 573.904 90.4836 573.527 89.0642C572.774 86.2289 572.006 82.5578 571.315 78.9156C570.625 75.2757 570.014 71.6743 569.575 68.9821C569.356 67.6362 569.18 66.518 569.059 65.7365C568.998 65.3457 568.951 65.0391 568.92 64.8303Z" fill="white" stroke="#001081"/>
<path d="M587.638 56.0044C587.955 55.9629 583.617 60.7251 583.7 61.3514C583.778 61.9778 582.797 87.0552 581.231 89.7864C579.665 92.5175 576.713 95.4006 575.189 94.3781C573.66 93.3557 572.619 87.7231 572.43 86.8019C572.241 85.8808 581.406 62.0699 581.222 61.3422C581.033 60.6146 580.232 57.9111 580.232 57.9111C580.232 57.9111 584.082 56.4603 587.642 55.9998L587.638 56.0044Z" fill="#001081"/>
<path d="M572.96 40.3639C574.862 41.6075 575.714 44.007 575.81 46.2775C575.861 47.4335 575.594 48.8198 574.526 49.2619C574.194 49.4001 573.83 49.4231 573.471 49.4277C572.481 49.4462 571.486 49.3633 570.509 49.1744C569.897 49.0547 569.257 48.8751 568.819 48.4283C568.405 48 568.239 47.3875 568.188 46.7933C568.133 46.1946 568.179 45.5775 568.437 45.034C568.695 44.4905 569.183 44.0392 569.773 43.9333C570.187 43.8596 570.689 43.9241 570.961 43.6063C571.315 43.1872 570.915 42.524 570.408 42.3029C569.906 42.0818 569.321 42.091 568.838 41.8285C567.884 41.3081 567.778 39.6593 568.851 39.2586C569.957 38.8487 572.052 39.7698 572.955 40.3547L572.96 40.3639Z" fill="#001081"/>
<g style="mix-blend-mode:darken">
<path d="M550.691 178.895C550.691 178.895 575.875 173.788 591.755 156.015C607.635 138.242 633.638 97.3765 634.066 100.186C634.495 102.995 594.725 174.115 582.401 180.167C570.081 186.218 550.558 190.4 550.59 188.632C550.622 186.868 550.687 178.895 550.687 178.895H550.691Z" fill="#BDC7D6"/>
</g>
<path d="M551.774 142.939C551.774 142.939 559.092 138.186 564.914 128.805C570.74 119.423 589.512 91.4121 587.159 92.7431C584.805 94.0741 563.035 125.83 552.497 129.27L551.769 142.939H551.774Z" fill="#BDC7D6"/>
<defs>
<linearGradient id="paint0_linear_1167_77871" x1="180.744" y1="43.0823" x2="180.744" y2="304.967" gradientUnits="userSpaceOnUse">
<stop stop-color="#1FED93"/>
<stop offset="1" stop-color="#EAFFF6"/>
</linearGradient>
<linearGradient id="paint1_linear_1167_77871" x1="655.301" y1="1.552" x2="655.301" y2="347.386" gradientUnits="userSpaceOnUse">
<stop stop-color="#1FED93"/>
<stop offset="1" stop-color="#E3FFF3"/>
</linearGradient>
</defs>
</svg>
