<svg width="386" height="664" viewBox="0 0 386 664" fill="none" xmlns="http://www.w3.org/2000/svg">
<path d="M384.415 222.193C384.415 344.493 298.456 443.386 192.708 443.386C86.9594 443.386 1 344.493 1 222.193C1 99.8938 86.9594 1.00098 192.708 1.00098C298.456 1.00098 384.415 99.8938 384.415 222.193Z" stroke="#BDC7D6" stroke-width="2"/>
<path d="M199.211 431.128C237.523 470.395 241.017 538.096 206.968 582.345C172.919 626.595 114.257 630.59 75.9446 591.323C37.6324 552.057 34.1386 484.356 68.1873 440.106C102.236 395.857 160.898 391.861 199.211 431.128Z" stroke="#BDC7D6" stroke-width="2"/>
<path d="M372.047 343.735C372.047 350.507 367.177 355.895 361.287 355.895C355.398 355.895 350.527 350.507 350.527 343.735C350.527 336.962 355.398 331.574 361.287 331.574C367.177 331.574 372.047 336.962 372.047 343.735Z" fill="#1FED93" stroke="#BDC7D6"/>
<path d="M233.947 507.855C235.97 509.927 236.11 513.649 234.167 516.174C232.224 518.699 229.006 518.978 226.983 516.905C224.961 514.832 224.82 511.111 226.763 508.586C228.706 506.06 231.925 505.782 233.947 507.855Z" fill="#1FED93" stroke="#BDC7D6"/>
</svg>
