<svg width="27" height="24" viewBox="0 0 27 24" fill="none" xmlns="http://www.w3.org/2000/svg">
<g id="Logo" clip-path="url(#clip0_603_12717)">
<g id="Group">
<path id="Vector" d="M22.0997 15.025C20.9134 17.8544 18.1149 19.8481 14.8594 19.8481C12.4243 19.8481 10.2437 18.733 8.80371 16.9861C7.932 17.2973 6.654 17.7267 6.588 17.749C6.81429 17.5518 7.04314 17.3581 7.27714 17.1721C7.82143 16.735 8.38714 16.3278 8.96829 15.9498C11.6109 14.2296 14.5971 13.1273 17.634 12.7338L16.7143 8.0547C14.4831 8.61784 12.3454 9.48356 10.3783 10.6116C9.21257 11.2707 8.10429 12.0327 7.06372 12.8813C7.03114 12.5924 7.01314 12.2993 7.01314 12.0018C7.01314 7.67499 10.5334 4.1547 14.8603 4.1547C15.7749 4.1547 16.6526 4.31327 17.4703 4.60299L19.8197 1.07927C17.9897 0.243557 15.9189 -0.148157 13.7409 0.0515569C8.172 0.563271 3.63857 4.94499 2.952 10.495C2.72314 12.343 2.92371 14.1198 3.46029 15.745C3.57 16.0776 3.49714 16.441 3.27857 16.7153C1.95429 18.385 0.846 20.2201 0 22.1564L2.04257 23.2844C2.81743 21.937 3.73114 20.6813 4.75971 19.543C4.97314 19.3064 5.34686 19.3098 5.54829 19.5576C7.75029 22.2653 11.106 23.9993 14.8594 23.9993C19.482 23.9993 23.4994 21.3704 25.5034 17.5313L22.0997 15.0241V15.025Z" fill="#F3F4F6"/>
<path id="Vector_2" d="M22.9977 13.1401C24.718 13.1401 26.1125 11.7455 26.1125 10.0253C26.1125 8.30497 24.718 6.9104 22.9977 6.9104C21.2774 6.9104 19.8828 8.30497 19.8828 10.0253C19.8828 11.7455 21.2774 13.1401 22.9977 13.1401Z" fill="#F3F4F6"/>
</g>
</g>
<defs>
<clipPath id="clip0_603_12717">
<rect width="27" height="24" fill="white"/>
</clipPath>
</defs>
</svg>
