<svg width="20" height="20" viewBox="0 0 20 20" fill="none" xmlns="http://www.w3.org/2000/svg">
<g id="Base / Icons / New">
<path id="Vector" d="M17.5 9.375C17.5 9.54427 17.4382 9.69075 17.3145 9.81445C17.1908 9.93815 17.0443 10 16.875 10H10V16.875C10 17.0443 9.93815 17.1908 9.81445 17.3145C9.69075 17.4382 9.54427 17.5 9.375 17.5C9.20573 17.5 9.05924 17.4382 8.93555 17.3145C8.81185 17.1908 8.75 17.0443 8.75 16.875V10H1.875C1.70573 10 1.55924 9.93815 1.43555 9.81445C1.31185 9.69075 1.25 9.54427 1.25 9.375C1.25 9.20573 1.31185 9.05924 1.43555 8.93555C1.55924 8.81185 1.70573 8.75 1.875 8.75H8.75V1.875C8.75 1.70573 8.81185 1.55924 8.93555 1.43555C9.05924 1.31185 9.20573 1.25 9.375 1.25C9.54427 1.25 9.69075 1.31185 9.81445 1.43555C9.93815 1.55924 10 1.70573 10 1.875V8.75H16.875C17.0443 8.75 17.1908 8.81185 17.3145 8.93555C17.4382 9.05924 17.5 9.20573 17.5 9.375Z" fill="#707070"/>
</g>
</svg>
