<svg width="24" height="24" viewBox="0 0 24 24" fill="none" xmlns="http://www.w3.org/2000/svg">
<g id="Arrows/circle-arrow-left" clip-path="url(#clip0_1711_8874)">
<path id="Vector" d="M12 21.75C13.2804 21.75 14.5482 21.4978 15.7312 21.0078C16.9141 20.5178 17.9889 19.7997 18.8943 18.8943C19.7997 17.9889 20.5178 16.9141 21.0078 15.7312C21.4978 14.5482 21.75 13.2804 21.75 12C21.75 10.7196 21.4978 9.45176 21.0078 8.26884C20.5178 7.08591 19.7997 6.01108 18.8943 5.10571C17.9889 4.20034 16.9141 3.48216 15.7312 2.99217C14.5482 2.50219 13.2804 2.25 12 2.25C9.41414 2.25 6.93419 3.27723 5.10571 5.10571C3.27723 6.93419 2.25 9.41414 2.25 12C2.25 14.5859 3.27723 17.0658 5.10571 18.8943C6.93419 20.7228 9.41414 21.75 12 21.75Z" stroke="black" stroke-width="1.5" stroke-linecap="round" stroke-linejoin="round"/>
<path id="Vector_2" d="M8 12L12 16" stroke="black" stroke-width="1.5" stroke-linecap="round" stroke-linejoin="round"/>
<path id="Vector_3" d="M8 12H16" stroke="black" stroke-width="1.5" stroke-linecap="round" stroke-linejoin="round"/>
<path id="Vector_4" d="M12 8L8 12" stroke="black" stroke-width="1.5" stroke-linecap="round" stroke-linejoin="round"/>
</g>
<defs>
<clipPath id="clip0_1711_8874">
<rect width="24" height="24" fill="white"/>
</clipPath>
</defs>
</svg>
