<svg width="25" height="24" viewBox="0 0 25 24" fill="none" xmlns="http://www.w3.org/2000/svg">
<mask id="mask0_1115_95288" style="mask-type:alpha" maskUnits="userSpaceOnUse" x="4" y="4" width="17" height="16">
<path d="M11.5 5.20874V16.3787L6.62004 11.4987C6.23004 11.1087 5.59004 11.1087 5.20004 11.4987C4.81004 11.8887 4.81004 12.5187 5.20004 12.9087L11.79 19.4987C12.18 19.8887 12.81 19.8887 13.2 19.4987L19.8 12.9187C19.9873 12.7319 20.0925 12.4783 20.0925 12.2137C20.0925 11.9492 19.9873 11.6956 19.8 11.5087C19.41 11.1187 18.78 11.1187 18.39 11.5087L13.5 16.3787V5.20874C13.5 4.65874 13.05 4.20874 12.5 4.20874C11.95 4.20874 11.5 4.65874 11.5 5.20874Z" fill="black"/>
</mask>
<g mask="url(#mask0_1115_95288)">
<rect x="24.5" width="24" height="24" transform="rotate(90 24.5 0)" fill="white"/>
</g>
</svg>
