<svg width="32" height="32" viewBox="0 0 32 32" fill="none" xmlns="http://www.w3.org/2000/svg">
<path d="M3.66699 13.3334C3.66699 13.0681 3.56164 12.8138 3.3741 12.6263C3.18656 12.4387 2.93221 12.3334 2.66699 12.3334C2.40178 12.3334 2.14742 12.4387 1.95989 12.6263C1.77235 12.8138 1.66699 13.0681 1.66699 13.3334H3.66699ZM28.3337 18.6667C28.3337 18.9319 28.439 19.1863 28.6266 19.3738C28.8141 19.5613 29.0684 19.6667 29.3337 19.6667C29.5989 19.6667 29.8532 19.5613 30.0408 19.3738C30.2283 19.1863 30.3337 18.9319 30.3337 18.6667H28.3337ZM1.80699 7.9027C1.78118 8.16668 1.86129 8.4301 2.0297 8.63502C2.1981 8.83993 2.44102 8.96955 2.70499 8.99537C2.96897 9.02118 3.23239 8.94107 3.43731 8.77267C3.64222 8.60426 3.77185 8.36135 3.79766 8.09737L1.80699 7.9027ZM30.1937 24.0974C30.2064 23.9667 30.1934 23.8347 30.1551 23.7091C30.1169 23.5834 30.0543 23.4665 29.971 23.365C29.8876 23.2636 29.785 23.1795 29.6691 23.1177C29.5533 23.0559 29.4264 23.0175 29.2957 23.0047C29.165 22.9919 29.033 23.005 28.9074 23.0432C28.7817 23.0814 28.6648 23.144 28.5633 23.2274C28.3584 23.3958 28.2288 23.6387 28.203 23.9027L30.1937 24.0974ZM18.667 28.3334H13.3337V30.3334H18.667V28.3334ZM3.66699 18.6667V13.3334H1.66699V18.6667H3.66699ZM28.3337 18.084V18.6667H30.3337V18.084H28.3337ZM19.855 6.14803L25.1337 10.8987L26.471 9.4107L21.1937 4.66003L19.855 6.14803ZM30.3337 18.084C30.3337 15.832 30.3537 14.4054 29.787 13.1307L27.959 13.9454C28.3137 14.7427 28.3337 15.656 28.3337 18.084H30.3337ZM25.1337 10.8987C26.9377 12.5227 27.6043 13.1494 27.959 13.9454L29.787 13.1307C29.219 11.8547 28.1457 10.9174 26.471 9.4107L25.1337 10.8987ZM13.3737 3.6667C15.483 3.6667 16.279 3.6827 16.987 3.9547L17.7043 2.08803C16.5683 1.6507 15.331 1.6667 13.3737 1.6667V3.6667ZM21.1937 4.66137C19.7457 3.3587 18.8403 2.5227 17.7043 2.08803L16.9883 3.9547C17.6977 4.2267 18.295 4.74403 19.855 6.14803L21.1937 4.66137ZM13.3337 28.3334C10.791 28.3334 8.98566 28.3307 7.61366 28.1467C6.27366 27.9667 5.50033 27.628 4.93633 27.064L3.52299 28.4774C4.52033 29.4774 5.78566 29.9187 7.34833 30.1294C8.88166 30.336 10.8483 30.3334 13.3337 30.3334V28.3334ZM1.66699 18.6667C1.66699 21.152 1.66433 23.1174 1.87099 24.652C2.08166 26.2147 2.52433 27.48 3.52166 28.4787L4.93499 27.0654C4.37233 26.5 4.03366 25.7267 3.85366 24.3854C3.66966 23.016 3.66699 21.2094 3.66699 18.6667H1.66699ZM18.667 30.3334C21.1523 30.3334 23.1177 30.336 24.6523 30.1294C26.215 29.9187 27.4803 29.476 28.479 28.4787L27.0657 27.0654C26.5003 27.628 25.727 27.9667 24.3857 28.1467C23.0163 28.3307 21.2097 28.3334 18.667 28.3334V30.3334ZM13.3737 1.6667C10.8737 1.6667 8.89899 1.66403 7.35899 1.8707C5.78966 2.08137 4.52033 2.52403 3.52166 3.52137L4.93499 4.9347C5.50033 4.37203 6.27499 4.03337 7.62433 3.85337C9.00166 3.66937 10.8177 3.6667 13.3737 3.6667V1.6667ZM3.79766 8.09737C3.95899 6.45203 4.30699 5.56403 4.93633 4.93603L3.52299 3.5227C2.40833 4.6347 1.98566 6.08137 1.80699 7.9027L3.79766 8.09737ZM28.203 23.9027C28.0417 25.548 27.6923 26.436 27.0643 27.064L28.4777 28.4774C29.5923 27.3654 30.015 25.9187 30.1937 24.0974L28.203 23.9027Z" fill="#1FED93"/>
<path d="M17.334 3.33337V6.66671C17.334 9.80937 17.334 11.3814 18.31 12.3574C19.286 13.3334 20.858 13.3334 24.0007 13.3334H29.334" stroke="#1FED93" stroke-width="1.5"/>
</svg>
