<svg width="32" height="32" viewBox="0 0 32 32" fill="none" xmlns="http://www.w3.org/2000/svg">
<path d="M17.3333 28.0001H6.66667C5.95942 28.0001 5.28115 27.7191 4.78105 27.219C4.28095 26.7189 4 26.0407 4 25.3334V13.3334M4 13.3334H28M4 13.3334V8.00008C4 7.29284 4.28095 6.61456 4.78105 6.11446C5.28115 5.61437 5.95942 5.33341 6.66667 5.33341H9.33333M28 13.3334V17.3334M28 13.3334V8.00008C28 7.29284 27.719 6.61456 27.219 6.11446C26.7189 5.61437 26.0406 5.33341 25.3333 5.33341H24.6667M20 5.33341V2.66675M20 5.33341V8.00008M20 5.33341H14M9.33333 2.66675V8.00008M19.9893 24.0001H28" stroke="#1FED93" stroke-width="2" stroke-linecap="round" stroke-linejoin="round"/>
</svg>
