<svg width="32" height="32" viewBox="0 0 32 32" fill="none" xmlns="http://www.w3.org/2000/svg">
<path d="M24.0003 21.3333H21.3337M21.3337 21.3333H18.667M21.3337 21.3333V18.6666M21.3337 21.3333V23.9999M9.33366 5.33325V3.33325M22.667 5.33325V3.33325M28.667 11.9999H14.3337M2.66699 11.9999H7.83366M18.667 29.3333H13.3337C8.30566 29.3333 5.79099 29.3333 4.22966 27.7706C2.66699 26.2093 2.66699 23.6946 2.66699 18.6666V15.9999C2.66699 10.9719 2.66699 8.45725 4.22966 6.89592C5.79099 5.33325 8.30566 5.33325 13.3337 5.33325H18.667C23.695 5.33325 26.2097 5.33325 27.771 6.89592C29.3337 8.45725 29.3337 10.9719 29.3337 15.9999V18.6666C29.3337 23.6946 29.3337 26.2093 27.771 27.7706C26.9003 28.6426 25.7337 29.0279 24.0003 29.1973" stroke="#1FED93" stroke-width="1.5" stroke-linecap="round"/>
</svg>
