<svg width="44" height="45" viewBox="0 0 44 45" fill="none" xmlns="http://www.w3.org/2000/svg">
<g id="Group">
<path id="Vector" d="M31.9998 3.41199C33.4818 3.69399 34.3618 4.00599 35.1198 4.94199C36.0738 6.11399 36.0238 7.37999 35.9218 9.91199C35.5618 19.018 33.5218 30.5 22.0018 30.5C10.4818 30.5 8.43981 19.02 8.07581 9.91199C7.97581 7.37999 7.92581 6.11199 8.87581 4.94199C9.82781 3.76999 10.9658 3.57799 13.2438 3.19399C16.1381 2.71963 19.0669 2.48749 21.9998 2.49999C23.4358 2.49999 24.7718 2.54999 25.9998 2.63599" stroke="#1FED93" stroke-width="4" stroke-linecap="round"/>
<path id="Vector_2" d="M36 8.5L37.898 9.132C39.878 9.792 40.868 10.122 41.434 10.908C42 11.694 42 12.738 42 14.824V14.97C42 16.69 42 17.552 41.586 18.256C41.172 18.96 40.418 19.378 38.914 20.216L33 23.5M8 8.5L6.102 9.132C4.122 9.792 3.132 10.122 2.566 10.908C2 11.694 2 12.74 2 14.824V14.97C2 16.69 2 17.552 2.414 18.256C2.828 18.96 3.582 19.378 5.086 20.216L11 23.5" stroke="#1FED93" stroke-width="4"/>
<path id="Vector_3" d="M22 32.5V36.5" stroke="#1FED93" stroke-width="4" stroke-linecap="round"/>
<path id="Vector_4" d="M29 42.5H15L15.68 39.108C15.7706 38.6548 16.0154 38.2469 16.3727 37.9538C16.73 37.6606 17.1778 37.5003 17.64 37.5H26.36C26.8222 37.5003 27.27 37.6606 27.6273 37.9538C27.9846 38.2469 28.2294 38.6548 28.32 39.108L29 42.5Z" stroke="#1FED93" stroke-width="4" stroke-linecap="round" stroke-linejoin="round"/>
<path id="Vector_5" d="M34 42.5H10" stroke="#1FED93" stroke-width="4" stroke-linecap="round"/>
</g>
</svg>
