<svg width="32" height="32" viewBox="0 0 32 32" fill="none" xmlns="http://www.w3.org/2000/svg">
<path d="M4 18.6667V13.3334C4 8.30541 4 5.79075 5.56267 4.22941C7.124 2.66675 9.63867 2.66675 14.6667 2.66675H17.3333C22.3613 2.66675 24.876 2.66675 26.4373 4.22941C27.3093 5.10008 27.6947 6.26675 27.864 8.00008M28 13.3334V18.6667C28 23.6947 28 26.2094 26.4373 27.7707C24.876 29.3334 22.3613 29.3334 17.3333 29.3334H14.6667C9.63867 29.3334 7.124 29.3334 5.56267 27.7707C4.69067 26.9001 4.30533 25.7334 4.136 24.0001M10.6667 18.6667H17.3333M10.6667 13.3334H12M21.3333 13.3334H16" stroke="#1FED93" stroke-width="1.5" stroke-linecap="round"/>
</svg>
