<svg width="18" height="19" viewBox="0 0 18 19" fill="none" xmlns="http://www.w3.org/2000/svg">
<g id="fluent:laptop-settings-24-filled">
<path id="Vector" d="M3 5.1875C3 4.73995 3.17779 4.31073 3.49426 3.99426C3.81072 3.67779 4.23995 3.5 4.6875 3.5H13.3125C13.5341 3.5 13.7535 3.54365 13.9583 3.62845C14.163 3.71326 14.349 3.83756 14.5057 3.99426C14.6624 4.15096 14.7867 4.33698 14.8715 4.54172C14.9564 4.74646 15 4.96589 15 5.1875V8.3735C14.2884 8.07697 13.5165 7.95344 12.7479 8.01307C11.9792 8.0727 11.2357 8.31378 10.5783 8.71652C9.92087 9.11927 9.36836 9.67218 8.9661 10.3299C8.56385 10.9876 8.32331 11.7313 8.26425 12.5H4.6875C4.23995 12.5 3.81072 12.3222 3.49426 12.0057C3.17779 11.6893 3 11.2601 3 10.8125V5.1875ZM8.6235 14.75C8.47327 14.389 8.36701 14.0113 8.307 13.625H2.0625C1.91332 13.625 1.77024 13.6843 1.66475 13.7898C1.55926 13.8952 1.5 14.0383 1.5 14.1875C1.5 14.3367 1.55926 14.4798 1.66475 14.5852C1.77024 14.6907 1.91332 14.75 2.0625 14.75H8.6235ZM10.7085 10.232C10.7645 10.426 10.7807 10.6292 10.7562 10.8296C10.7317 11.03 10.6671 11.2233 10.5661 11.3981C10.4651 11.5729 10.3299 11.7255 10.1685 11.8468C10.0072 11.9681 9.82298 12.0556 9.627 12.104L9.189 12.212C9.11835 12.6614 9.11987 13.1191 9.1935 13.568L9.5985 13.6655C9.79619 13.7131 9.98212 13.8004 10.145 13.9221C10.3079 14.0438 10.4444 14.1974 10.5461 14.3735C10.6478 14.5495 10.7127 14.7444 10.7367 14.9464C10.7608 15.1483 10.7435 15.353 10.686 15.548L10.5457 16.0212C10.8757 16.3108 11.2507 16.5455 11.6595 16.7128L12.0292 16.3235C12.1694 16.1761 12.338 16.0588 12.5249 15.9786C12.7118 15.8984 12.913 15.857 13.1164 15.857C13.3197 15.857 13.521 15.8984 13.7079 15.9786C13.8948 16.0588 14.0634 16.1761 14.2035 16.3235L14.5778 16.7172C14.9835 16.5518 15.359 16.3204 15.6893 16.0325L15.5408 15.518C15.4848 15.324 15.4686 15.1208 15.493 14.9204C15.5175 14.72 15.5822 14.5267 15.6831 14.3519C15.7841 14.1771 15.9194 14.0245 16.0807 13.9032C16.2421 13.7819 16.4263 13.6944 16.6222 13.646L17.0595 13.538C17.1302 13.0886 17.1286 12.6309 17.055 12.182L16.65 12.0845C16.4524 12.0368 16.2665 11.9494 16.1037 11.8277C15.9409 11.7059 15.8045 11.5524 15.7029 11.3763C15.6013 11.2003 15.5365 11.0054 15.5125 10.8035C15.4885 10.6016 15.5057 10.397 15.5632 10.202L15.7028 9.7295C15.3726 9.43902 14.9964 9.20534 14.5897 9.038L14.22 9.4265C14.0799 9.57401 13.9112 9.69146 13.7242 9.77172C13.5373 9.85199 13.336 9.89338 13.1325 9.89338C12.929 9.89338 12.7277 9.85199 12.5408 9.77172C12.3538 9.69146 12.1851 9.57401 12.045 9.4265L11.6715 9.03275C11.2635 9.19775 10.8885 9.43025 10.5592 9.71675L10.7085 10.232ZM13.1235 14C12.5235 14 12.036 13.496 12.036 12.875C12.036 12.254 12.525 11.75 13.125 11.75C13.725 11.75 14.2125 12.254 14.2125 12.875C14.2125 13.496 13.725 14 13.125 14" fill="#1F2940"/>
</g>
</svg>
