<svg width="18" height="18" viewBox="0 0 18 18" fill="none" xmlns="http://www.w3.org/2000/svg">
<g id="fluent:people-12-filled">
<path id="Vector" d="M6 9C6.79565 9 7.55871 8.68393 8.12132 8.12132C8.68393 7.55871 9 6.79565 9 6C9 5.20435 8.68393 4.44129 8.12132 3.87868C7.55871 3.31607 6.79565 3 6 3C5.20435 3 4.44129 3.31607 3.87868 3.87868C3.31607 4.44129 3 5.20435 3 6C3 6.79565 3.31607 7.55871 3.87868 8.12132C4.44129 8.68393 5.20435 9 6 9ZM12.75 9C13.3467 9 13.919 8.76295 14.341 8.34099C14.7629 7.91903 15 7.34674 15 6.75C15 6.15326 14.7629 5.58097 14.341 5.15901C13.919 4.73705 13.3467 4.5 12.75 4.5C12.1533 4.5 11.581 4.73705 11.159 5.15901C10.7371 5.58097 10.5 6.15326 10.5 6.75C10.5 7.34674 10.7371 7.91903 11.159 8.34099C11.581 8.76295 12.1533 9 12.75 9ZM3.375 10.5C2.34 10.5 1.5 11.34 1.5 12.375C1.5 12.375 1.5 15.75 6 15.75C9.567 15.75 10.3065 13.629 10.4595 12.75C10.5 12.5205 10.5 12.375 10.5 12.375C10.5 11.34 9.66 10.5 8.625 10.5H3.375ZM11.994 12.9C11.991 12.96 11.985 13.031 11.976 13.113C11.8932 13.7315 11.6784 14.3249 11.346 14.853C11.7435 14.9445 12.207 15 12.7485 15C16.4985 15 16.4985 12.375 16.4985 12.375C16.4985 11.34 15.6585 10.5 14.6235 10.5H11.43C11.79 11.037 11.9985 11.6805 11.9985 12.375V12.75L11.994 12.9Z" fill="#0000FF"/>
</g>
</svg>
