<svg width="64" height="65" viewBox="0 0 64 65" fill="none" xmlns="http://www.w3.org/2000/svg">
<g id="Group">
<path id="Vector" d="M18.672 62.7313C18.672 63.8381 17.7052 64.7315 16.5184 64.7315H2.15696C0.970172 64.7315 0.00341797 63.8381 0.00341797 62.7313C0.00341797 57.9441 4.18385 54.0637 9.33772 54.0637C14.4916 54.0637 18.672 57.9441 18.672 62.7313Z" fill="#42566B"/>
<path id="Vector_2" d="M54.6693 54.0637C49.5154 54.0637 45.335 57.9441 45.335 62.7313C45.335 63.8381 46.3017 64.7315 47.4885 64.7315H61.8499C63.0367 64.7315 64.0036 63.8381 64.0036 62.7313C64.0036 57.9441 59.8231 54.0637 54.6693 54.0637Z" fill="#42566B"/>
<path id="Vector_3" d="M32.6734 54.0637H31.3399C26.5528 54.0637 22.6724 57.9441 22.6724 62.7313C22.6724 63.8381 23.5658 64.7315 24.6726 64.7315H39.3408C40.4475 64.7315 41.341 63.8381 41.341 62.7313C41.341 57.9441 37.4606 54.0637 32.6734 54.0637Z" fill="#42566B"/>
<path id="Vector_4" d="M54.6693 51.3967C58.3516 51.3967 61.3367 48.4117 61.3367 44.7294C61.3367 41.0471 58.3516 38.062 54.6693 38.062C50.987 38.062 48.002 41.0471 48.002 44.7294C48.002 48.4117 50.987 51.3967 54.6693 51.3967Z" fill="#42566B"/>
<path id="Vector_5" d="M32.0067 51.3967C35.689 51.3967 38.6741 48.4117 38.6741 44.7294C38.6741 41.0471 35.689 38.062 32.0067 38.062C28.3244 38.062 25.3394 41.0471 25.3394 44.7294C25.3394 48.4117 28.3244 51.3967 32.0067 51.3967Z" fill="#42566B"/>
<path id="Vector_6" d="M9.33777 51.3967C13.0201 51.3967 16.0051 48.4117 16.0051 44.7294C16.0051 41.0471 13.0201 38.062 9.33777 38.062C5.65549 38.062 2.67041 41.0471 2.67041 44.7294C2.67041 48.4117 5.65549 51.3967 9.33777 51.3967Z" fill="#42566B"/>
<path id="Vector_7" d="M45.555 21.2602L43.7881 20.2401C43.9215 19.5267 44.0082 18.8066 44.0082 18.0532C44.0082 17.2998 43.9148 16.5797 43.7881 15.8663L45.555 14.8462C47.4685 13.7395 48.1219 11.2992 47.0218 9.379C45.9217 7.4588 43.4681 6.80539 41.5546 7.91218L39.7544 8.95229C38.6543 8.01219 37.4008 7.27211 36.0074 6.77873V4.71184C36.0074 2.50495 34.2138 0.711426 32.0069 0.711426C29.8 0.711426 28.0065 2.50495 28.0065 4.71184V6.77873C26.6197 7.27211 25.3596 8.01219 24.2595 8.95229L22.4592 7.91218C20.5524 6.80539 18.0988 7.4588 16.992 9.379C15.8852 11.2925 16.5453 13.7395 18.4588 14.8462L20.2257 15.8663C20.0923 16.5797 20.0057 17.2998 20.0057 18.0532C20.0057 18.8066 20.099 19.5267 20.2257 20.2401L18.4588 21.2602C16.5453 22.367 15.8919 24.8073 16.992 26.7275C17.7321 28.0076 19.0722 28.7277 20.459 28.7277C21.1391 28.7277 21.8258 28.5543 22.4592 28.1943L24.2595 27.1542C25.3596 28.0943 26.613 28.8344 28.0065 29.3277V31.3946C28.0065 33.6015 29.8 35.395 32.0069 35.395C34.2138 35.395 36.0074 33.6015 36.0074 31.3946V29.3277C37.3942 28.8344 38.6543 28.0943 39.7544 27.1542L41.5546 28.1943C42.1813 28.561 42.8747 28.7277 43.5548 28.7277C44.9349 28.7277 46.2817 28.0076 47.0218 26.7275C48.1285 24.8139 47.4685 22.367 45.555 21.2602ZM32.0069 22.0603C29.8 22.0603 28.0065 20.2668 28.0065 18.0599C28.0065 15.853 29.8 14.0595 32.0069 14.0595C34.2138 14.0595 36.0074 15.853 36.0074 18.0599C36.0074 20.2668 34.2138 22.0603 32.0069 22.0603Z" fill="#42566B"/>
<path id="Vector_8" d="M4.00384 35.3951C6.21073 35.3951 8.00425 33.6016 8.00425 31.3947V23.3939C8.00425 22.6605 8.60431 22.0604 9.33772 22.0604C11.5446 22.0604 13.3381 20.2669 13.3381 18.06C13.3381 15.8531 11.5446 14.0596 9.33772 14.0596C4.19052 14.0596 0.00341797 18.2467 0.00341797 23.3939V31.3947C0.00341797 33.6016 1.79694 35.3951 4.00384 35.3951Z" fill="#27EF98"/>
<path id="Vector_9" d="M54.6694 14.0596C52.4625 14.0596 50.6689 15.8531 50.6689 18.06C50.6689 20.2669 52.4625 22.0604 54.6694 22.0604C55.4028 22.0604 56.0028 22.6605 56.0028 23.3939V31.3947C56.0028 33.6016 57.7964 35.3951 60.0033 35.3951C62.2101 35.3951 64.0037 33.6016 64.0037 31.3947V23.3939C64.0037 18.2467 59.8166 14.0596 54.6694 14.0596Z" fill="#27EF98"/>
</g>
</svg>
