<svg width="32" height="32" viewBox="0 0 32 32" fill="none" xmlns="http://www.w3.org/2000/svg">
<path d="M12.0003 13.3334C14.9458 13.3334 17.3337 10.9456 17.3337 8.00008C17.3337 5.05456 14.9458 2.66675 12.0003 2.66675C9.05481 2.66675 6.66699 5.05456 6.66699 8.00008C6.66699 10.9456 9.05481 13.3334 12.0003 13.3334Z" stroke="#1FED93" stroke-width="1.5"/>
<path d="M20.0003 12C21.0612 12 22.0786 11.5786 22.8288 10.8284C23.5789 10.0783 24.0003 9.06087 24.0003 8C24.0003 6.93913 23.5789 5.92172 22.8288 5.17157C22.0786 4.42143 21.0612 4 20.0003 4M7.85366 27.4453C9.10033 27.8 10.5097 28 12.0003 28C17.155 28 21.3337 25.6133 21.3337 22.6667C21.3337 19.72 17.155 17.3333 12.0003 17.3333C6.84566 17.3333 2.66699 19.72 2.66699 22.6667C2.66699 23.1267 2.76966 23.5733 2.96033 24M24.0003 18.6667C26.339 19.18 28.0003 20.4787 28.0003 22C28.0003 23.3733 26.6483 24.564 24.667 25.16" stroke="#1FED93" stroke-width="1.5" stroke-linecap="round"/>
</svg>
