<svg width="64" height="65" viewBox="0 0 64 65" fill="none" xmlns="http://www.w3.org/2000/svg">
<path d="M46.6784 43.378C52.5694 43.378 57.3451 38.6024 57.3451 32.7113C57.3451 26.8203 52.5694 22.0447 46.6784 22.0447C40.7873 22.0447 36.0117 26.8203 36.0117 32.7113C36.0117 38.6024 40.7873 43.378 46.6784 43.378Z" fill="#42566B"/>
<path d="M32.0114 22.0448C37.9024 22.0448 42.6781 17.2691 42.6781 11.3781C42.6781 5.48705 37.9024 0.711426 32.0114 0.711426C26.1204 0.711426 21.3447 5.48705 21.3447 11.3781C21.3447 17.2691 26.1204 22.0448 32.0114 22.0448Z" fill="#27EF98"/>
<path d="M17.3444 43.378C23.2354 43.378 28.0111 38.6024 28.0111 32.7113C28.0111 26.8203 23.2354 22.0447 17.3444 22.0447C11.4534 22.0447 6.67773 26.8203 6.67773 32.7113C6.67773 38.6024 11.4534 43.378 17.3444 43.378Z" fill="#42566B"/>
<path d="M63.8849 59.7247C61.8449 51.6713 54.4915 46.0447 46.0048 46.0447C40.4515 46.0447 35.4182 48.4847 32.0048 52.4113C28.5915 48.4847 23.5582 46.0447 18.0048 46.0447C9.52485 46.0447 2.17152 51.6713 0.124852 59.7247C-0.421815 61.8647 0.878182 64.0447 3.01818 64.5847C5.16485 65.1313 7.33818 63.8313 7.87818 61.6913C8.47151 59.3447 9.89818 57.3847 11.7982 56.0247L15.5715 60.8647C16.8249 62.438 19.2182 62.438 20.4782 60.8647L24.2849 56.078C26.1449 57.4313 27.5382 59.378 28.1248 61.6913C28.1315 61.7247 28.8515 64.7113 32.0048 64.7113C35.1582 64.7113 35.8715 61.7313 35.8782 61.6913C36.4715 59.3447 37.8982 57.3847 39.7982 56.0247L43.5715 60.8647C44.8249 62.438 47.2182 62.438 48.4782 60.8647L52.2849 56.078C54.1449 57.4313 55.5382 59.378 56.1248 61.6913C56.6648 63.8313 58.8582 65.1313 60.9848 64.5847C63.1315 64.038 64.4249 61.8647 63.8782 59.7247H63.8849Z" fill="#42566B"/>
</svg>
