<svg width="64" height="65" viewBox="0 0 64 65" fill="none" xmlns="http://www.w3.org/2000/svg">
<g id="Group">
<path id="Vector" d="M53.3274 24.7156H47.9947C42.1042 24.7156 37.3291 29.4907 37.3291 35.3811V54.0459C37.3291 59.9363 42.1042 64.7114 47.9947 64.7114H53.3274C59.2179 64.7114 63.993 59.9363 63.993 54.0459V35.3811C63.993 29.4907 59.2179 24.7156 53.3274 24.7156Z" fill="#27EF98"/>
<path id="Vector_2" d="M31.9967 38.0475H23.9975L23.3309 37.2742C22.3177 36.0744 20.8245 35.3811 19.2513 35.3811H6.66597C2.98636 35.3811 0 38.3675 0 42.0471C0 45.7267 2.98636 48.713 6.66597 48.713H31.9967V38.0475Z" fill="#42566B"/>
<path id="Vector_3" d="M19.2782 30.0484C21.8913 30.0484 24.3977 31.0083 26.3441 32.7148H32.2635C33.5434 25.1689 40.1027 19.3828 48.0219 19.3828H53.3547C55.2212 19.3828 57.0076 19.7294 58.6875 20.316V14.05C58.6875 6.6908 52.7148 0.711426 45.3555 0.711426H18.665C11.3057 0.711426 5.33301 6.68414 5.33301 14.0434V30.335C6.18625 30.1484 7.09282 30.0417 7.9994 30.0417H19.2782V30.0484Z" fill="#42566B"/>
</g>
</svg>
