<svg width="32" height="32" viewBox="0 0 32 32" fill="none" xmlns="http://www.w3.org/2000/svg">
<path d="M16.0003 21.3334C18.9458 21.3334 21.3337 18.9456 21.3337 16.0001C21.3337 13.0546 18.9458 10.6667 16.0003 10.6667C13.0548 10.6667 10.667 13.0546 10.667 16.0001C10.667 18.9456 13.0548 21.3334 16.0003 21.3334Z" stroke="#1FED93" stroke-width="1.5"/>
<path d="M20.0003 12.0001L25.3337 6.66675M6.66699 25.3334L12.0003 20.0001M12.0003 12.0001L6.66699 6.66675M25.3337 25.3334L20.0003 20.0001" stroke="#1FED93" stroke-width="1.5"/>
<path d="M12.5495 3.11867C14.81 2.51097 17.1909 2.51189 19.4509 3.12134C26.5642 5.028 30.7842 12.3387 28.8789 19.4507C26.9722 26.564 19.6629 30.784 12.5495 28.8787C5.43621 26.972 1.21621 19.6627 3.12154 12.5493C3.72353 10.2873 4.91308 8.22462 6.56954 6.57067" stroke="#1FED93" stroke-width="1.5" stroke-linecap="round"/>
</svg>
