<svg width="16" height="17" viewBox="0 0 16 17" fill="none" xmlns="http://www.w3.org/2000/svg">
<g id="Content / add circle_outline">
<mask id="mask0_1115_95192" style="mask-type:alpha" maskUnits="userSpaceOnUse" x="1" y="1" width="14" height="15">
<g id="Icon Mask">
<path id="Round" fill-rule="evenodd" clip-rule="evenodd" d="M8.00016 1.83337C4.32016 1.83337 1.3335 4.82004 1.3335 8.50004C1.3335 12.18 4.32016 15.1667 8.00016 15.1667C11.6802 15.1667 14.6668 12.18 14.6668 8.50004C14.6668 4.82004 11.6802 1.83337 8.00016 1.83337ZM8.00016 5.16671C7.6335 5.16671 7.3335 5.46671 7.3335 5.83337V7.83337H5.3335C4.96683 7.83337 4.66683 8.13337 4.66683 8.50004C4.66683 8.86671 4.96683 9.16671 5.3335 9.16671H7.3335V11.1667C7.3335 11.5334 7.6335 11.8334 8.00016 11.8334C8.36683 11.8334 8.66683 11.5334 8.66683 11.1667V9.16671H10.6668C11.0335 9.16671 11.3335 8.86671 11.3335 8.50004C11.3335 8.13337 11.0335 7.83337 10.6668 7.83337H8.66683V5.83337C8.66683 5.46671 8.36683 5.16671 8.00016 5.16671ZM2.66683 8.50004C2.66683 11.44 5.06016 13.8334 8.00016 13.8334C10.9402 13.8334 13.3335 11.44 13.3335 8.50004C13.3335 5.56004 10.9402 3.16671 8.00016 3.16671C5.06016 3.16671 2.66683 5.56004 2.66683 8.50004Z" fill="black"/>
</g>
</mask>
<g mask="url(#mask0_1115_95192)">
<rect id="Color Fill" y="0.5" width="16" height="16" fill="#666666"/>
</g>
</g>
</svg>
