<svg width="20" height="20" viewBox="0 0 20 20" fill="none" xmlns="http://www.w3.org/2000/svg">
  <g clip-path="url(#clip0_1294_3576)">
    <path d="M14.167 2.78332C15.4239 3.50904 16.4694 4.55043 17.2002 5.80441C17.9309 7.05839 18.3215 8.48147 18.3332 9.93277C18.3449 11.3841 17.9774 12.8133 17.267 14.0789C16.5566 15.3445 15.528 16.4027 14.283 17.1486C13.038 17.8945 11.6198 18.3023 10.1687 18.3317C8.71768 18.3611 7.28412 18.011 6.00995 17.316C4.73579 16.6211 3.66522 15.6054 2.90421 14.3696C2.14321 13.1337 1.71817 11.7206 1.67116 10.27L1.66699 9.99999L1.67116 9.72999C1.71783 8.29082 2.13662 6.88829 2.88669 5.65915C3.63677 4.43001 4.69254 3.4162 5.95107 2.71656C7.2096 2.01692 8.62795 1.65532 10.0678 1.66702C11.5077 1.67872 12.92 2.06332 14.167 2.78332ZM10.0003 9.16666H9.16699L9.06949 9.17249C8.85858 9.19758 8.6652 9.30225 8.52888 9.46513C8.39255 9.62801 8.32357 9.83679 8.33602 10.0488C8.34846 10.2609 8.44141 10.4601 8.59585 10.606C8.7503 10.7518 8.95459 10.8331 9.16699 10.8333V13.3333L9.17283 13.4308C9.19671 13.6335 9.29415 13.8204 9.44668 13.9561C9.59921 14.0917 9.79622 14.1666 10.0003 14.1667H10.8337L10.9312 14.1608C11.1339 14.1369 11.3208 14.0395 11.4564 13.887C11.592 13.7344 11.667 13.5374 11.667 13.3333L11.6612 13.2358C11.6392 13.0498 11.5553 12.8766 11.4228 12.7442C11.2904 12.6117 11.1172 12.5278 10.9312 12.5058L10.8337 12.5V9.99999L10.8278 9.90249C10.8039 9.69978 10.7065 9.51289 10.554 9.37725C10.4014 9.24162 10.2044 9.16669 10.0003 9.16666ZM10.0087 5.83333L9.90283 5.83916C9.69191 5.86424 9.49854 5.96892 9.36221 6.1318C9.22589 6.29468 9.1569 6.50346 9.16935 6.7155C9.1818 6.92753 9.27474 7.12681 9.42919 7.27262C9.58363 7.41843 9.78793 7.49976 10.0003 7.49999L10.1062 7.49416C10.3171 7.46907 10.5104 7.3644 10.6468 7.20152C10.7831 7.03864 10.8521 6.82986 10.8396 6.61782C10.8272 6.40579 10.7342 6.20651 10.5798 6.0607C10.4254 5.91489 10.2211 5.83356 10.0087 5.83333Z" fill="#1FED93"/>
  </g>
  <defs>
    <clipPath id="clip0_1294_3576">
      <rect width="20" height="20" fill="white"/>
    </clipPath>
  </defs>
</svg>