<svg width="20" height="20" viewBox="0 0 20 20" fill="none" xmlns="http://www.w3.org/2000/svg">
<g id="Filled/info-circle-filled" clip-path="url(#clip0_1233_2824)">
<path id="Vector" d="M14.1667 2.78332C15.4236 3.50904 16.4692 4.55043 17.1999 5.80441C17.9307 7.05839 18.3212 8.48147 18.3329 9.93277C18.3447 11.3841 17.9771 12.8133 17.2668 14.0789C16.5564 15.3445 15.5278 16.4027 14.2828 17.1486C13.0378 17.8945 11.6196 18.3023 10.1685 18.3317C8.71744 18.3611 7.28387 18.011 6.00971 17.316C4.73555 16.6211 3.66497 15.6054 2.90397 14.3696C2.14297 13.1337 1.71792 11.7206 1.67091 10.27L1.66675 9.99999L1.67091 9.72999C1.71758 8.29082 2.13637 6.88829 2.88645 5.65915C3.63652 4.43001 4.69229 3.4162 5.95082 2.71656C7.20936 2.01692 8.6277 1.65532 10.0676 1.66702C11.5075 1.67872 12.9198 2.06332 14.1667 2.78332ZM10.0001 9.16666H9.16675L9.06925 9.17249C8.85834 9.19758 8.66496 9.30225 8.52864 9.46513C8.39231 9.62801 8.32332 9.83679 8.33577 10.0488C8.34822 10.2609 8.44116 10.4601 8.59561 10.606C8.75005 10.7518 8.95435 10.8331 9.16675 10.8333V13.3333L9.17258 13.4308C9.19646 13.6335 9.29391 13.8204 9.44644 13.9561C9.59897 14.0917 9.79597 14.1666 10.0001 14.1667H10.8334L10.9309 14.1608C11.1336 14.1369 11.3205 14.0395 11.4562 13.887C11.5918 13.7344 11.6667 13.5374 11.6667 13.3333L11.6609 13.2358C11.639 13.0498 11.555 12.8766 11.4226 12.7442C11.2901 12.6117 11.1169 12.5278 10.9309 12.5058L10.8334 12.5V9.99999L10.8276 9.90249C10.8037 9.69978 10.7063 9.51289 10.5537 9.37725C10.4012 9.24162 10.2042 9.16669 10.0001 9.16666ZM10.0084 5.83333L9.90258 5.83916C9.69167 5.86424 9.49829 5.96892 9.36197 6.1318C9.22564 6.29468 9.15666 6.50346 9.1691 6.7155C9.18155 6.92753 9.27449 7.12681 9.42894 7.27262C9.58339 7.41843 9.78768 7.49976 10.0001 7.49999L10.1059 7.49416C10.3168 7.46907 10.5102 7.3644 10.6465 7.20152C10.7829 7.03864 10.8518 6.82986 10.8394 6.61782C10.8269 6.40579 10.734 6.20651 10.5796 6.0607C10.4251 5.91489 10.2208 5.83356 10.0084 5.83333Z" fill="#001081"/>
</g>
<defs>
<clipPath id="clip0_1233_2824">
<rect width="20" height="20" fill="white"/>
</clipPath>
</defs>
</svg>
