<svg width="17" height="17" viewBox="0 0 17 17" fill="none" xmlns="http://www.w3.org/2000/svg">
<g id="03 Interface/more">
<path id="Shape" fill-rule="evenodd" clip-rule="evenodd" d="M8.53027 12.5C9.63484 12.5 10.5303 13.3954 10.5303 14.5C10.5303 15.6046 9.63484 16.5 8.53027 16.5C7.4257 16.5 6.53027 15.6046 6.53027 14.5C6.53027 13.3954 7.4257 12.5 8.53027 12.5ZM8.53027 0.5C9.63484 0.5 10.5303 1.39543 10.5303 2.5C10.5303 3.60457 9.63484 4.5 8.53027 4.5C7.4257 4.5 6.53027 3.60457 6.53027 2.5C6.53027 1.39543 7.4257 0.5 8.53027 0.5ZM10.5303 8.5C10.5303 7.39543 9.63484 6.5 8.53027 6.5C7.4257 6.5 6.53027 7.39543 6.53027 8.5C6.53027 9.60457 7.4257 10.5 8.53027 10.5C9.63484 10.5 10.5303 9.60457 10.5303 8.5Z" fill="#A3A3A8"/>
</g>
</svg>
