<svg width="20" height="20" viewBox="0 0 20 20" fill="none" xmlns="http://www.w3.org/2000/svg">
<g id="Base / Icons / List">
<path id="Vector" d="M2.5 4C2.36458 4 2.2474 3.95052 2.14844 3.85156C2.04948 3.7526 2 3.63542 2 3.5C2 3.35938 2.04688 3.24219 2.14062 3.14844C2.23438 3.05469 2.35417 3.00521 2.5 3H13.5C13.6354 3 13.7526 3.04948 13.8516 3.14844C13.9505 3.2474 14 3.36458 14 3.5C14 3.63542 13.9505 3.7526 13.8516 3.85156C13.7526 3.95052 13.6354 4 13.5 4H2.5ZM2.5 10.0078C2.36458 10.0078 2.2474 9.95833 2.14844 9.85938C2.04948 9.76042 2 9.64323 2 9.50781C2 9.36719 2.04688 9.25 2.14062 9.15625C2.23438 9.0625 2.35417 9.01302 2.5 9.00781H17.5C17.6354 9.00781 17.7526 9.05729 17.8516 9.15625C17.9505 9.25521 18 9.3724 18 9.50781C18 9.64844 17.9531 9.76562 17.8594 9.85938C17.7656 9.95312 17.6458 10.0026 17.5 10.0078H2.5ZM2.5 16C2.36458 16 2.2474 15.9505 2.14844 15.8516C2.04948 15.7526 2 15.6354 2 15.5C2 15.3594 2.04688 15.2422 2.14062 15.1484C2.23438 15.0547 2.35417 15.0052 2.5 15H12.5C12.6354 15 12.7526 15.0495 12.8516 15.1484C12.9505 15.2474 13 15.3646 13 15.5C13 15.6406 12.9531 15.7578 12.8594 15.8516C12.7656 15.9453 12.6458 15.9948 12.5 16H2.5Z" fill="#707070"/>
</g>
</svg>
