<svg width="18" height="19" viewBox="0 0 18 19" fill="none" xmlns="http://www.w3.org/2000/svg">
<g id="material-symbols:linked-services">
<path id="Vector" d="M14.25 7.25C13.5375 7.25 12.9187 7.0375 12.3937 6.6125C11.8687 6.1875 11.5188 5.65 11.3438 5H6.6375C6.5 5.525 6.24075 5.97825 5.85975 6.35975C5.47875 6.74125 5.0255 7.0005 4.5 7.1375V11.8438C5.15 12.0188 5.6875 12.3687 6.1125 12.8937C6.5375 13.4187 6.75 14.0375 6.75 14.75C6.75 15.575 6.45625 16.2813 5.86875 16.8688C5.28125 17.4563 4.575 17.75 3.75 17.75C2.925 17.75 2.21875 17.4563 1.63125 16.8688C1.04375 16.2813 0.75 15.575 0.75 14.75C0.75 14.0375 0.9625 13.4187 1.3875 12.8937C1.8125 12.3687 2.35 12.0188 3 11.8438V7.1375C2.35 6.9625 1.8125 6.6125 1.3875 6.0875C0.9625 5.5625 0.75 4.95 0.75 4.25C0.75 3.425 1.04375 2.71875 1.63125 2.13125C2.21875 1.54375 2.925 1.25 3.75 1.25C4.45 1.25 5.0625 1.4625 5.5875 1.8875C6.1125 2.3125 6.4625 2.85 6.6375 3.5H11.3438C11.5188 2.85 11.8687 2.3125 12.3937 1.8875C12.9187 1.4625 13.5375 1.25 14.25 1.25C15.075 1.25 15.7813 1.54375 16.3688 2.13125C16.9563 2.71875 17.25 3.425 17.25 4.25C17.25 5.075 16.9563 5.78125 16.3688 6.36875C15.7813 6.95625 15.075 7.25 14.25 7.25ZM14.25 17.75C13.425 17.75 12.7187 17.4563 12.1312 16.8688C11.5437 16.2813 11.25 15.575 11.25 14.75C11.25 13.925 11.5437 13.2187 12.1312 12.6312C12.7187 12.0437 13.425 11.75 14.25 11.75C15.075 11.75 15.7813 12.0437 16.3688 12.6312C16.9563 13.2187 17.25 13.925 17.25 14.75C17.25 15.575 16.9563 16.2813 16.3688 16.8688C15.7813 17.4563 15.075 17.75 14.25 17.75Z" fill="#1F2940"/>
</g>
</svg>
