<svg width="32" height="32" viewBox="0 0 32 32" fill="none" xmlns="http://www.w3.org/2000/svg">
<path d="M22.6673 10.6666V7.99996C22.6673 5.48529 22.6673 4.22929 21.886 3.44796C21.1046 2.66663 19.8487 2.66663 17.334 2.66663H14.6673C12.1527 2.66663 10.8967 2.66663 10.1153 3.44796C9.33398 4.22929 9.33398 5.48529 9.33398 7.99996V10.6666" stroke="#1FED93" stroke-width="1.5"/>
<path d="M26.3924 14.708C26.3924 13.9893 26.1987 13.2838 25.8318 12.6658C25.4648 12.0478 24.9381 11.54 24.3071 11.196L17.9151 7.71067C17.3277 7.39045 16.6694 7.22266 16.0004 7.22266C15.3314 7.22266 14.6731 7.39045 14.0857 7.71067L7.69373 11.196C7.06267 11.54 6.53597 12.0478 6.16902 12.6658C5.80206 13.2838 5.6084 13.9893 5.6084 14.708V21.292C5.6084 22.0107 5.80206 22.7162 6.16902 23.3342C6.53597 23.9522 7.06267 24.46 7.69373 24.804L14.0857 28.2893C14.6731 28.6096 15.3314 28.7773 16.0004 28.7773C16.6694 28.7773 17.3277 28.6096 17.9151 28.2893L24.3071 24.804C24.9381 24.46 25.4648 23.9522 25.8318 23.3342C26.1987 22.7162 26.3924 22.0107 26.3924 21.292V20" stroke="#1FED93" stroke-width="1.5" stroke-linecap="round"/>
<path d="M14.8617 15.364C15.3684 14.4547 15.6217 14 16.0004 14C16.379 14 16.6324 14.4547 17.139 15.364L17.2697 15.5987C17.4137 15.8573 17.4857 15.9853 17.5977 16.072C17.711 16.156 17.851 16.188 18.131 16.252L18.3844 16.3093C19.3684 16.532 19.8604 16.6427 19.9777 17.02C20.095 17.396 19.759 17.788 19.0884 18.572L18.915 18.7747C18.7244 18.9987 18.6284 19.1093 18.5857 19.248C18.543 19.3853 18.5577 19.5333 18.5857 19.832L18.6124 20.1027C18.7137 21.148 18.7644 21.672 18.459 21.904C18.1524 22.1373 17.691 21.9253 16.7697 21.5013L16.5324 21.3907C16.2697 21.2707 16.139 21.2107 16.0004 21.2107C15.8617 21.2107 15.731 21.2707 15.4684 21.3907L15.231 21.5013C14.3097 21.9253 13.8484 22.1373 13.5417 21.904C13.235 21.672 13.287 21.148 13.3884 20.1027L13.415 19.832C13.443 19.5333 13.4577 19.3853 13.415 19.248C13.3724 19.1093 13.2764 18.9987 13.0857 18.7747L12.9124 18.572C12.2417 17.788 11.9057 17.396 12.023 17.02C12.1404 16.6427 12.6324 16.532 13.6164 16.3093L13.8697 16.252C14.1497 16.188 14.2897 16.156 14.403 16.072C14.515 15.9867 14.587 15.8573 14.731 15.5987L14.8617 15.364Z" stroke="#1FED93" stroke-width="1.5"/>
</svg>
