<svg width="16" height="16" viewBox="0 0 16 16" fill="none" xmlns="http://www.w3.org/2000/svg">
<g id="Base / Icons / Info" clip-path="url(#clip0_1294_2775)">
<path id="Vector" d="M0.000231478 7.99988C0.000231478 7.26101 0.0946746 6.55268 0.283561 5.87492C0.472447 5.19715 0.73911 4.55827 1.08355 3.95828C1.42799 3.35828 1.84465 2.8194 2.33353 2.34163C2.82241 1.86386 3.36407 1.4472 3.95851 1.09165C4.55294 0.7361 5.18904 0.46666 5.86681 0.283329C6.54458 0.0999985 7.25568 0.00555548 8.00012 0C8.73899 0 9.44732 0.0944431 10.1251 0.283329C10.8029 0.472215 11.4417 0.738878 12.0417 1.08332C12.6417 1.42776 13.1806 1.84442 13.6584 2.3333C14.1361 2.82218 14.5528 3.36384 14.9083 3.95828C15.2639 4.55271 15.5333 5.18881 15.7167 5.86658C15.9 6.54435 15.9944 7.25545 16 7.99988C16 8.73876 15.9056 9.44709 15.7167 10.1249C15.5278 10.8026 15.2583 11.4387 14.9083 12.0332C14.5584 12.6276 14.1417 13.1665 13.6584 13.6498C13.175 14.1331 12.6362 14.5498 12.0417 14.8998C11.4473 15.2498 10.8084 15.5192 10.1251 15.7081C9.44176 15.897 8.73344 15.9942 8.00012 15.9998C7.26124 15.9998 6.55014 15.9053 5.86681 15.7164C5.18349 15.5276 4.54739 15.2609 3.95851 14.9165C3.36963 14.572 2.83075 14.1554 2.34186 13.6665C1.85298 13.1776 1.43632 12.6387 1.09188 12.0498C0.747443 11.4609 0.478002 10.8221 0.283561 10.1332C0.0891191 9.44431 -0.005324 8.73321 0.000231478 7.99988ZM14.9333 7.99988C14.9333 7.361 14.8528 6.74712 14.6917 6.15824C14.5306 5.56936 14.2972 5.01659 13.9917 4.49993C13.6861 3.98328 13.325 3.51662 12.9084 3.09996C12.4917 2.68329 12.0251 2.32219 11.5084 2.01664C10.9917 1.71109 10.439 1.47776 9.85009 1.31665C9.26121 1.15554 8.64455 1.07221 8.00012 1.06665C7.36124 1.06665 6.74736 1.14721 6.15848 1.30831C5.5696 1.46942 5.01683 1.70275 4.50017 2.0083C3.98351 2.31386 3.51685 2.67496 3.10019 3.09162C2.68353 3.50828 2.32242 3.97494 2.01687 4.4916C1.71132 5.00826 1.47799 5.56103 1.31688 6.14991C1.15577 6.73879 1.07244 7.35545 1.06688 7.99988C1.06688 8.63876 1.14744 9.25264 1.30855 9.84152C1.46965 10.4304 1.70298 10.9832 2.00854 11.4998C2.31409 12.0165 2.67519 12.4859 3.09185 12.9081C3.50851 13.3304 3.97517 13.6915 4.49183 13.9915C5.00849 14.2915 5.56126 14.522 6.15014 14.6831C6.73902 14.8442 7.35568 14.9276 8.00012 14.9331C8.639 14.9331 9.25288 14.8526 9.84176 14.6915C10.4306 14.5303 10.9834 14.297 11.5001 13.9915C12.0167 13.6859 12.4862 13.3248 12.9084 12.9081C13.3306 12.4915 13.6917 12.0248 13.9917 11.5082C14.2917 10.9915 14.5222 10.4387 14.6834 9.84986C14.8445 9.26098 14.9278 8.64432 14.9333 7.99988ZM7.20013 4.79993C7.20013 4.57771 7.2779 4.38883 7.43346 4.23327C7.58901 4.07772 7.7779 3.99994 8.00012 3.99994C8.22233 3.99994 8.41122 4.07772 8.56677 4.23327C8.72233 4.38883 8.8001 4.57771 8.8001 4.79993C8.8001 5.02215 8.72233 5.21104 8.56677 5.36659C8.41122 5.52214 8.22233 5.59992 8.00012 5.59992C7.7779 5.59992 7.58901 5.52214 7.43346 5.36659C7.2779 5.21104 7.20013 5.02215 7.20013 4.79993ZM7.46679 11.1998V6.93323C7.46679 6.78879 7.51957 6.66379 7.62512 6.55824C7.73068 6.45268 7.85567 6.39991 8.00012 6.39991C8.14456 6.39991 8.26956 6.45268 8.37511 6.55824C8.48066 6.66379 8.53344 6.78879 8.53344 6.93323V11.1998C8.53344 11.3443 8.48066 11.4693 8.37511 11.5748C8.26956 11.6804 8.14456 11.7332 8.00012 11.7332C7.85567 11.7332 7.73068 11.6804 7.62512 11.5748C7.51957 11.4693 7.46679 11.3443 7.46679 11.1998Z" fill="#707070"/>
</g>
<defs>
<clipPath id="clip0_1294_2775">
<rect width="16" height="16" fill="white"/>
</clipPath>
</defs>
</svg>
