<svg width="32" height="32" viewBox="0 0 32 32" fill="none" xmlns="http://www.w3.org/2000/svg">
<g id="octicon:law-24">
<path id="Vector" d="M17.0001 3.66675V6.00008H19.6334C20.1014 6.00008 20.5587 6.14141 20.9454 6.40408L23.2081 7.94275C23.2641 7.98008 23.3263 7.99919 23.3947 8.00008H28.8641C29.1293 8.00008 29.3836 8.10544 29.5712 8.29297C29.7587 8.48051 29.8641 8.73487 29.8641 9.00008C29.8641 9.2653 29.7587 9.51965 29.5712 9.70719C29.3836 9.89472 29.1293 10.0001 28.8641 10.0001H26.7601L31.2481 20.2401C31.3378 20.4448 31.3564 20.6738 31.3008 20.8903C31.2452 21.1069 31.1187 21.2986 30.9414 21.4347C30.8081 21.5334 30.6703 21.625 30.5281 21.7094C30.1905 21.9124 29.8384 22.0903 29.4747 22.2414C28.2687 22.7458 26.9739 23.0037 25.6667 23.0001C24.3599 23.0058 23.0652 22.7482 21.8601 22.2427C21.4963 22.0912 21.1442 21.9129 20.8067 21.7094C20.6649 21.6281 20.5282 21.5381 20.3974 21.4401L20.3907 21.4347C20.2134 21.2986 20.0869 21.1069 20.0313 20.8903C19.9757 20.6738 19.9943 20.4448 20.0841 20.2401L24.5747 10.0001H23.3934C22.9254 10.0001 22.4681 9.85875 22.0814 9.59608L19.8187 8.05742C19.7636 8.0201 19.6986 8.00013 19.6321 8.00008H17.0001V27.3334H22.9827C23.2479 27.3334 23.5023 27.4388 23.6898 27.6263C23.8774 27.8138 23.9827 28.0682 23.9827 28.3334C23.9827 28.5986 23.8774 28.853 23.6898 29.0405C23.5023 29.2281 23.2479 29.3334 22.9827 29.3334H9.01739C8.75217 29.3334 8.49782 29.2281 8.31028 29.0405C8.12274 28.853 8.01739 28.5986 8.01739 28.3334C8.01739 28.0682 8.12274 27.8138 8.31028 27.6263C8.49782 27.4388 8.75217 27.3334 9.01739 27.3334H15.0001V8.00008H12.3667C12.3002 8.00013 12.2352 8.0201 12.1801 8.05742L9.91872 9.59608C9.53205 9.85875 9.07472 10.0001 8.60672 10.0001H7.42539L11.9161 20.2401C12.003 20.439 12.0228 20.6608 11.9725 20.872C11.9222 21.0832 11.8046 21.2723 11.6374 21.4107C11.5307 21.4974 11.4241 21.5787 11.2241 21.7081C10.887 21.9268 10.534 22.1198 10.1681 22.2854C8.96412 22.8334 7.65617 23.1154 6.33339 23.1121C5.0106 23.1154 3.70265 22.8334 2.49872 22.2854C2.13272 22.1198 1.77972 21.9268 1.44272 21.7081C1.3008 21.6164 1.16331 21.5181 1.03072 21.4134C0.864472 21.2737 0.747523 21.0842 0.697111 20.873C0.646699 20.6617 0.665492 20.4398 0.750719 20.2401L5.24005 10.0001H3.13739C2.87217 10.0001 2.61781 9.89472 2.43028 9.70719C2.24274 9.51965 2.13739 9.2653 2.13739 9.00008C2.13739 8.73487 2.24274 8.48051 2.43028 8.29297C2.61781 8.10544 2.87217 8.00008 3.13739 8.00008H8.60672C8.67427 8.00008 8.73694 7.98097 8.79472 7.94275L11.0547 6.40408C11.4414 6.14008 11.9001 6.00008 12.3681 6.00008H15.0001V3.66675C15.0001 3.40153 15.1054 3.14718 15.2929 2.95964C15.4805 2.7721 15.7348 2.66675 16.0001 2.66675C16.2653 2.66675 16.5196 2.7721 16.7072 2.95964C16.8947 3.14718 17.0001 3.40153 17.0001 3.66675ZM2.92405 20.2641C3.97316 20.8235 5.14447 21.1143 6.33339 21.1107C7.5223 21.1143 8.69361 20.8235 9.74272 20.2641L6.33339 12.4907L2.92405 20.2641ZM22.2707 20.2321C22.3801 20.2854 22.5023 20.3414 22.6374 20.4001C23.3441 20.6974 24.3774 21.0001 25.6667 21.0001C26.8421 21.0032 28.003 20.7407 29.0627 20.2321L25.6667 12.4894L22.2707 20.2321Z" fill="#1FED93"/>
</g>
</svg>
