<svg width="20" height="20" viewBox="0 0 20 20" fill="none" xmlns="http://www.w3.org/2000/svg">
<g id="pptx">
<path id="Path" d="M18 7H15.5C14.673 7 14 6.327 14 5.5V2H6V18H18V7Z" fill="white"/>
<path id="Path_2" d="M18 6.00003V5.70703L15 2.70703V5.50003C15 5.77503 15.225 6.00003 15.5 6.00003H18Z" fill="white"/>
<path id="Shape" opacity="0.67" fill-rule="evenodd" clip-rule="evenodd" d="M18.707 5L15 1.293C14.8125 1.10545 14.5582 1.00006 14.293 1H6C5.44772 1 5 1.44772 5 2V18C5 18.5523 5.44772 19 6 19H18C18.5523 19 19 18.5523 19 18V5.707C18.9999 5.4418 18.8945 5.18749 18.707 5ZM18 5.707V6H15.5C15.2241 5.99945 15.0006 5.77591 15 5.5V2.707L18 5.707ZM6 2.2V17.8C6 17.9105 6.08954 18 6.2 18H17.8C17.9105 18 18 17.9105 18 17.8V7H15.5C14.6716 7 14 6.32843 14 5.5V2H6.2C6.09 2 6 2.09 6 2.2Z" fill="#605E5C"/>
<path id="Path_3" d="M15.95 11H14L13 10L12 11V13.489C12.419 13.805 12.935 14 13.5 14C14.2508 14.0002 14.9619 13.6629 15.4368 13.0813C15.9118 12.4998 16.1002 11.7356 15.95 11Z" fill="#ED6C47"/>
<path id="Path_4" d="M13.5 9C12.9578 9.00113 12.4309 9.17992 12 9.509V11H14V9.05C13.8354 9.01665 13.6679 8.9999 13.5 9V9Z" fill="#FF8F6B"/>
<path id="Path_5" d="M15 10H17C16.7939 8.99305 16.0069 8.20614 15 8V10H15Z" fill="#FFC7B5"/>
<path id="Path_6" d="M2 16H10C10.5523 16 11 15.5523 11 15V7C11 6.44772 10.5523 6 10 6H2C1.44772 6 1 6.44772 1 7V15C1 15.5523 1.44772 16 2 16Z" fill="#C43E1C"/>
<path id="Shape_2" fill-rule="evenodd" clip-rule="evenodd" d="M7.50472 8.481C7.17572 8.16 6.69972 8 6.07972 8H4.01172V14H4.99972V11.879H6.01472C6.37877 11.8866 6.73854 11.7994 7.05872 11.626C7.35972 11.457 7.59072 11.221 7.75472 10.916C7.91872 10.612 7.99972 10.264 7.99972 9.874C7.99972 9.267 7.83472 8.802 7.50472 8.481ZM5.89872 11H4.99972V8.988H5.93072C6.35872 8.988 6.99972 8.992 6.99972 10C6.99972 10.898 6.40572 11 5.89872 11Z" fill="#F9F7F7"/>
</g>
</svg>
