<svg width="52" height="52" viewBox="0 0 52 52" fill="none" xmlns="http://www.w3.org/2000/svg">
<path d="M9 1C4.58172 1 1 4.58172 1 9V43C1 47.4183 4.58172 51 9 51H43C47.4183 51 51 47.4183 51 43V9C51 4.58172 47.4183 1 43 1H9Z" stroke="#001081" stroke-width="2"/>
<g clip-path="url(#clip0_1115_98134)">
<path d="M31 31H33C33.5304 31 34.0391 30.7893 34.4142 30.4142C34.7893 30.0391 35 29.5304 35 29V25C35 24.4696 34.7893 23.9609 34.4142 23.5858C34.0391 23.2107 33.5304 23 33 23H19C18.4696 23 17.9609 23.2107 17.5858 23.5858C17.2107 23.9609 17 24.4696 17 25V29C17 29.5304 17.2107 30.0391 17.5858 30.4142C17.9609 30.7893 18.4696 31 19 31H21" fill="#001081"/>
<path d="M31 31H33C33.5304 31 34.0391 30.7893 34.4142 30.4142C34.7893 30.0391 35 29.5304 35 29V25C35 24.4696 34.7893 23.9609 34.4142 23.5858C34.0391 23.2107 33.5304 23 33 23H19C18.4696 23 17.9609 23.2107 17.5858 23.5858C17.2107 23.9609 17 24.4696 17 25V29C17 29.5304 17.2107 30.0391 17.5858 30.4142C17.9609 30.7893 18.4696 31 19 31H21" stroke="#001081" stroke-width="1.5" stroke-linecap="round" stroke-linejoin="round"/>
<path d="M31 23V19C31 18.4696 30.7893 17.9609 30.4142 17.5858C30.0391 17.2107 29.5304 17 29 17H23C22.4696 17 21.9609 17.2107 21.5858 17.5858C21.2107 17.9609 21 18.4696 21 19V23" stroke="#001081" stroke-width="1.5" stroke-linecap="round" stroke-linejoin="round"/>
<path d="M21 29C21 28.4696 21.2107 27.9609 21.5858 27.5858C21.9609 27.2107 22.4696 27 23 27H29C29.5304 27 30.0391 27.2107 30.4142 27.5858C30.7893 27.9609 31 28.4696 31 29V33C31 33.5304 30.7893 34.0391 30.4142 34.4142C30.0391 34.7893 29.5304 35 29 35H23C22.4696 35 21.9609 34.7893 21.5858 34.4142C21.2107 34.0391 21 33.5304 21 33V29Z" stroke="#001081" stroke-width="1.5" stroke-linecap="round" stroke-linejoin="round"/>
</g>
<defs>
<clipPath id="clip0_1115_98134">
<rect width="24" height="24" fill="white" transform="translate(14 14)"/>
</clipPath>
</defs>
</svg>
