<svg width="48" height="49" viewBox="0 0 48 49" fill="none" xmlns="http://www.w3.org/2000/svg">
  <path d="M18.232 28.3734L16 10.7714L13.768 28.3714H6C4.896 28.3714 4 27.4974 4 26.4194C4.00633 25.8949 4.22048 25.3944 4.59544 25.0277C4.97041 24.661 5.47555 24.458 6 24.4634H10.232L12.032 10.2914C12.3 8.14736 14.3 6.62736 16.49 6.89136C18.31 7.11136 19.742 8.51136 19.968 10.2914L21.766 24.4634H25.714L28 38.9554L30.284 24.4654H42C43.104 24.4654 44 25.3414 44 26.4214C44 27.5014 43.104 28.3754 42 28.3754H33.716L31.954 39.5494C31.8162 40.3787 31.4178 41.1426 30.8165 41.7303C30.2152 42.3179 29.4423 42.6987 28.61 42.8174C26.426 43.1474 24.384 41.6834 24.046 39.5494L22.286 28.3754H18.23L18.232 28.3734Z" fill="#1FED93"/>
</svg>