<svg xmlns="http://www.w3.org/2000/svg" width="20" height="20" viewBox="0 0 20 20" fill="none">
  <path d="M11.5 3C8.46243 3 6 5.46243 6 8.5C6 9.83879 6.47834 11.0659 7.27344 12.0196L3.14645 16.1464C2.95118 16.3417 2.95118 16.6583 3.14645 16.8536C3.32001 17.0271 3.58944 17.0464 3.78431 16.9114L3.85355 16.8536L7.98038 12.7266C8.93414 13.5217 10.1612 14 11.5 14C14.5376 14 17 11.5376 17 8.5C17 5.46243 14.5376 3 11.5 3ZM11.5 4C13.9853 4 16 6.01472 16 8.5C16 10.9853 13.9853 13 11.5 13C9.01472 13 7 10.9853 7 8.5C7 6.01472 9.01472 4 11.5 4Z" fill="#D0D0D0"/>
</svg>