<svg width="64" height="65" viewBox="0 0 64 65" fill="none" xmlns="http://www.w3.org/2000/svg">
<path d="M37.32 62.0182C37.32 63.4848 36.12 64.6848 34.6533 64.6848H2.66667C1.2 64.6848 0 63.4848 0 62.0182C0 51.7048 8.33999 43.3582 18.66 43.3582C28.9733 43.3582 37.32 51.6982 37.32 62.0182Z" fill="#42566B"/>
<path d="M18.66 38.0248C24.5473 38.0248 29.32 33.2522 29.32 27.3648C29.32 21.4775 24.5473 16.7048 18.66 16.7048C12.7726 16.7048 8 21.4775 8 27.3648C8 33.2522 12.7726 38.0248 18.66 38.0248Z" fill="#42566B"/>
<path d="M50.6464 0.711426H23.993C16.8197 0.711426 11.0131 6.41809 10.7197 13.5048C13.0664 12.1448 15.7597 11.3714 18.6663 11.3714C25.973 11.3714 32.0997 16.2781 34.0197 22.9648L39.993 28.9381L49.5597 19.3714H45.3197C43.853 19.3714 42.653 18.1714 42.653 16.7048C42.653 15.2381 43.853 14.0381 45.3197 14.0381H53.3197C56.253 14.0381 58.653 16.4381 58.653 19.3714V27.3714C58.653 28.8381 57.453 30.0381 55.9863 30.0381C54.5197 30.0381 53.3197 28.8381 53.3197 27.3714V23.1314L43.753 32.6981C41.673 34.7781 38.2864 34.7781 36.2064 32.6981L34.2864 30.7781V30.8314C33.4597 34.5914 31.2997 37.8448 28.3397 40.0781C32.5263 41.9181 36.073 44.9314 38.5997 48.6848H50.673C58.033 48.6848 63.9997 42.7114 63.9997 35.3581V14.0381C63.9997 6.67809 58.0263 0.711426 50.673 0.711426H50.6464Z" fill="#27EF98"/>
</svg>
