<svg width="20" height="20" viewBox="0 0 20 20" fill="none" xmlns="http://www.w3.org/2000/svg">
<g id="Base / Icons / Upload">
<path id="Vector" d="M14.5 2C14.6354 2 14.7526 2.04948 14.8516 2.14844C14.9505 2.2474 15 2.36458 15 2.5C15 2.63542 14.9505 2.7526 14.8516 2.85156C14.7526 2.95052 14.6354 3 14.5 3H4.5C4.36458 3 4.2474 2.95052 4.14844 2.85156C4.04948 2.7526 4 2.63542 4 2.5C4 2.36458 4.04948 2.2474 4.14844 2.14844C4.2474 2.04948 4.36458 2 4.5 2H14.5ZM14.5 9C14.5 9.13542 14.4505 9.2526 14.3516 9.35156C14.2526 9.45052 14.1354 9.5 14 9.5C13.9271 9.5 13.8646 9.48698 13.8125 9.46094C13.7604 9.4349 13.7057 9.39844 13.6484 9.35156L10 5.71094V17.5C10 17.6354 9.95052 17.7526 9.85156 17.8516C9.7526 17.9505 9.63542 18 9.5 18C9.36458 18 9.2474 17.9505 9.14844 17.8516C9.04948 17.7526 9 17.6354 9 17.5V5.71094L5.35156 9.35156C5.2526 9.45052 5.13542 9.5 5 9.5C4.86458 9.5 4.7474 9.45052 4.64844 9.35156C4.54948 9.2526 4.5 9.13542 4.5 9C4.5 8.86458 4.54948 8.7474 4.64844 8.64844L9.125 4.17188C9.18229 4.11458 9.23958 4.07292 9.29688 4.04688C9.35417 4.02083 9.42188 4.00521 9.5 4C9.57812 4 9.64583 4.01302 9.70312 4.03906C9.76042 4.0651 9.81771 4.10938 9.875 4.17188L14.3516 8.64844C14.4505 8.7474 14.5 8.86458 14.5 9Z" fill="#038387"/>
</g>
</svg>
