<svg width="32" height="32" viewBox="0 0 32 32" fill="none" xmlns="http://www.w3.org/2000/svg">
<path d="M8 13.3333H13.3333" stroke="#1FED93" stroke-width="1.5" stroke-linecap="round" stroke-linejoin="round"/>
<path d="M29.3307 16.6666C29.3307 16.564 29.3333 15.956 29.3307 15.9133C29.2827 15.2453 28.7107 14.7133 27.9907 14.6693C27.944 14.6666 27.8893 14.6666 27.7773 14.6666H24.308C21.928 14.6666 20 16.4573 20 18.6666C20 20.876 21.9293 22.6666 24.3067 22.6666H27.7773C27.8893 22.6666 27.944 22.6666 27.9907 22.664C28.7107 22.62 29.284 22.088 29.3307 21.42C29.3333 21.3773 29.3333 20.7693 29.3333 20.6666" stroke="#1FED93" stroke-width="1.5" stroke-linecap="round"/>
<path d="M24.0003 19.9999C24.7367 19.9999 25.3337 19.403 25.3337 18.6666C25.3337 17.9302 24.7367 17.3333 24.0003 17.3333C23.2639 17.3333 22.667 17.9302 22.667 18.6666C22.667 19.403 23.2639 19.9999 24.0003 19.9999Z" fill="#1FED93"/>
<path d="M13.3337 29.3333H17.3337C22.3617 29.3333 24.8763 29.3333 26.4377 27.7706C27.5163 26.6933 27.851 25.1626 27.9537 22.6666M27.9537 14.6666C27.8497 12.1706 27.5163 10.64 26.4377 9.56263C24.8763 7.99997 22.3617 7.99997 17.3337 7.99997H13.3337C8.30566 7.99997 5.79099 7.99997 4.22966 9.56263C2.66699 11.124 2.66699 13.6386 2.66699 18.6666C2.66699 23.6946 2.66699 26.2093 4.22966 27.7706C5.10033 28.6426 6.26699 29.028 8.00033 29.1973M8.00033 7.99997L12.9803 4.6973C13.6807 4.24175 14.4982 3.99927 15.3337 3.99927C16.1691 3.99927 16.9866 4.24175 17.687 4.6973L22.667 7.99997" stroke="#1FED93" stroke-width="1.5" stroke-linecap="round"/>
</svg>
