<svg width="16" height="14" viewBox="0 0 16 14" fill="none" xmlns="http://www.w3.org/2000/svg">
<g id="Group">
<path id="Vector" fill-rule="evenodd" clip-rule="evenodd" d="M2.75 2.6875C2.20299 2.6875 1.67839 2.9048 1.29159 3.29159C0.904799 3.67839 0.6875 4.20299 0.6875 4.75V11.5C0.6875 12.047 0.904799 12.5716 1.29159 12.9584C1.67839 13.3452 2.20299 13.5625 2.75 13.5625H13.25C13.797 13.5625 14.3216 13.3452 14.7084 12.9584C15.0952 12.5716 15.3125 12.047 15.3125 11.5V4.75C15.3125 4.20299 15.0952 3.67839 14.7084 3.29159C14.3216 2.9048 13.797 2.6875 13.25 2.6875H2.75ZM11.375 7.1875C11.1264 7.1875 10.8879 7.28627 10.7121 7.46209C10.5363 7.6379 10.4375 7.87636 10.4375 8.125C10.4375 8.37364 10.5363 8.6121 10.7121 8.78791C10.8879 8.96373 11.1264 9.0625 11.375 9.0625C11.6236 9.0625 11.8621 8.96373 12.0379 8.78791C12.2137 8.6121 12.3125 8.37364 12.3125 8.125C12.3125 7.87636 12.2137 7.6379 12.0379 7.46209C11.8621 7.28627 11.6236 7.1875 11.375 7.1875Z" fill="#1F2940"/>
<path id="Vector_2" d="M11.3638 0.301742C11.5858 0.242566 11.8185 0.235204 12.0439 0.280225C12.2692 0.325246 12.4812 0.421445 12.6635 0.561398C12.8458 0.701351 12.9935 0.881315 13.0951 1.0874C13.1968 1.29349 13.2498 1.52018 13.25 1.74999H5.75L11.3638 0.301742Z" fill="#1F2940"/>
</g>
</svg>
