<svg width="64" height="65" viewBox="0 0 64 65" fill="none" xmlns="http://www.w3.org/2000/svg">
<g id="Group">
<path id="Vector" d="M21.3369 32.7114C30.1735 32.7114 37.3369 25.548 37.3369 16.7114C37.3369 7.87487 30.1735 0.711426 21.3369 0.711426C12.5004 0.711426 5.33691 7.87487 5.33691 16.7114C5.33691 25.548 12.5004 32.7114 21.3369 32.7114Z" fill="#42566B"/>
<path id="Vector_2" d="M39.3237 64.7115C38.7637 64.7115 38.1971 64.5315 37.7237 64.1781C36.8171 63.4981 36.4437 62.3248 36.7771 61.2448L39.2837 53.2048L32.9437 48.0448C32.0904 47.3248 31.7771 46.1448 32.1637 45.0915C32.5504 44.0381 33.5504 43.3448 34.6637 43.3448H42.6637L45.4971 35.3981C45.8837 34.3581 46.8837 33.6648 47.9971 33.6648C49.1104 33.6648 50.1037 34.3581 50.4971 35.3981L53.3304 43.3448H61.3304C62.4504 43.3448 63.4504 44.0448 63.8371 45.0981C64.2237 46.1515 63.9037 47.3315 63.0504 48.0515L56.7437 53.1915L59.3571 61.1381C59.7171 62.2115 59.3571 63.3981 58.4504 64.0848C57.5504 64.7781 56.3171 64.8248 55.3704 64.2048L48.0237 59.4248L40.8037 64.2581C40.3571 64.5581 39.8371 64.7115 39.3237 64.7115Z" fill="#27EF98"/>
<path id="Vector_3" d="M26.5034 64.7113H2.67008C1.19675 64.7113 0.00341797 63.518 0.00341797 62.0447C0.00341797 48.8113 10.7701 38.0447 24.0034 38.0447H26.5034C27.4234 38.0447 28.2834 38.5247 28.7701 39.3113C29.2568 40.098 29.3034 41.078 28.8901 41.898C27.4168 44.858 26.6701 48.0513 26.6701 51.378C26.6701 54.7047 27.4168 57.898 28.8901 60.858C29.3034 61.6847 29.2568 62.6647 28.7701 63.4513C28.2834 64.238 27.4234 64.7113 26.5034 64.7113Z" fill="#42566B"/>
</g>
</svg>
