<svg width="20" height="20" viewBox="0 0 20 20" fill="none" xmlns="http://www.w3.org/2000/svg">
<g id="xlsx">
<path id="Path" d="M18 7H15.5C14.673 7 14 6.327 14 5.5V2H6V18H18V7Z" fill="white"/>
<path id="Path_2" d="M18 6.00003V5.70703L15 2.70703V5.50003C15 5.77503 15.225 6.00003 15.5 6.00003H18Z" fill="white"/>
<path id="Shape" opacity="0.67" fill-rule="evenodd" clip-rule="evenodd" d="M18.707 5L15 1.293C14.8125 1.10545 14.5582 1.00006 14.293 1H6C5.44772 1 5 1.44772 5 2V18C5 18.5523 5.44772 19 6 19H18C18.5523 19 19 18.5523 19 18V5.707C18.9999 5.4418 18.8945 5.18749 18.707 5ZM18 5.707V6H15.5C15.2241 5.99945 15.0006 5.77591 15 5.5V2.707L18 5.707ZM6 2.2V17.8C6 17.9105 6.08954 18 6.2 18H17.8C17.9105 18 18 17.9105 18 17.8V7H15.5C14.6716 7 14 6.32843 14 5.5V2H6.2C6.09 2 6 2.09 6 2.2Z" fill="#605E5C"/>
<path id="Shape_2" fill-rule="evenodd" clip-rule="evenodd" d="M12.5 12H13.5C13.775 12 14 12.225 14 12.5C14 12.775 13.775 13 13.5 13H12.5C12.225 13 12 12.775 12 12.5C12 12.225 12.225 12 12.5 12ZM15.5 12H16.5C16.775 12 17 12.225 17 12.5C17 12.775 16.775 13 16.5 13H15.5C15.225 13 15 12.775 15 12.5C15 12.225 15.225 12 15.5 12Z" fill="#134A2C"/>
<path id="Shape_3" fill-rule="evenodd" clip-rule="evenodd" d="M12.5 10H13.5C13.775 10 14 10.225 14 10.5C14 10.775 13.775 11 13.5 11H12.5C12.225 11 12 10.775 12 10.5C12 10.225 12.225 10 12.5 10ZM15.5 10H16.5C16.775 10 17 10.225 17 10.5C17 10.775 16.775 11 16.5 11H15.5C15.225 11 15 10.775 15 10.5C15 10.225 15.225 10 15.5 10Z" fill="#21A366"/>
<path id="Path_3" d="M16.5 8H15.5C15.225 8 15 8.225 15 8.5C15 8.775 15.225 9 15.5 9H16.5C16.775 9 17 8.775 17 8.5C17 8.225 16.775 8 16.5 8Z" fill="#33C481"/>
<path id="Path_4" d="M13.5 8H12.5C12.225 8 12 8.225 12 8.5C12 8.775 12.225 9 12.5 9H13.5C13.775 9 14 8.775 14 8.5C14 8.225 13.775 8 13.5 8Z" fill="#21A366"/>
<path id="Path_5" d="M2 16H10C10.5523 16 11 15.5523 11 15V7C11 6.44772 10.5523 6 10 6H2C1.44772 6 1 6.44772 1 7V15C1 15.5523 1.44772 16 2 16Z" fill="#107C41"/>
<path id="Path_6" d="M4.60553 14L8.31253 8H7.14953L3.39453 14H4.60553Z" fill="white"/>
<path id="Path_7" d="M7.37299 14L3.66699 8H4.82899L8.58299 14H7.37299Z" fill="white"/>
</g>
</svg>
